iA Writer Duospace Italic-Bold.ufo
<glyph name="exclam" format="1">
  <advance width="600"/>
  <unicode hex="0021"/>
  <outline>
    <contour>
      <point x="257" y="495" type="line"/>
      <point x="269" y="243" type="line"/>
      <point x="321" y="243" type="line"/>
      <point x="417" y="495" type="line"/>
      <point x="451" y="698" type="line"/>
      <point x="290" y="698" type="line"/>
    </contour>
    <contour>
      <point x="256" y="-12" type="curve"/>
      <point x="322" y="-12"/>
      <point x="354" y="21"/>
      <point x="361" y="63" type="curve"/>
      <point x="366" y="93"/>
      <point x="367" y="103"/>
      <point x="367" y="111" type="curve"/>
      <point x="367" y="146"/>
      <point x="341" y="174"/>
      <point x="279" y="174" type="curve"/>
      <point x="213" y="174"/>
      <point x="181" y="141"/>
      <point x="174" y="99" type="curve"/>
      <point x="169" y="69"/>
      <point x="168" y="59"/>
      <point x="168" y="51" type="curve"/>
      <point x="168" y="16"/>
      <point x="194" y="-12"/>
    </contour>
  </outline>
</glyph>
<glyph name="quotedbl" format="1">
  <advance width="600"/>
  <unicode hex="0022"/>
  <outline>
    <contour>
      <point x="428" y="740" type="line"/>
      <point x="374" y="415" type="line"/>
      <point x="504" y="415" type="line"/>
      <point x="558" y="740" type="line"/>
    </contour>
    <contour>
      <point x="204" y="740" type="line"/>
      <point x="150" y="415" type="line"/>
      <point x="280" y="415" type="line"/>
      <point x="334" y="740" type="line"/>
    </contour>
  </outline>
</glyph>
<glyph name="period" format="1">
  <advance width="600"/>
  <unicode hex="002E"/>
  <outline>
    <contour>
      <point x="255" y="-12" type="curve"/>
      <point x="328" y="-12"/>
      <point x="363" y="26"/>
      <point x="370" y="68" type="curve"/>
      <point x="374" y="92"/>
      <point x="376" y="108"/>
      <point x="376" y="119" type="curve"/>
      <point x="376" y="156"/>
      <point x="350" y="186"/>
      <point x="284" y="186" type="curve"/>
      <point x="211" y="186"/>
      <point x="176" y="148"/>
      <point x="169" y="106" type="curve"/>
      <point x="165" y="82"/>
      <point x="163" y="66"/>
      <point x="163" y="55" type="curve"/>
      <point x="163" y="18"/>
      <point x="189" y="-12"/>
    </contour>
  </outline>
</glyph>
<glyph name="four" format="1">
  <advance width="600"/>
  <unicode hex="0034"/>
  <outline>
    <contour>
      <point x="320" y="134" type="line"/>
      <point x="298" y="0" type="line"/>
      <point x="442" y="0" type="line"/>
      <point x="464" y="134" type="line"/>
      <point x="553" y="134" type="line"/>
      <point x="572" y="249" type="line"/>
      <point x="483" y="249" type="line"/>
      <point x="558" y="698" type="line"/>
      <point x="379" y="698" type="line"/>
      <point x="28" y="264" type="line"/>
      <point x="6" y="134" type="line"/>
    </contour>
    <contour>
      <point x="339" y="249" type="line"/>
      <point x="151" y="249" type="line"/>
      <point x="378" y="530" type="line"/>
      <point x="386" y="530" type="line"/>
    </contour>
  </outline>
</glyph>
<glyph name="semicolon" format="1">
  <advance width="600"/>
  <unicode hex="003B"/>
  <outline>
    <contour>
      <point x="310" y="329" type="curve"/>
      <point x="383" y="329"/>
      <point x="418" y="367"/>
      <point x="425" y="409" type="curve"/>
      <point x="429" y="433"/>
      <point x="431" y="449"/>
      <point x="431" y="460" type="curve"/>
      <point x="431" y="497"/>
      <point x="405" y="527"/>
      <point x="339" y="527" type="curve"/>
      <point x="266" y="527"/>
      <point x="231" y="489"/>
      <point x="224" y="447" type="curve"/>
      <point x="220" y="423"/>
      <point x="218" y="407"/>
      <point x="218" y="396" type="curve"/>
      <point x="218" y="359"/>
      <point x="244" y="329"/>
    </contour>
    <contour>
      <point x="398" y="173" type="line"/>
      <point x="211" y="173" type="line"/>
      <point x="102" y="-151" type="line"/>
      <point x="215" y="-151" type="line"/>
    </contour>
  </outline>
</glyph>
<glyph name="less" format="1">
  <advance width="600"/>
  <unicode hex="003C"/>
  <outline>
    <contour>
      <point x="104" y="375" type="line"/>
      <point x="81" y="237" type="line"/>
      <point x="473" y="7" type="line"/>
      <point x="495" y="138" type="line"/>
      <point x="224" y="296" type="line"/>
      <point x="225" y="304" type="line"/>
      <point x="548" y="461" type="line"/>
      <point x="572" y="604" type="line"/>
    </contour>
  </outline>
</glyph>
<glyph name="A" format="1">
  <advance width="600"/>
  <unicode hex="0041"/>
  <outline>
    <contour>
      <point x="383" y="169" type="line"/>
      <point x="400" y="0" type="line"/>
      <point x="552" y="0" type="line"/>
      <point x="476" y="698" type="line"/>
      <point x="270" y="698" type="line"/>
      <point x="-37" y="0" type="line"/>
      <point x="118" y="0" type="line"/>
      <point x="187" y="169" type="line"/>
    </contour>
    <contour>
      <point x="347" y="553" type="line"/>
      <point x="356" y="553" type="line"/>
      <point x="377" y="289" type="line"/>
      <point x="237" y="289" type="line"/>
    </contour>
  </outline>
</glyph>
<glyph name="B" format="1">
  <advance width="600"/>
  <unicode hex="0042"/>
  <outline>
    <contour>
      <point x="389" y="698" type="curve"/>
      <point x="152" y="698" type="line"/>
      <point x="35" y="0" type="line"/>
      <point x="305" y="0" type="line" smooth="yes"/>
      <point x="453" y="0"/>
      <point x="544" y="86"/>
      <point x="544" y="217" type="curve"/>
      <point x="544" y="291"/>
      <point x="503" y="336"/>
      <point x="430" y="350" type="curve"/>
      <point x="431" y="355" type="line"/>
      <point x="528" y="379"/>
      <point x="576" y="441"/>
      <point x="576" y="537" type="curve"/>
      <point x="576" y="634"/>
      <point x="510" y="698"/>
    </contour>
    <contour>
      <point x="273" y="104" type="curve"/>
      <point x="197" y="104" type="line"/>
      <point x="230" y="303" type="line"/>
      <point x="312" y="303" type="line" smooth="yes"/>
      <point x="372" y="303"/>
      <point x="397" y="284"/>
      <point x="397" y="238" type="curve"/>
      <point x="397" y="230"/>
      <point x="394" y="215"/>
      <point x="392" y="203" type="curve"/>
      <point x="388" y="179" type="line" smooth="yes"/>
      <point x="379" y="125"/>
      <point x="339" y="104"/>
    </contour>
    <contour>
      <point x="304" y="402" type="curve"/>
      <point x="247" y="402" type="line"/>
      <point x="279" y="594" type="line"/>
      <point x="343" y="594" type="line" smooth="yes"/>
      <point x="396" y="594"/>
      <point x="426" y="578"/>
      <point x="426" y="533" type="curve"/>
      <point x="426" y="524"/>
      <point x="424" y="508"/>
      <point x="423" y="502" type="curve"/>
      <point x="419" y="478" type="line" smooth="yes"/>
      <point x="409" y="418"/>
      <point x="374" y="402"/>
    </contour>
  </outline>
</glyph>
<glyph name="F" format="1">
  <advance width="600"/>
  <unicode hex="0046"/>
  <outline>
    <contour>
      <point x="155" y="698" type="line"/>
      <point x="38" y="0" type="line"/>
      <point x="185" y="0" type="line"/>
      <point x="234" y="292" type="line"/>
      <point x="516" y="292" type="line"/>
      <point x="536" y="414" type="line"/>
      <point x="254" y="414" type="line"/>
      <point x="281" y="576" type="line"/>
      <point x="597" y="576" type="line"/>
      <point x="617" y="698" type="line"/>
    </contour>
  </outline>
</glyph>
<glyph name="H" format="1">
  <advance width="600"/>
  <unicode hex="0048"/>
  <outline>
    <contour>
      <point x="217" y="293" type="line"/>
      <point x="397" y="293" type="line"/>
      <point x="348" y="0" type="line"/>
      <point x="496" y="0" type="line"/>
      <point x="612" y="698" type="line"/>
      <point x="464" y="698" type="line"/>
      <point x="417" y="414" type="line"/>
      <point x="237" y="414" type="line"/>
      <point x="284" y="698" type="line"/>
      <point x="136" y="698" type="line"/>
      <point x="20" y="0" type="line"/>
      <point x="168" y="0" type="line"/>
    </contour>
  </outline>
</glyph>
<glyph name="L" format="1">
  <advance width="600"/>
  <unicode hex="004C"/>
  <outline>
    <contour>
      <point x="167" y="698" type="line"/>
      <point x="51" y="0" type="line"/>
      <point x="501" y="0" type="line"/>
      <point x="521" y="122" type="line"/>
      <point x="219" y="122" type="line"/>
      <point x="315" y="698" type="line"/>
    </contour>
  </outline>
</glyph>
<glyph name="M" format="1">
  <advance width="900"/>
  <unicode hex="004D"/>
  <outline>
    <contour>
      <point x="692" y="461" type="line"/>
      <point x="698" y="461" type="line"/>
      <point x="605" y="0" type="line"/>
      <point x="743" y="0" type="line"/>
      <point x="883" y="698" type="line"/>
      <point x="722" y="698" type="line"/>
      <point x="469" y="366" type="line"/>
      <point x="465" y="366" type="line"/>
      <point x="344" y="698" type="line"/>
      <point x="192" y="698" type="line"/>
      <point x="52" y="0" type="line"/>
      <point x="190" y="0" type="line"/>
      <point x="283" y="463" type="line"/>
      <point x="288" y="463" type="line"/>
      <point x="337" y="342" type="line"/>
      <point x="421" y="115" type="line"/>
      <point x="586" y="327" type="line"/>
    </contour>
  </outline>
</glyph>
<glyph name="N" format="1">
  <advance width="600"/>
  <unicode hex="004E"/>
  <outline>
    <contour>
      <point x="227" y="468" type="line"/>
      <point x="237" y="468" type="line"/>
      <point x="318" y="0" type="line"/>
      <point x="496" y="0" type="line"/>
      <point x="612" y="698" type="line"/>
      <point x="483" y="698" type="line"/>
      <point x="405" y="230" type="line"/>
      <point x="395" y="230" type="line"/>
      <point x="314" y="698" type="line"/>
      <point x="136" y="698" type="line"/>
      <point x="20" y="0" type="line"/>
      <point x="149" y="0" type="line"/>
    </contour>
  </outline>
</glyph>
<glyph name="W" format="1">
  <advance width="900"/>
  <unicode hex="0057"/>
  <outline>
    <contour>
      <point x="93" y="698" type="line"/>
      <point x="107" y="0" type="line"/>
      <point x="279" y="0" type="line"/>
      <point x="409" y="312" type="line"/>
      <point x="498" y="536" type="line"/>
      <point x="507" y="536" type="line"/>
      <point x="507" y="291" type="line"/>
      <point x="515" y="0" type="line"/>
      <point x="683" y="0" type="line"/>
      <point x="974" y="698" type="line"/>
      <point x="828" y="698" type="line"/>
      <point x="710" y="384" type="line"/>
      <point x="623" y="134" type="line"/>
      <point x="613" y="134" type="line"/>
      <point x="620" y="416" type="line"/>
      <point x="613" y="698" type="line"/>
      <point x="454" y="698" type="line"/>
      <point x="328" y="401" type="line"/>
      <point x="231" y="144" type="line"/>
      <point x="221" y="144" type="line"/>
      <point x="232" y="419" type="line"/>
      <point x="236" y="698" type="line"/>
    </contour>
  </outline>
</glyph>
<glyph name="bracketleft" format="1">
  <advance width="600"/>
  <unicode hex="005B"/>
  <outline>
    <contour>
      <point x="268" y="760" type="line"/>
      <point x="118" y="-138" type="line"/>
      <point x="438" y="-138" type="line"/>
      <point x="455" y="-40" type="line"/>
      <point x="252" y="-40" type="line"/>
      <point x="369" y="662" type="line"/>
      <point x="572" y="662" type="line"/>
      <point x="588" y="760" type="line"/>
    </contour>
  </outline>
</glyph>
<glyph name="backslash" format="1">
  <advance width="600"/>
  <unicode hex="005C"/>
  <outline>
    <contour>
      <point x="161" y="760" type="line"/>
      <point x="330" y="-138" type="line"/>
      <point x="449" y="-138" type="line"/>
      <point x="280" y="760" type="line"/>
    </contour>
  </outline>
</glyph>
<glyph name="bracketright" format="1">
  <advance width="600"/>
  <unicode hex="005D"/>
  <outline>
    <contour>
      <point x="351" y="-138" type="line"/>
      <point x="501" y="760" type="line"/>
      <point x="181" y="760" type="line"/>
      <point x="164" y="662" type="line"/>
      <point x="367" y="662" type="line"/>
      <point x="250" y="-40" type="line"/>
      <point x="47" y="-40" type="line"/>
      <point x="31" y="-138" type="line"/>
    </contour>
  </outline>
</glyph>
<glyph name="grave" format="1">
  <advance width="600"/>
  <unicode hex="0060"/>
  <outline>
    <contour>
      <point x="303" y="806" type="line"/>
      <point x="179" y="747" type="line"/>
      <point x="293" y="571" type="line"/>
      <point x="380" y="610" type="line"/>
    </contour>
  </outline>
</glyph>
<glyph name="d" format="1">
  <advance width="600"/>
  <unicode hex="0064"/>
  <outline>
    <contour>
      <point x="362" y="123" type="curve"/>
      <point x="367" y="123" type="line"/>
      <point x="347" y="0" type="line"/>
      <point x="493" y="0" type="line"/>
      <point x="616" y="740" type="line"/>
      <point x="470" y="740" type="line"/>
      <point x="417" y="420" type="line"/>
      <point x="410" y="420" type="line"/>
      <point x="395" y="488"/>
      <point x="356" y="528"/>
      <point x="275" y="528" type="curve"/>
      <point x="132" y="528"/>
      <point x="38" y="393"/>
      <point x="38" y="188" type="curve"/>
      <point x="38" y="67"/>
      <point x="80" y="-12"/>
      <point x="189" y="-12" type="curve"/>
      <point x="277" y="-12"/>
      <point x="323" y="44"/>
    </contour>
    <contour>
      <point x="254" y="101" type="curve"/>
      <point x="204" y="101"/>
      <point x="187" y="139"/>
      <point x="186" y="188" type="curve"/>
      <point x="186" y="205"/>
      <point x="188" y="221"/>
      <point x="190" y="233" type="curve"/>
      <point x="200" y="293" type="line" smooth="yes"/>
      <point x="213" y="371"/>
      <point x="250" y="415"/>
      <point x="322" y="415" type="curve"/>
      <point x="385" y="415"/>
      <point x="411" y="384"/>
      <point x="402" y="330" type="curve"/>
      <point x="388" y="247" type="line" smooth="yes"/>
      <point x="381" y="204"/>
      <point x="357" y="169"/>
      <point x="341" y="150" type="curve"/>
      <point x="317" y="120"/>
      <point x="290" y="101"/>
    </contour>
  </outline>
</glyph>
<glyph name="g" format="1">
  <advance width="600"/>
  <unicode hex="0067"/>
  <outline>
    <contour>
      <point x="224" y="-212" type="curve"/>
      <point x="377" y="-212"/>
      <point x="473" y="-131"/>
      <point x="501" y="36" type="curve"/>
      <point x="581" y="516" type="line"/>
      <point x="435" y="516" type="line"/>
      <point x="419" y="420" type="line"/>
      <point x="411" y="420" type="line"/>
      <point x="397" y="488"/>
      <point x="358" y="528"/>
      <point x="275" y="528" type="curve"/>
      <point x="130" y="528"/>
      <point x="41" y="396"/>
      <point x="41" y="208" type="curve"/>
      <point x="41" y="93"/>
      <point x="85" y="8"/>
      <point x="196" y="8" type="curve"/>
      <point x="285" y="8"/>
      <point x="330" y="64"/>
      <point x="368" y="143" type="curve"/>
      <point x="374" y="143" type="line"/>
      <point x="359" y="54" type="line" smooth="yes"/>
      <point x="338" y="-72"/>
      <point x="294" y="-99"/>
      <point x="220" y="-99" type="curve"/>
      <point x="174" y="-99"/>
      <point x="132" y="-85"/>
      <point x="100" y="-46" type="curve"/>
      <point x="13" y="-136" type="line"/>
      <point x="65" y="-197"/>
      <point x="128" y="-212"/>
    </contour>
    <contour>
      <point x="260" y="122" type="curve"/>
      <point x="210" y="122"/>
      <point x="191" y="158"/>
      <point x="191" y="202" type="curve"/>
      <point x="191" y="223"/>
      <point x="193" y="239"/>
      <point x="195" y="251" type="curve"/>
      <point x="202" y="293" type="line" smooth="yes"/>
      <point x="214" y="365"/>
      <point x="251" y="415"/>
      <point x="325" y="415" type="curve"/>
      <point x="390" y="415"/>
      <point x="413" y="381"/>
      <point x="405" y="333" type="curve"/>
      <point x="394" y="266" type="line" smooth="yes"/>
      <point x="386" y="218"/>
      <point x="361" y="187"/>
      <point x="345" y="168" type="curve"/>
      <point x="321" y="140"/>
      <point x="296" y="122"/>
    </contour>
  </outline>
</glyph>
<glyph name="i" format="1">
  <advance width="600"/>
  <unicode hex="0069"/>
  <outline>
    <contour>
      <point x="339" y="584" type="curve"/>
      <point x="399" y="584"/>
      <point x="426" y="608"/>
      <point x="433" y="650" type="curve"/>
      <point x="437" y="674"/>
      <point x="438" y="683"/>
      <point x="438" y="690" type="curve"/>
      <point x="438" y="725"/>
      <point x="416" y="751"/>
      <point x="356" y="751" type="curve"/>
      <point x="296" y="751"/>
      <point x="269" y="727"/>
      <point x="262" y="685" type="curve"/>
      <point x="258" y="661"/>
      <point x="257" y="652"/>
      <point x="257" y="645" type="curve"/>
      <point x="257" y="610"/>
      <point x="279" y="584"/>
    </contour>
    <contour>
      <point x="298" y="-12" type="curve"/>
      <point x="367" y="-12"/>
      <point x="423" y="27"/>
      <point x="490" y="103" type="curve"/>
      <point x="551" y="173" type="line"/>
      <point x="471" y="244" type="line"/>
      <point x="331" y="101" type="line"/>
      <point x="314" y="106" type="line"/>
      <point x="391" y="516" type="line"/>
      <point x="87" y="516" type="line"/>
      <point x="68" y="402" type="line"/>
      <point x="224" y="402" type="line"/>
      <point x="184" y="188" type="line" smooth="yes"/>
      <point x="176" y="147"/>
      <point x="174" y="130"/>
      <point x="174" y="108" type="curve"/>
      <point x="174" y="35"/>
      <point x="216" y="-12"/>
    </contour>
  </outline>
</glyph>
<glyph name="m" format="1">
  <advance width="900"/>
  <unicode hex="006D"/>
  <outline>
    <contour>
      <point x="129" y="525" type="line"/>
      <point x="24" y="0" type="line"/>
      <point x="164" y="0" type="line"/>
      <point x="218" y="270" type="line" smooth="yes"/>
      <point x="226" y="310"/>
      <point x="243" y="344"/>
      <point x="266" y="372" type="curve"/>
      <point x="289" y="400"/>
      <point x="316" y="420"/>
      <point x="350" y="420" type="curve"/>
      <point x="384" y="420"/>
      <point x="397" y="399"/>
      <point x="397" y="366" type="curve"/>
      <point x="397" y="350"/>
      <point x="394" y="331"/>
      <point x="390" y="312" type="curve"/>
      <point x="328" y="0" type="line"/>
      <point x="468" y="0" type="line"/>
      <point x="522" y="270" type="line" smooth="yes"/>
      <point x="529" y="306"/>
      <point x="548" y="346"/>
      <point x="570" y="373" type="curve"/>
      <point x="592" y="400"/>
      <point x="621" y="420"/>
      <point x="652" y="420" type="curve"/>
      <point x="683" y="420"/>
      <point x="696" y="399"/>
      <point x="696" y="367" type="curve"/>
      <point x="696" y="350"/>
      <point x="692" y="331"/>
      <point x="688" y="312" type="curve"/>
      <point x="647" y="104" type="line" smooth="yes"/>
      <point x="646" y="99"/>
      <point x="644" y="88"/>
      <point x="644" y="76" type="curve"/>
      <point x="644" y="29"/>
      <point x="675" y="0"/>
      <point x="728" y="0" type="curve"/>
      <point x="819" y="0" type="line"/>
      <point x="841" y="112" type="line"/>
      <point x="788" y="112" type="line"/>
      <point x="828" y="313" type="line" smooth="yes"/>
      <point x="834" y="344"/>
      <point x="840" y="373"/>
      <point x="840" y="404" type="curve"/>
      <point x="840" y="486"/>
      <point x="798" y="537"/>
      <point x="721" y="537" type="curve"/>
      <point x="637" y="537"/>
      <point x="586" y="481"/>
      <point x="547" y="403" type="curve"/>
      <point x="542" y="403" type="line"/>
      <point x="541" y="487"/>
      <point x="498" y="537"/>
      <point x="420" y="537" type="curve"/>
      <point x="340" y="537"/>
      <point x="290" y="485"/>
      <point x="251" y="403" type="curve"/>
      <point x="245" y="403" type="line"/>
      <point x="269" y="525" type="line"/>
    </contour>
  </outline>
</glyph>
<glyph name="bar" format="1">
  <advance width="600"/>
  <unicode hex="007C"/>
  <outline>
    <contour>
      <point x="323" y="760" type="line"/>
      <point x="173" y="-138" type="line"/>
      <point x="297" y="-138" type="line"/>
      <point x="447" y="760" type="line"/>
    </contour>
  </outline>
</glyph>
<glyph name="asciitilde" format="1">
  <advance width="600"/>
  <unicode hex="007E"/>
  <outline>
    <contour>
      <point x="411" y="211" type="curve"/>
      <point x="478" y="211"/>
      <point x="524" y="239"/>
      <point x="555" y="273" type="curve"/>
      <point x="519" y="355" type="line"/>
      <point x="487" y="336"/>
      <point x="465" y="328"/>
      <point x="435" y="328" type="curve"/>
      <point x="393" y="328"/>
      <point x="362" y="344"/>
      <point x="328" y="362" type="curve"/>
      <point x="286" y="384"/>
      <point x="255" y="399"/>
      <point x="206" y="399" type="curve"/>
      <point x="139" y="399"/>
      <point x="93" y="371"/>
      <point x="62" y="337" type="curve"/>
      <point x="98" y="255" type="line"/>
      <point x="130" y="274"/>
      <point x="152" y="282"/>
      <point x="182" y="282" type="curve"/>
      <point x="224" y="282"/>
      <point x="255" y="266"/>
      <point x="289" y="248" type="curve"/>
      <point x="331" y="226"/>
      <point x="362" y="211"/>
    </contour>
  </outline>
</glyph>
<glyph name="uni00AD" format="1">
  <advance width="600"/>
  <unicode hex="00AD"/>
  <outline>
    <contour>
      <point x="162" y="375" type="line"/>
      <point x="139" y="235" type="line"/>
      <point x="456" y="235" type="line"/>
      <point x="479" y="375" type="line"/>
    </contour>
  </outline>
</glyph>
<glyph name="acute" format="1">
  <advance width="600"/>
  <unicode hex="00B4"/>
  <outline>
    <contour>
      <point x="237" y="616" type="line"/>
      <point x="323" y="570" type="line"/>
      <point x="466" y="746" type="line"/>
      <point x="352" y="806" type="line"/>
    </contour>
  </outline>
</glyph>
<glyph name="uni00B5" format="1">
  <advance width="600"/>
  <unicode hex="00B5"/>
  <outline>
    <contour>
      <point x="111" y="516" type="line"/>
      <point x="-9" y="-200" type="line"/>
      <point x="137" y="-200" type="line"/>
      <point x="153" y="-101" type="line"/>
      <point x="147" y="30" type="line"/>
      <point x="153" y="30" type="line"/>
      <point x="169" y="-3"/>
      <point x="193" y="-12"/>
      <point x="219" y="-12" type="curve"/>
      <point x="286" y="-12"/>
      <point x="331" y="38"/>
      <point x="360" y="116" type="curve"/>
      <point x="366" y="116" type="line"/>
      <point x="346" y="0" type="line"/>
      <point x="492" y="0" type="line"/>
      <point x="578" y="516" type="line"/>
      <point x="432" y="516" type="line"/>
      <point x="384" y="228" type="line" smooth="yes"/>
      <point x="379" y="195"/>
      <point x="365" y="166"/>
      <point x="347" y="144" type="curve"/>
      <point x="325" y="117"/>
      <point x="295" y="101"/>
      <point x="267" y="101" type="curve"/>
      <point x="225" y="101"/>
      <point x="203" y="126"/>
      <point x="203" y="175" type="curve"/>
      <point x="203" y="186"/>
      <point x="204" y="199"/>
      <point x="206" y="212" type="curve"/>
      <point x="257" y="516" type="line"/>
    </contour>
  </outline>
</glyph>
<glyph name="ordmasculine" format="1">
  <advance width="600"/>
  <unicode hex="00BA"/>
  <outline>
    <contour>
      <point x="320" y="333" type="curve"/>
      <point x="447" y="333"/>
      <point x="528" y="422"/>
      <point x="528" y="557" type="curve"/>
      <point x="528" y="651"/>
      <point x="472" y="710"/>
      <point x="370" y="710" type="curve"/>
      <point x="243" y="710"/>
      <point x="162" y="621"/>
      <point x="162" y="486" type="curve"/>
      <point x="162" y="392"/>
      <point x="218" y="333"/>
    </contour>
    <contour>
      <point x="330" y="409" type="curve"/>
      <point x="288" y="409"/>
      <point x="264" y="431"/>
      <point x="264" y="471" type="curve"/>
      <point x="264" y="478"/>
      <point x="265" y="486"/>
      <point x="266" y="492" type="curve"/>
      <point x="276" y="552" type="line" smooth="yes"/>
      <point x="284" y="600"/>
      <point x="316" y="634"/>
      <point x="360" y="634" type="curve"/>
      <point x="402" y="634"/>
      <point x="426" y="612"/>
      <point x="426" y="572" type="curve"/>
      <point x="426" y="565"/>
      <point x="425" y="557"/>
      <point x="424" y="551" type="curve"/>
      <point x="414" y="491" type="line" smooth="yes"/>
      <point x="406" y="443"/>
      <point x="374" y="409"/>
    </contour>
  </outline>
</glyph>
<glyph name="guillemotright" format="1">
  <advance width="600"/>
  <unicode hex="00BB"/>
  <outline>
    <contour>
      <point x="426" y="276" type="line"/>
      <point x="274" y="135" type="line"/>
      <point x="313" y="43" type="line"/>
      <point x="527" y="203" type="line"/>
      <point x="549" y="333" type="line"/>
      <point x="379" y="501" type="line"/>
      <point x="320" y="414" type="line"/>
    </contour>
    <contour>
      <point x="182" y="276" type="line"/>
      <point x="30" y="135" type="line"/>
      <point x="69" y="43" type="line"/>
      <point x="283" y="203" type="line"/>
      <point x="305" y="333" type="line"/>
      <point x="135" y="501" type="line"/>
      <point x="76" y="414" type="line"/>
    </contour>
  </outline>
</glyph>
<glyph name="onequarter" format="1">
  <advance width="600"/>
  <unicode hex="00BC"/>
  <outline>
    <contour>
      <point x="276" y="63" type="line"/>
      <point x="429" y="63" type="line"/>
      <point x="419" y="0" type="line"/>
      <point x="503" y="0" type="line"/>
      <point x="513" y="63" type="line"/>
      <point x="557" y="63" type="line"/>
      <point x="567" y="124" type="line"/>
      <point x="523" y="124" type="line"/>
      <point x="558" y="335" type="line"/>
      <point x="452" y="335" type="line"/>
      <point x="288" y="137" type="line"/>
    </contour>
    <contour>
      <point x="460" y="250" type="line"/>
      <point x="439" y="124" type="line"/>
      <point x="351" y="124" type="line"/>
      <point x="455" y="250" type="line"/>
    </contour>
    <contour>
      <point x="674" y="698" type="line"/>
      <point x="568" y="698" type="line"/>
      <point x="345" y="398" type="line"/>
      <point x="451" y="398" type="line"/>
    </contour>
    <contour>
      <point x="287" y="300" type="line"/>
      <point x="181" y="300" type="line"/>
      <point x="-42" y="0" type="line"/>
      <point x="64" y="0" type="line"/>
    </contour>
    <contour>
      <point x="150" y="432" type="line"/>
      <point x="64" y="432" type="line"/>
      <point x="53" y="363" type="line"/>
      <point x="302" y="363" type="line"/>
      <point x="313" y="432" type="line"/>
      <point x="238" y="432" type="line"/>
      <point x="282" y="698" type="line"/>
      <point x="188" y="698" type="line"/>
      <point x="77" y="645" type="line"/>
      <point x="99" y="585" type="line"/>
      <point x="182" y="624" type="line"/>
    </contour>
  </outline>
</glyph>
<glyph name="threequarters" format="1">
  <advance width="600"/>
  <unicode hex="00BE"/>
  <outline>
    <contour>
      <point x="276" y="63" type="line"/>
      <point x="429" y="63" type="line"/>
      <point x="419" y="0" type="line"/>
      <point x="503" y="0" type="line"/>
      <point x="513" y="63" type="line"/>
      <point x="557" y="63" type="line"/>
      <point x="567" y="124" type="line"/>
      <point x="523" y="124" type="line"/>
      <point x="558" y="335" type="line"/>
      <point x="452" y="335" type="line"/>
      <point x="288" y="137" type="line"/>
    </contour>
    <contour>
      <point x="460" y="250" type="line"/>
      <point x="439" y="124" type="line"/>
      <point x="351" y="124" type="line"/>
      <point x="455" y="250" type="line"/>
    </contour>
    <contour>
      <point x="674" y="698" type="line"/>
      <point x="568" y="698" type="line"/>
      <point x="345" y="398" type="line"/>
      <point x="451" y="398" type="line"/>
    </contour>
    <contour>
      <point x="287" y="300" type="line"/>
      <point x="181" y="300" type="line"/>
      <point x="-42" y="0" type="line"/>
      <point x="64" y="0" type="line"/>
    </contour>
    <contour>
      <point x="173" y="357" type="curve"/>
      <point x="264" y="357"/>
      <point x="323" y="402"/>
      <point x="323" y="464" type="curve"/>
      <point x="323" y="500"/>
      <point x="303" y="529"/>
      <point x="257" y="533" type="curve"/>
      <point x="258" y="537" type="line"/>
      <point x="308" y="544"/>
      <point x="343" y="576"/>
      <point x="343" y="619" type="curve"/>
      <point x="343" y="669"/>
      <point x="295" y="704"/>
      <point x="218" y="704" type="curve"/>
      <point x="159" y="704"/>
      <point x="120" y="683"/>
      <point x="82" y="647" type="curve"/>
      <point x="126" y="597" type="line"/>
      <point x="149" y="622"/>
      <point x="176" y="638"/>
      <point x="207" y="638" type="curve"/>
      <point x="233" y="638"/>
      <point x="249" y="627"/>
      <point x="249" y="611" type="curve"/>
      <point x="249" y="607"/>
      <point x="248" y="603"/>
      <point x="247" y="597" type="curve"/>
      <point x="244" y="579"/>
      <point x="228" y="566"/>
      <point x="190" y="566" type="curve"/>
      <point x="159" y="566" type="line"/>
      <point x="148" y="503" type="line"/>
      <point x="175" y="503" type="line" smooth="yes"/>
      <point x="207" y="503"/>
      <point x="229" y="491"/>
      <point x="229" y="471" type="curve"/>
      <point x="229" y="467"/>
      <point x="228" y="460"/>
      <point x="227" y="454" type="curve"/>
      <point x="224" y="436"/>
      <point x="209" y="423"/>
      <point x="174" y="423" type="curve"/>
      <point x="136" y="423"/>
      <point x="113" y="438"/>
      <point x="104" y="462" type="curve"/>
      <point x="42" y="426" type="line"/>
      <point x="63" y="385"/>
      <point x="101" y="357"/>
    </contour>
  </outline>
</glyph>
<glyph name="Acircumflex" format="1">
  <advance width="600"/>
  <unicode hex="00C2"/>
  <outline>
    <contour>
      <point x="579" y="797" type="line"/>
      <point x="471" y="955" type="line"/>
      <point x="347" y="955" type="line"/>
      <point x="193" y="797" type="line"/>
      <point x="263" y="740" type="line"/>
      <point x="397" y="855" type="line"/>
      <point x="503" y="740" type="line"/>
    </contour>
    <contour>
      <point x="383" y="169" type="line"/>
      <point x="400" y="0" type="line"/>
      <point x="552" y="0" type="line"/>
      <point x="476" y="698" type="line"/>
      <point x="270" y="698" type="line"/>
      <point x="-37" y="0" type="line"/>
      <point x="118" y="0" type="line"/>
      <point x="187" y="169" type="line"/>
    </contour>
    <contour>
      <point x="347" y="553" type="line"/>
      <point x="356" y="553" type="line"/>
      <point x="377" y="289" type="line"/>
      <point x="237" y="289" type="line"/>
    </contour>
  </outline>
</glyph>
<glyph name="Atilde" format="1">
  <advance width="600"/>
  <unicode hex="00C3"/>
  <outline>
    <contour>
      <point x="457" y="762" type="curve"/>
      <point x="510" y="762"/>
      <point x="552" y="790"/>
      <point x="581" y="826" type="curve"/>
      <point x="541" y="893" type="line"/>
      <point x="517" y="876"/>
      <point x="501" y="868"/>
      <point x="478" y="868" type="curve"/>
      <point x="452" y="868"/>
      <point x="430" y="878"/>
      <point x="403" y="890" type="curve"/>
      <point x="380" y="901"/>
      <point x="360" y="911"/>
      <point x="330" y="911" type="curve"/>
      <point x="277" y="911"/>
      <point x="235" y="883"/>
      <point x="206" y="847" type="curve"/>
      <point x="246" y="780" type="line"/>
      <point x="270" y="797"/>
      <point x="286" y="805"/>
      <point x="309" y="805" type="curve"/>
      <point x="335" y="805"/>
      <point x="357" y="795"/>
      <point x="384" y="783" type="curve"/>
      <point x="407" y="772"/>
      <point x="427" y="762"/>
    </contour>
    <contour>
      <point x="383" y="169" type="line"/>
      <point x="400" y="0" type="line"/>
      <point x="552" y="0" type="line"/>
      <point x="476" y="698" type="line"/>
      <point x="270" y="698" type="line"/>
      <point x="-37" y="0" type="line"/>
      <point x="118" y="0" type="line"/>
      <point x="187" y="169" type="line"/>
    </contour>
    <contour>
      <point x="347" y="553" type="line"/>
      <point x="356" y="553" type="line"/>
      <point x="377" y="289" type="line"/>
      <point x="237" y="289" type="line"/>
    </contour>
  </outline>
</glyph>
<glyph name="Eacute" format="1">
  <advance width="600"/>
  <unicode hex="00C9"/>
  <outline>
    <contour>
      <point x="308" y="786" type="line"/>
      <point x="394" y="740" type="line"/>
      <point x="537" y="916" type="line"/>
      <point x="423" y="976" type="line"/>
    </contour>
    <contour>
      <point x="155" y="698" type="line"/>
      <point x="38" y="0" type="line"/>
      <point x="484" y="0" type="line"/>
      <point x="504" y="122" type="line"/>
      <point x="205" y="122" type="line"/>
      <point x="233" y="292" type="line"/>
      <point x="520" y="292" type="line"/>
      <point x="540" y="414" type="line"/>
      <point x="254" y="414" type="line"/>
      <point x="281" y="576" type="line"/>
      <point x="581" y="576" type="line"/>
      <point x="601" y="698" type="line"/>
    </contour>
  </outline>
</glyph>
<glyph name="Ecircumflex" format="1">
  <advance width="600"/>
  <unicode hex="00CA"/>
  <outline>
    <contour>
      <point x="582" y="797" type="line"/>
      <point x="474" y="955" type="line"/>
      <point x="350" y="955" type="line"/>
      <point x="196" y="797" type="line"/>
      <point x="266" y="740" type="line"/>
      <point x="400" y="855" type="line"/>
      <point x="506" y="740" type="line"/>
    </contour>
    <contour>
      <point x="155" y="698" type="line"/>
      <point x="38" y="0" type="line"/>
      <point x="484" y="0" type="line"/>
      <point x="504" y="122" type="line"/>
      <point x="205" y="122" type="line"/>
      <point x="233" y="292" type="line"/>
      <point x="520" y="292" type="line"/>
      <point x="540" y="414" type="line"/>
      <point x="254" y="414" type="line"/>
      <point x="281" y="576" type="line"/>
      <point x="581" y="576" type="line"/>
      <point x="601" y="698" type="line"/>
    </contour>
  </outline>
</glyph>
<glyph name="Igrave" format="1">
  <advance width="600"/>
  <unicode hex="00CC"/>
  <outline>
    <contour>
      <point x="375" y="976" type="line"/>
      <point x="251" y="917" type="line"/>
      <point x="365" y="741" type="line"/>
      <point x="452" y="780" type="line"/>
    </contour>
    <contour>
      <point x="50" y="110" type="line"/>
      <point x="32" y="0" type="line"/>
      <point x="482" y="0" type="line"/>
      <point x="500" y="110" type="line"/>
      <point x="349" y="110" type="line"/>
      <point x="429" y="588" type="line"/>
      <point x="580" y="588" type="line"/>
      <point x="598" y="698" type="line"/>
      <point x="148" y="698" type="line"/>
      <point x="130" y="588" type="line"/>
      <point x="281" y="588" type="line"/>
      <point x="201" y="110" type="line"/>
    </contour>
  </outline>
</glyph>
<glyph name="Otilde" format="1">
  <advance width="600"/>
  <unicode hex="00D5"/>
  <outline>
    <contour>
      <point x="445" y="762" type="curve"/>
      <point x="498" y="762"/>
      <point x="540" y="790"/>
      <point x="569" y="826" type="curve"/>
      <point x="529" y="893" type="line"/>
      <point x="505" y="876"/>
      <point x="489" y="868"/>
      <point x="466" y="868" type="curve"/>
      <point x="440" y="868"/>
      <point x="418" y="878"/>
      <point x="391" y="890" type="curve"/>
      <point x="368" y="901"/>
      <point x="348" y="911"/>
      <point x="318" y="911" type="curve"/>
      <point x="265" y="911"/>
      <point x="223" y="883"/>
      <point x="194" y="847" type="curve"/>
      <point x="234" y="780" type="line"/>
      <point x="258" y="797"/>
      <point x="274" y="805"/>
      <point x="297" y="805" type="curve"/>
      <point x="323" y="805"/>
      <point x="345" y="795"/>
      <point x="372" y="783" type="curve"/>
      <point x="395" y="772"/>
      <point x="415" y="762"/>
    </contour>
    <contour>
      <point x="279" y="-12" type="curve"/>
      <point x="501" y="-12"/>
      <point x="592" y="210"/>
      <point x="592" y="447" type="curve"/>
      <point x="592" y="610"/>
      <point x="518" y="710"/>
      <point x="349" y="710" type="curve"/>
      <point x="127" y="710"/>
      <point x="36" y="488"/>
      <point x="36" y="251" type="curve"/>
      <point x="36" y="88"/>
      <point x="110" y="-12"/>
    </contour>
    <contour>
      <point x="279" y="108" type="curve"/>
      <point x="216" y="108"/>
      <point x="187" y="149"/>
      <point x="187" y="218" type="curve"/>
      <point x="187" y="243"/>
      <point x="189" y="266"/>
      <point x="193" y="290" type="curve"/>
      <point x="213" y="410" type="line" smooth="yes"/>
      <point x="232" y="524"/>
      <point x="265" y="590"/>
      <point x="349" y="590" type="curve"/>
      <point x="412" y="590"/>
      <point x="441" y="549"/>
      <point x="441" y="480" type="curve"/>
      <point x="441" y="455"/>
      <point x="439" y="432"/>
      <point x="435" y="408" type="curve"/>
      <point x="415" y="288" type="line" smooth="yes"/>
      <point x="396" y="174"/>
      <point x="363" y="108"/>
    </contour>
  </outline>
</glyph>
<glyph name="Ugrave" format="1">
  <advance width="600"/>
  <unicode hex="00D9"/>
  <outline>
    <contour>
      <point x="372" y="976" type="line"/>
      <point x="248" y="917" type="line"/>
      <point x="362" y="741" type="line"/>
      <point x="449" y="780" type="line"/>
    </contour>
    <contour>
      <point x="202" y="260" type="curve"/>
      <point x="275" y="698" type="line"/>
      <point x="128" y="698" type="line"/>
      <point x="60" y="291" type="line" smooth="yes"/>
      <point x="53" y="249"/>
      <point x="49" y="210"/>
      <point x="49" y="176" type="curve"/>
      <point x="49" y="62"/>
      <point x="103" y="-12"/>
      <point x="269" y="-12" type="curve"/>
      <point x="470" y="-12"/>
      <point x="516" y="86"/>
      <point x="547" y="272" type="curve"/>
      <point x="618" y="698" type="line"/>
      <point x="471" y="698" type="line"/>
      <point x="397" y="255" type="line" smooth="yes"/>
      <point x="382" y="165"/>
      <point x="366" y="108"/>
      <point x="277" y="108" type="curve"/>
      <point x="216" y="108"/>
      <point x="194" y="136"/>
      <point x="194" y="186" type="curve"/>
      <point x="194" y="200"/>
      <point x="196" y="224"/>
    </contour>
  </outline>
</glyph>
<glyph name="Uacute" format="1">
  <advance width="600"/>
  <unicode hex="00DA"/>
  <outline>
    <contour>
      <point x="306" y="786" type="line"/>
      <point x="392" y="740" type="line"/>
      <point x="535" y="916" type="line"/>
      <point x="421" y="976" type="line"/>
    </contour>
    <contour>
      <point x="202" y="260" type="curve"/>
      <point x="275" y="698" type="line"/>
      <point x="128" y="698" type="line"/>
      <point x="60" y="291" type="line" smooth="yes"/>
      <point x="53" y="249"/>
      <point x="49" y="210"/>
      <point x="49" y="176" type="curve"/>
      <point x="49" y="62"/>
      <point x="103" y="-12"/>
      <point x="269" y="-12" type="curve"/>
      <point x="470" y="-12"/>
      <point x="516" y="86"/>
      <point x="547" y="272" type="curve"/>
      <point x="618" y="698" type="line"/>
      <point x="471" y="698" type="line"/>
      <point x="397" y="255" type="line" smooth="yes"/>
      <point x="382" y="165"/>
      <point x="366" y="108"/>
      <point x="277" y="108" type="curve"/>
      <point x="216" y="108"/>
      <point x="194" y="136"/>
      <point x="194" y="186" type="curve"/>
      <point x="194" y="200"/>
      <point x="196" y="224"/>
    </contour>
  </outline>
</glyph>
<glyph name="atilde" format="1">
  <advance width="600"/>
  <unicode hex="00E3"/>
  <outline>
    <contour>
      <point x="421" y="592" type="curve"/>
      <point x="474" y="592"/>
      <point x="516" y="620"/>
      <point x="545" y="656" type="curve"/>
      <point x="505" y="723" type="line"/>
      <point x="481" y="706"/>
      <point x="465" y="698"/>
      <point x="442" y="698" type="curve"/>
      <point x="416" y="698"/>
      <point x="394" y="708"/>
      <point x="367" y="720" type="curve"/>
      <point x="344" y="731"/>
      <point x="324" y="741"/>
      <point x="294" y="741" type="curve"/>
      <point x="241" y="741"/>
      <point x="199" y="713"/>
      <point x="170" y="677" type="curve"/>
      <point x="210" y="610" type="line"/>
      <point x="234" y="627"/>
      <point x="250" y="635"/>
      <point x="273" y="635" type="curve"/>
      <point x="299" y="635"/>
      <point x="321" y="625"/>
      <point x="348" y="613" type="curve"/>
      <point x="371" y="602"/>
      <point x="391" y="592"/>
    </contour>
    <contour>
      <point x="367" y="123" type="line"/>
      <point x="347" y="0" type="line"/>
      <point x="493" y="0" type="line"/>
      <point x="579" y="516" type="line"/>
      <point x="433" y="516" type="line"/>
      <point x="417" y="420" type="line"/>
      <point x="410" y="420" type="line"/>
      <point x="395" y="488"/>
      <point x="356" y="528"/>
      <point x="275" y="528" type="curve"/>
      <point x="132" y="528"/>
      <point x="38" y="393"/>
      <point x="38" y="188" type="curve"/>
      <point x="38" y="67"/>
      <point x="80" y="-12"/>
      <point x="189" y="-12" type="curve"/>
      <point x="277" y="-12"/>
      <point x="323" y="44"/>
      <point x="362" y="123" type="curve"/>
    </contour>
    <contour>
      <point x="254" y="101" type="curve"/>
      <point x="204" y="101"/>
      <point x="187" y="139"/>
      <point x="186" y="188" type="curve"/>
      <point x="186" y="205"/>
      <point x="188" y="221"/>
      <point x="190" y="233" type="curve"/>
      <point x="200" y="293" type="line" smooth="yes"/>
      <point x="213" y="371"/>
      <point x="250" y="415"/>
      <point x="322" y="415" type="curve"/>
      <point x="385" y="415"/>
      <point x="411" y="384"/>
      <point x="402" y="330" type="curve"/>
      <point x="388" y="247" type="line" smooth="yes"/>
      <point x="381" y="204"/>
      <point x="357" y="169"/>
      <point x="341" y="150" type="curve"/>
      <point x="317" y="120"/>
      <point x="290" y="101"/>
    </contour>
  </outline>
</glyph>
<glyph name="ecircumflex" format="1">
  <advance width="600"/>
  <unicode hex="00EA"/>
  <outline>
    <contour>
      <point x="554" y="627" type="line"/>
      <point x="446" y="785" type="line"/>
      <point x="322" y="785" type="line"/>
      <point x="168" y="627" type="line"/>
      <point x="238" y="570" type="line"/>
      <point x="372" y="685" type="line"/>
      <point x="478" y="570" type="line"/>
    </contour>
    <contour>
      <point x="281" y="-12" type="curve"/>
      <point x="413" y="-12"/>
      <point x="479" y="52"/>
      <point x="533" y="129" type="curve"/>
      <point x="442" y="188" type="line"/>
      <point x="389" y="120"/>
      <point x="357" y="100"/>
      <point x="300" y="100" type="curve"/>
      <point x="230" y="100"/>
      <point x="201" y="131"/>
      <point x="201" y="186" type="curve"/>
      <point x="201" y="191"/>
      <point x="201" y="195"/>
      <point x="202" y="203" type="curve"/>
      <point x="496" y="214"/>
      <point x="550" y="303"/>
      <point x="550" y="386" type="curve"/>
      <point x="550" y="481"/>
      <point x="464" y="528"/>
      <point x="360" y="528" type="curve"/>
      <point x="177" y="528"/>
      <point x="56" y="400"/>
      <point x="56" y="208" type="curve"/>
      <point x="56" y="71"/>
      <point x="129" y="-12"/>
    </contour>
    <contour>
      <point x="345" y="425" type="curve"/>
      <point x="389" y="425"/>
      <point x="409" y="406"/>
      <point x="409" y="373" type="curve"/>
      <point x="409" y="340"/>
      <point x="397" y="297"/>
      <point x="212" y="287" type="curve"/>
      <point x="215" y="301" type="line" smooth="yes"/>
      <point x="234" y="390"/>
      <point x="282" y="425"/>
    </contour>
  </outline>
</glyph>
<glyph name="iacute" format="1">
  <advance width="600"/>
  <unicode hex="00ED"/>
  <outline>
    <contour>
      <point x="255" y="616" type="line"/>
      <point x="341" y="570" type="line"/>
      <point x="484" y="746" type="line"/>
      <point x="370" y="806" type="line"/>
    </contour>
    <contour>
      <point x="298" y="-12" type="curve"/>
      <point x="367" y="-12"/>
      <point x="423" y="27"/>
      <point x="490" y="103" type="curve"/>
      <point x="551" y="173" type="line"/>
      <point x="471" y="244" type="line"/>
      <point x="331" y="101" type="line"/>
      <point x="314" y="106" type="line"/>
      <point x="391" y="516" type="line"/>
      <point x="87" y="516" type="line"/>
      <point x="68" y="402" type="line"/>
      <point x="224" y="402" type="line"/>
      <point x="184" y="188" type="line" smooth="yes"/>
      <point x="176" y="147"/>
      <point x="174" y="130"/>
      <point x="174" y="108" type="curve"/>
      <point x="174" y="35"/>
      <point x="216" y="-12"/>
    </contour>
  </outline>
</glyph>
<glyph name="icircumflex" format="1">
  <advance width="600"/>
  <unicode hex="00EE"/>
  <outline>
    <contour>
      <point x="529" y="627" type="line"/>
      <point x="421" y="785" type="line"/>
      <point x="297" y="785" type="line"/>
      <point x="143" y="627" type="line"/>
      <point x="213" y="570" type="line"/>
      <point x="347" y="685" type="line"/>
      <point x="453" y="570" type="line"/>
    </contour>
    <contour>
      <point x="298" y="-12" type="curve"/>
      <point x="367" y="-12"/>
      <point x="423" y="27"/>
      <point x="490" y="103" type="curve"/>
      <point x="551" y="173" type="line"/>
      <point x="471" y="244" type="line"/>
      <point x="331" y="101" type="line"/>
      <point x="314" y="106" type="line"/>
      <point x="391" y="516" type="line"/>
      <point x="87" y="516" type="line"/>
      <point x="68" y="402" type="line"/>
      <point x="224" y="402" type="line"/>
      <point x="184" y="188" type="line" smooth="yes"/>
      <point x="176" y="147"/>
      <point x="174" y="130"/>
      <point x="174" y="108" type="curve"/>
      <point x="174" y="35"/>
      <point x="216" y="-12"/>
    </contour>
  </outline>
</glyph>
<glyph name="abreve" format="1">
  <advance width="600"/>
  <unicode hex="0103"/>
  <outline>
    <contour>
      <point x="355" y="570" type="curve"/>
      <point x="464" y="570"/>
      <point x="521" y="655"/>
      <point x="564" y="740" type="curve"/>
      <point x="481" y="782" type="line"/>
      <point x="455" y="747" type="line" smooth="yes"/>
      <point x="419" y="698"/>
      <point x="397" y="673"/>
      <point x="361" y="673" type="curve"/>
      <point x="319" y="673"/>
      <point x="301" y="700"/>
      <point x="277" y="745" type="curve"/>
      <point x="257" y="782" type="line"/>
      <point x="176" y="740" type="line"/>
      <point x="197" y="658"/>
      <point x="242" y="570"/>
    </contour>
    <contour>
      <point x="367" y="123" type="line"/>
      <point x="347" y="0" type="line"/>
      <point x="493" y="0" type="line"/>
      <point x="579" y="516" type="line"/>
      <point x="433" y="516" type="line"/>
      <point x="417" y="420" type="line"/>
      <point x="410" y="420" type="line"/>
      <point x="395" y="488"/>
      <point x="356" y="528"/>
      <point x="275" y="528" type="curve"/>
      <point x="132" y="528"/>
      <point x="38" y="393"/>
      <point x="38" y="188" type="curve"/>
      <point x="38" y="67"/>
      <point x="80" y="-12"/>
      <point x="189" y="-12" type="curve"/>
      <point x="277" y="-12"/>
      <point x="323" y="44"/>
      <point x="362" y="123" type="curve"/>
    </contour>
    <contour>
      <point x="254" y="101" type="curve"/>
      <point x="204" y="101"/>
      <point x="187" y="139"/>
      <point x="186" y="188" type="curve"/>
      <point x="186" y="205"/>
      <point x="188" y="221"/>
      <point x="190" y="233" type="curve"/>
      <point x="200" y="293" type="line" smooth="yes"/>
      <point x="213" y="371"/>
      <point x="250" y="415"/>
      <point x="322" y="415" type="curve"/>
      <point x="385" y="415"/>
      <point x="411" y="384"/>
      <point x="402" y="330" type="curve"/>
      <point x="388" y="247" type="line" smooth="yes"/>
      <point x="381" y="204"/>
      <point x="357" y="169"/>
      <point x="341" y="150" type="curve"/>
      <point x="317" y="120"/>
      <point x="290" y="101"/>
    </contour>
  </outline>
</glyph>
<glyph name="Aogonek" format="1">
  <advance width="600"/>
  <unicode hex="0104"/>
  <outline>
    <contour>
      <point x="476" y="698" type="line"/>
      <point x="270" y="698" type="line"/>
      <point x="-37" y="0" type="line"/>
      <point x="118" y="0" type="line"/>
      <point x="187" y="169" type="line"/>
      <point x="383" y="169" type="line"/>
      <point x="400" y="0" type="line"/>
      <point x="476" y="0" type="line"/>
      <point x="477" y="-4" type="line"/>
      <point x="378" y="-30"/>
      <point x="337" y="-78"/>
      <point x="337" y="-127" type="curve"/>
      <point x="337" y="-182"/>
      <point x="388" y="-212"/>
      <point x="459" y="-212" type="curve"/>
      <point x="516" y="-212"/>
      <point x="555" y="-190"/>
      <point x="580" y="-158" type="curve"/>
      <point x="526" y="-113" type="line"/>
      <point x="512" y="-134"/>
      <point x="493" y="-140"/>
      <point x="473" y="-140" type="curve"/>
      <point x="447" y="-140"/>
      <point x="436" y="-127"/>
      <point x="436" y="-110" type="curve"/>
      <point x="436" y="-90"/>
      <point x="447" y="-63"/>
      <point x="552" y="0" type="curve"/>
    </contour>
    <contour>
      <point x="347" y="553" type="line"/>
      <point x="356" y="553" type="line"/>
      <point x="377" y="289" type="line"/>
      <point x="237" y="289" type="line"/>
    </contour>
  </outline>
</glyph>
<glyph name="Cacute" format="1">
  <advance width="600"/>
  <unicode hex="0106"/>
  <outline>
    <contour>
      <point x="308" y="786" type="line"/>
      <point x="394" y="740" type="line"/>
      <point x="537" y="916" type="line"/>
      <point x="423" y="976" type="line"/>
    </contour>
    <contour>
      <point x="290" y="-12" type="curve"/>
      <point x="425" y="-12"/>
      <point x="504" y="58"/>
      <point x="559" y="189" type="curve"/>
      <point x="432" y="227" type="line"/>
      <point x="405" y="161"/>
      <point x="364" y="108"/>
      <point x="300" y="108" type="curve"/>
      <point x="227" y="108"/>
      <point x="199" y="151"/>
      <point x="199" y="221" type="curve"/>
      <point x="199" y="253"/>
      <point x="203" y="275"/>
      <point x="207" y="299" type="curve"/>
      <point x="225" y="408" type="line" smooth="yes"/>
      <point x="244" y="520"/>
      <point x="285" y="590"/>
      <point x="367" y="590" type="curve"/>
      <point x="439" y="590"/>
      <point x="457" y="542"/>
      <point x="461" y="476" type="curve"/>
      <point x="604" y="505" type="line"/>
      <point x="597" y="626"/>
      <point x="528" y="710"/>
      <point x="373" y="710" type="curve"/>
      <point x="176" y="710"/>
      <point x="50" y="525"/>
      <point x="50" y="254" type="curve"/>
      <point x="50" y="87"/>
      <point x="126" y="-12"/>
    </contour>
  </outline>
</glyph>
<glyph name="Cdotaccent" format="1">
  <advance width="600"/>
  <unicode hex="010A"/>
  <outline>
    <contour>
      <point x="388" y="754" type="curve"/>
      <point x="448" y="754"/>
      <point x="475" y="778"/>
      <point x="482" y="820" type="curve"/>
      <point x="486" y="844"/>
      <point x="487" y="853"/>
      <point x="487" y="860" type="curve"/>
      <point x="487" y="895"/>
      <point x="465" y="921"/>
      <point x="405" y="921" type="curve"/>
      <point x="345" y="921"/>
      <point x="318" y="897"/>
      <point x="311" y="855" type="curve"/>
      <point x="307" y="831"/>
      <point x="306" y="822"/>
      <point x="306" y="815" type="curve"/>
      <point x="306" y="780"/>
      <point x="328" y="754"/>
    </contour>
    <contour>
      <point x="290" y="-12" type="curve"/>
      <point x="425" y="-12"/>
      <point x="504" y="58"/>
      <point x="559" y="189" type="curve"/>
      <point x="432" y="227" type="line"/>
      <point x="405" y="161"/>
      <point x="364" y="108"/>
      <point x="300" y="108" type="curve"/>
      <point x="227" y="108"/>
      <point x="199" y="151"/>
      <point x="199" y="221" type="curve"/>
      <point x="199" y="253"/>
      <point x="203" y="275"/>
      <point x="207" y="299" type="curve"/>
      <point x="225" y="408" type="line" smooth="yes"/>
      <point x="244" y="520"/>
      <point x="285" y="590"/>
      <point x="367" y="590" type="curve"/>
      <point x="439" y="590"/>
      <point x="457" y="542"/>
      <point x="461" y="476" type="curve"/>
      <point x="604" y="505" type="line"/>
      <point x="597" y="626"/>
      <point x="528" y="710"/>
      <point x="373" y="710" type="curve"/>
      <point x="176" y="710"/>
      <point x="50" y="525"/>
      <point x="50" y="254" type="curve"/>
      <point x="50" y="87"/>
      <point x="126" y="-12"/>
    </contour>
  </outline>
</glyph>
<glyph name="Ecaron" format="1">
  <advance width="600"/>
  <unicode hex="011A"/>
  <outline>
    <contour>
      <point x="216" y="907" type="line"/>
      <point x="324" y="749" type="line"/>
      <point x="448" y="749" type="line"/>
      <point x="602" y="907" type="line"/>
      <point x="532" y="964" type="line"/>
      <point x="398" y="849" type="line"/>
      <point x="292" y="964" type="line"/>
    </contour>
    <contour>
      <point x="155" y="698" type="line"/>
      <point x="38" y="0" type="line"/>
      <point x="484" y="0" type="line"/>
      <point x="504" y="122" type="line"/>
      <point x="205" y="122" type="line"/>
      <point x="233" y="292" type="line"/>
      <point x="520" y="292" type="line"/>
      <point x="540" y="414" type="line"/>
      <point x="254" y="414" type="line"/>
      <point x="281" y="576" type="line"/>
      <point x="581" y="576" type="line"/>
      <point x="601" y="698" type="line"/>
    </contour>
  </outline>
</glyph>
<glyph name="Gbreve" format="1">
  <advance width="600"/>
  <unicode hex="011E"/>
  <outline>
    <contour>
      <point x="387" y="740" type="curve"/>
      <point x="496" y="740"/>
      <point x="553" y="825"/>
      <point x="596" y="910" type="curve"/>
      <point x="513" y="952" type="line"/>
      <point x="487" y="917" type="line" smooth="yes"/>
      <point x="451" y="868"/>
      <point x="429" y="843"/>
      <point x="393" y="843" type="curve"/>
      <point x="351" y="843"/>
      <point x="333" y="870"/>
      <point x="309" y="915" type="curve"/>
      <point x="289" y="952" type="line"/>
      <point x="208" y="910" type="line"/>
      <point x="229" y="828"/>
      <point x="274" y="740"/>
    </contour>
    <contour>
      <point x="381" y="101" type="curve"/>
      <point x="390" y="101" type="line"/>
      <point x="373" y="0" type="line"/>
      <point x="504" y="0" type="line"/>
      <point x="566" y="372" type="line"/>
      <point x="312" y="372" type="line"/>
      <point x="295" y="267" type="line"/>
      <point x="418" y="267" type="line"/>
      <point x="410" y="219" type="line" smooth="yes"/>
      <point x="400" y="159"/>
      <point x="359" y="108"/>
      <point x="289" y="108" type="curve"/>
      <point x="225" y="108"/>
      <point x="196" y="154"/>
      <point x="196" y="224" type="curve"/>
      <point x="196" y="251"/>
      <point x="200" y="287"/>
      <point x="204" y="311" type="curve"/>
      <point x="221" y="413" type="line" smooth="yes"/>
      <point x="239" y="521"/>
      <point x="279" y="590"/>
      <point x="355" y="590" type="curve"/>
      <point x="424" y="590"/>
      <point x="441" y="536"/>
      <point x="446" y="476" type="curve"/>
      <point x="589" y="504" type="line"/>
      <point x="580" y="625"/>
      <point x="513" y="710"/>
      <point x="368" y="710" type="curve"/>
      <point x="154" y="710"/>
      <point x="45" y="510"/>
      <point x="45" y="245" type="curve"/>
      <point x="45" y="77"/>
      <point x="116" y="-12"/>
      <point x="230" y="-12" type="curve"/>
      <point x="311" y="-12"/>
      <point x="346" y="39"/>
    </contour>
  </outline>
</glyph>
<glyph name="Hcircumflex" format="1">
  <advance width="600"/>
  <unicode hex="0124"/>
  <outline>
    <contour>
      <point x="583" y="797" type="line"/>
      <point x="475" y="955" type="line"/>
      <point x="351" y="955" type="line"/>
      <point x="197" y="797" type="line"/>
      <point x="267" y="740" type="line"/>
      <point x="401" y="855" type="line"/>
      <point x="507" y="740" type="line"/>
    </contour>
    <contour>
      <point x="217" y="293" type="line"/>
      <point x="397" y="293" type="line"/>
      <point x="348" y="0" type="line"/>
      <point x="496" y="0" type="line"/>
      <point x="612" y="698" type="line"/>
      <point x="464" y="698" type="line"/>
      <point x="417" y="414" type="line"/>
      <point x="237" y="414" type="line"/>
      <point x="284" y="698" type="line"/>
      <point x="136" y="698" type="line"/>
      <point x="20" y="0" type="line"/>
      <point x="168" y="0" type="line"/>
    </contour>
  </outline>
</glyph>
<glyph name="itilde" format="1">
  <advance width="600"/>
  <unicode hex="0129"/>
  <outline>
    <contour>
      <point x="407" y="592" type="curve"/>
      <point x="460" y="592"/>
      <point x="502" y="620"/>
      <point x="531" y="656" type="curve"/>
      <point x="491" y="723" type="line"/>
      <point x="467" y="706"/>
      <point x="451" y="698"/>
      <point x="428" y="698" type="curve"/>
      <point x="402" y="698"/>
      <point x="380" y="708"/>
      <point x="353" y="720" type="curve"/>
      <point x="330" y="731"/>
      <point x="310" y="741"/>
      <point x="280" y="741" type="curve"/>
      <point x="227" y="741"/>
      <point x="185" y="713"/>
      <point x="156" y="677" type="curve"/>
      <point x="196" y="610" type="line"/>
      <point x="220" y="627"/>
      <point x="236" y="635"/>
      <point x="259" y="635" type="curve"/>
      <point x="285" y="635"/>
      <point x="307" y="625"/>
      <point x="334" y="613" type="curve"/>
      <point x="357" y="602"/>
      <point x="377" y="592"/>
    </contour>
    <contour>
      <point x="298" y="-12" type="curve"/>
      <point x="367" y="-12"/>
      <point x="423" y="27"/>
      <point x="490" y="103" type="curve"/>
      <point x="551" y="173" type="line"/>
      <point x="471" y="244" type="line"/>
      <point x="331" y="101" type="line"/>
      <point x="314" y="106" type="line"/>
      <point x="391" y="516" type="line"/>
      <point x="87" y="516" type="line"/>
      <point x="68" y="402" type="line"/>
      <point x="224" y="402" type="line"/>
      <point x="184" y="188" type="line" smooth="yes"/>
      <point x="176" y="147"/>
      <point x="174" y="130"/>
      <point x="174" y="108" type="curve"/>
      <point x="174" y="35"/>
      <point x="216" y="-12"/>
    </contour>
  </outline>
</glyph>
<glyph name="Imacron" format="1">
  <advance width="600"/>
  <unicode hex="012A"/>
  <outline>
    <contour>
      <point x="558" y="888" type="line"/>
      <point x="253" y="888" type="line"/>
      <point x="236" y="786" type="line"/>
      <point x="541" y="786" type="line"/>
    </contour>
    <contour>
      <point x="50" y="110" type="line"/>
      <point x="32" y="0" type="line"/>
      <point x="482" y="0" type="line"/>
      <point x="500" y="110" type="line"/>
      <point x="349" y="110" type="line"/>
      <point x="429" y="588" type="line"/>
      <point x="580" y="588" type="line"/>
      <point x="598" y="698" type="line"/>
      <point x="148" y="698" type="line"/>
      <point x="130" y="588" type="line"/>
      <point x="281" y="588" type="line"/>
      <point x="201" y="110" type="line"/>
    </contour>
  </outline>
</glyph>
<glyph name="ibreve" format="1">
  <advance width="600"/>
  <unicode hex="012D"/>
  <outline>
    <contour>
      <point x="341" y="570" type="curve"/>
      <point x="450" y="570"/>
      <point x="507" y="655"/>
      <point x="550" y="740" type="curve"/>
      <point x="467" y="782" type="line"/>
      <point x="441" y="747" type="line" smooth="yes"/>
      <point x="405" y="698"/>
      <point x="383" y="673"/>
      <point x="347" y="673" type="curve"/>
      <point x="305" y="673"/>
      <point x="287" y="700"/>
      <point x="263" y="745" type="curve"/>
      <point x="243" y="782" type="line"/>
      <point x="162" y="740" type="line"/>
      <point x="183" y="658"/>
      <point x="228" y="570"/>
    </contour>
    <contour>
      <point x="298" y="-12" type="curve"/>
      <point x="367" y="-12"/>
      <point x="423" y="27"/>
      <point x="490" y="103" type="curve"/>
      <point x="551" y="173" type="line"/>
      <point x="471" y="244" type="line"/>
      <point x="331" y="101" type="line"/>
      <point x="314" y="106" type="line"/>
      <point x="391" y="516" type="line"/>
      <point x="87" y="516" type="line"/>
      <point x="68" y="402" type="line"/>
      <point x="224" y="402" type="line"/>
      <point x="184" y="188" type="line" smooth="yes"/>
      <point x="176" y="147"/>
      <point x="174" y="130"/>
      <point x="174" y="108" type="curve"/>
      <point x="174" y="35"/>
      <point x="216" y="-12"/>
    </contour>
  </outline>
</glyph>
<glyph name="Idotaccent" format="1">
  <advance width="600"/>
  <unicode hex="0130"/>
  <outline>
    <contour>
      <point x="389" y="754" type="curve"/>
      <point x="449" y="754"/>
      <point x="476" y="778"/>
      <point x="483" y="820" type="curve"/>
      <point x="487" y="844"/>
      <point x="488" y="853"/>
      <point x="488" y="860" type="curve"/>
      <point x="488" y="895"/>
      <point x="466" y="921"/>
      <point x="406" y="921" type="curve"/>
      <point x="346" y="921"/>
      <point x="319" y="897"/>
      <point x="312" y="855" type="curve"/>
      <point x="308" y="831"/>
      <point x="307" y="822"/>
      <point x="307" y="815" type="curve"/>
      <point x="307" y="780"/>
      <point x="329" y="754"/>
    </contour>
    <contour>
      <point x="50" y="110" type="line"/>
      <point x="32" y="0" type="line"/>
      <point x="482" y="0" type="line"/>
      <point x="500" y="110" type="line"/>
      <point x="349" y="110" type="line"/>
      <point x="429" y="588" type="line"/>
      <point x="580" y="588" type="line"/>
      <point x="598" y="698" type="line"/>
      <point x="148" y="698" type="line"/>
      <point x="130" y="588" type="line"/>
      <point x="281" y="588" type="line"/>
      <point x="201" y="110" type="line"/>
    </contour>
  </outline>
</glyph>
<glyph name="Lacute" format="1">
  <advance width="600"/>
  <unicode hex="0139"/>
  <outline>
    <contour>
      <point x="172" y="786" type="line"/>
      <point x="258" y="740" type="line"/>
      <point x="401" y="916" type="line"/>
      <point x="287" y="976" type="line"/>
    </contour>
    <contour>
      <point x="167" y="698" type="line"/>
      <point x="51" y="0" type="line"/>
      <point x="501" y="0" type="line"/>
      <point x="521" y="122" type="line"/>
      <point x="219" y="122" type="line"/>
      <point x="315" y="698" type="line"/>
    </contour>
  </outline>
</glyph>
<glyph name="lacute" format="1">
  <advance width="600"/>
  <unicode hex="013A"/>
  <outline>
    <contour>
      <point x="263" y="798" type="line"/>
      <point x="349" y="752" type="line"/>
      <point x="492" y="928" type="line"/>
      <point x="378" y="988" type="line"/>
    </contour>
    <contour>
      <point x="270" y="-12" type="curve"/>
      <point x="339" y="-12"/>
      <point x="395" y="27"/>
      <point x="462" y="103" type="curve"/>
      <point x="523" y="173" type="line"/>
      <point x="443" y="244" type="line"/>
      <point x="303" y="101" type="line"/>
      <point x="288" y="106" type="line"/>
      <point x="405" y="740" type="line"/>
      <point x="106" y="740" type="line"/>
      <point x="87" y="626" type="line"/>
      <point x="239" y="626" type="line"/>
      <point x="158" y="188" type="line" smooth="yes"/>
      <point x="150" y="147"/>
      <point x="148" y="130"/>
      <point x="148" y="108" type="curve"/>
      <point x="148" y="35"/>
      <point x="188" y="-12"/>
    </contour>
  </outline>
</glyph>
<glyph name="uni013B" format="1">
  <advance width="600"/>
  <unicode hex="013B"/>
  <outline>
    <contour>
      <point x="347" y="-54" type="line"/>
      <point x="191" y="-54" type="line"/>
      <point x="138" y="-269" type="line"/>
      <point x="226" y="-269" type="line"/>
    </contour>
    <contour>
      <point x="167" y="698" type="line"/>
      <point x="51" y="0" type="line"/>
      <point x="501" y="0" type="line"/>
      <point x="521" y="122" type="line"/>
      <point x="219" y="122" type="line"/>
      <point x="315" y="698" type="line"/>
    </contour>
  </outline>
</glyph>
<glyph name="Ncaron" format="1">
  <advance width="600"/>
  <unicode hex="0147"/>
  <outline>
    <contour>
      <point x="217" y="907" type="line"/>
      <point x="325" y="749" type="line"/>
      <point x="449" y="749" type="line"/>
      <point x="603" y="907" type="line"/>
      <point x="533" y="964" type="line"/>
      <point x="399" y="849" type="line"/>
      <point x="293" y="964" type="line"/>
    </contour>
    <contour>
      <point x="227" y="468" type="line"/>
      <point x="237" y="468" type="line"/>
      <point x="318" y="0" type="line"/>
      <point x="496" y="0" type="line"/>
      <point x="612" y="698" type="line"/>
      <point x="483" y="698" type="line"/>
      <point x="405" y="230" type="line"/>
      <point x="395" y="230" type="line"/>
      <point x="314" y="698" type="line"/>
      <point x="136" y="698" type="line"/>
      <point x="20" y="0" type="line"/>
      <point x="149" y="0" type="line"/>
    </contour>
  </outline>
</glyph>
<glyph name="uni0157" format="1">
  <advance width="600"/>
  <unicode hex="0157"/>
  <outline>
    <contour>
      <point x="287" y="-54" type="line"/>
      <point x="131" y="-54" type="line"/>
      <point x="78" y="-269" type="line"/>
      <point x="166" y="-269" type="line"/>
    </contour>
    <contour>
      <point x="213" y="402" type="line"/>
      <point x="146" y="0" type="line"/>
      <point x="292" y="0" type="line"/>
      <point x="331" y="236" type="line" smooth="yes"/>
      <point x="337" y="272"/>
      <point x="359" y="309"/>
      <point x="372" y="325" type="curve"/>
      <point x="396" y="355"/>
      <point x="426" y="370"/>
      <point x="480" y="370" type="curve"/>
      <point x="571" y="370" type="line"/>
      <point x="597" y="516" type="line"/>
      <point x="563" y="516" type="line" smooth="yes"/>
      <point x="462" y="516"/>
      <point x="400" y="458"/>
      <point x="357" y="360" type="curve"/>
      <point x="351" y="360" type="line"/>
      <point x="378" y="516" type="line"/>
      <point x="114" y="516" type="line"/>
      <point x="95" y="402" type="line"/>
    </contour>
  </outline>
</glyph>
<glyph name="uni0162" format="1">
  <advance width="600"/>
  <unicode hex="0162"/>
  <outline>
    <contour>
      <point x="328" y="-54" type="line"/>
      <point x="172" y="-54" type="line"/>
      <point x="119" y="-269" type="line"/>
      <point x="207" y="-269" type="line"/>
    </contour>
    <contour>
      <point x="331" y="0" type="line"/>
      <point x="427" y="576" type="line"/>
      <point x="629" y="576" type="line"/>
      <point x="649" y="698" type="line"/>
      <point x="97" y="698" type="line"/>
      <point x="77" y="576" type="line"/>
      <point x="279" y="576" type="line"/>
      <point x="183" y="0" type="line"/>
    </contour>
  </outline>
</glyph>
<glyph name="Ubreve" format="1">
  <advance width="600"/>
  <unicode hex="016C"/>
  <outline>
    <contour>
      <point x="392" y="740" type="curve"/>
      <point x="501" y="740"/>
      <point x="558" y="825"/>
      <point x="601" y="910" type="curve"/>
      <point x="518" y="952" type="line"/>
      <point x="492" y="917" type="line" smooth="yes"/>
      <point x="456" y="868"/>
      <point x="434" y="843"/>
      <point x="398" y="843" type="curve"/>
      <point x="356" y="843"/>
      <point x="338" y="870"/>
      <point x="314" y="915" type="curve"/>
      <point x="294" y="952" type="line"/>
      <point x="213" y="910" type="line"/>
      <point x="234" y="828"/>
      <point x="279" y="740"/>
    </contour>
    <contour>
      <point x="202" y="260" type="curve"/>
      <point x="275" y="698" type="line"/>
      <point x="128" y="698" type="line"/>
      <point x="60" y="291" type="line" smooth="yes"/>
      <point x="53" y="249"/>
      <point x="49" y="210"/>
      <point x="49" y="176" type="curve"/>
      <point x="49" y="62"/>
      <point x="103" y="-12"/>
      <point x="269" y="-12" type="curve"/>
      <point x="470" y="-12"/>
      <point x="516" y="86"/>
      <point x="547" y="272" type="curve"/>
      <point x="618" y="698" type="line"/>
      <point x="471" y="698" type="line"/>
      <point x="397" y="255" type="line" smooth="yes"/>
      <point x="382" y="165"/>
      <point x="366" y="108"/>
      <point x="277" y="108" type="curve"/>
      <point x="216" y="108"/>
      <point x="194" y="136"/>
      <point x="194" y="186" type="curve"/>
      <point x="194" y="200"/>
      <point x="196" y="224"/>
    </contour>
  </outline>
</glyph>
<glyph name="uring" format="1">
  <advance width="600"/>
  <unicode hex="016F"/>
  <outline>
    <contour>
      <point x="347" y="550" type="curve"/>
      <point x="439" y="550"/>
      <point x="515" y="616"/>
      <point x="515" y="710" type="curve"/>
      <point x="515" y="780"/>
      <point x="458" y="834"/>
      <point x="385" y="834" type="curve"/>
      <point x="293" y="834"/>
      <point x="217" y="768"/>
      <point x="217" y="674" type="curve"/>
      <point x="217" y="604"/>
      <point x="274" y="550"/>
    </contour>
    <contour>
      <point x="355" y="624" type="curve"/>
      <point x="326" y="624"/>
      <point x="312" y="639"/>
      <point x="312" y="664" type="curve"/>
      <point x="312" y="674"/>
      <point x="314" y="685"/>
      <point x="318" y="709" type="curve"/>
      <point x="323" y="739"/>
      <point x="343" y="760"/>
      <point x="377" y="760" type="curve"/>
      <point x="406" y="760"/>
      <point x="420" y="745"/>
      <point x="420" y="720" type="curve"/>
      <point x="420" y="710"/>
      <point x="418" y="699"/>
      <point x="414" y="675" type="curve"/>
      <point x="409" y="645"/>
      <point x="389" y="624"/>
    </contour>
    <contour>
      <point x="357" y="123" type="curve"/>
      <point x="362" y="123" type="line"/>
      <point x="342" y="0" type="line"/>
      <point x="488" y="0" type="line"/>
      <point x="574" y="516" type="line"/>
      <point x="428" y="516" type="line"/>
      <point x="383" y="247" type="line" smooth="yes"/>
      <point x="376" y="205"/>
      <point x="351" y="167"/>
      <point x="336" y="147" type="curve"/>
      <point x="313" y="117"/>
      <point x="289" y="100"/>
      <point x="255" y="100" type="curve"/>
      <point x="210" y="100"/>
      <point x="195" y="134"/>
      <point x="195" y="161" type="curve"/>
      <point x="195" y="186"/>
      <point x="199" y="206"/>
      <point x="202" y="224" type="curve"/>
      <point x="251" y="516" type="line"/>
      <point x="105" y="516" type="line"/>
      <point x="59" y="241" type="line" smooth="yes"/>
      <point x="51" y="193"/>
      <point x="48" y="166"/>
      <point x="48" y="137" type="curve"/>
      <point x="48" y="57"/>
      <point x="88" y="-12"/>
      <point x="189" y="-12" type="curve"/>
      <point x="271" y="-12"/>
      <point x="318" y="39"/>
    </contour>
  </outline>
</glyph>
<glyph name="Wcircumflex" format="1">
  <advance width="600"/>
  <unicode hex="0174"/>
  <outline>
    <contour>
      <point x="583" y="797" type="line"/>
      <point x="475" y="955" type="line"/>
      <point x="351" y="955" type="line"/>
      <point x="197" y="797" type="line"/>
      <point x="267" y="740" type="line"/>
      <point x="401" y="855" type="line"/>
      <point x="507" y="740" type="line"/>
    </contour>
    <contour>
      <point x="84" y="698" type="line"/>
      <point x="10" y="0" type="line"/>
      <point x="200" y="0" type="line"/>
      <point x="317" y="386" type="line"/>
      <point x="327" y="386" type="line"/>
      <point x="312" y="0" type="line"/>
      <point x="502" y="0" type="line"/>
      <point x="661" y="698" type="line"/>
      <point x="540" y="698" type="line"/>
      <point x="447" y="274" type="line"/>
      <point x="420" y="136" type="line"/>
      <point x="411" y="136" type="line"/>
      <point x="417" y="546" type="line"/>
      <point x="282" y="546" type="line"/>
      <point x="155" y="136" type="line"/>
      <point x="146" y="136" type="line"/>
      <point x="163" y="280" type="line"/>
      <point x="211" y="698" type="line"/>
    </contour>
  </outline>
</glyph>
<glyph name="wcircumflex" format="1">
  <advance width="600"/>
  <unicode hex="0175"/>
  <outline>
    <contour>
      <point x="547" y="627" type="line"/>
      <point x="439" y="785" type="line"/>
      <point x="315" y="785" type="line"/>
      <point x="161" y="627" type="line"/>
      <point x="231" y="570" type="line"/>
      <point x="365" y="685" type="line"/>
      <point x="471" y="570" type="line"/>
    </contour>
    <contour>
      <point x="108" y="-12" type="curve"/>
      <point x="167" y="-12"/>
      <point x="211" y="25"/>
      <point x="235" y="98" type="curve"/>
      <point x="242" y="98" type="line"/>
      <point x="239" y="39"/>
      <point x="265" y="-12"/>
      <point x="337" y="-12" type="curve"/>
      <point x="392" y="-12"/>
      <point x="448" y="18"/>
      <point x="491" y="72" type="curve"/>
      <point x="545" y="140"/>
      <point x="579" y="246"/>
      <point x="579" y="365" type="curve"/>
      <point x="579" y="433"/>
      <point x="565" y="487"/>
      <point x="545" y="524" type="curve"/>
      <point x="443" y="494" type="line"/>
      <point x="455" y="461"/>
      <point x="461" y="413"/>
      <point x="461" y="366" type="curve"/>
      <point x="461" y="229"/>
      <point x="412" y="103"/>
      <point x="363" y="103" type="curve"/>
      <point x="341" y="103"/>
      <point x="333" y="120"/>
      <point x="333" y="139" type="curve"/>
      <point x="333" y="148"/>
      <point x="336" y="171"/>
      <point x="338" y="182" type="curve"/>
      <point x="392" y="516" type="line"/>
      <point x="279" y="516" type="line"/>
      <point x="231" y="206" type="line" smooth="yes"/>
      <point x="228" y="183"/>
      <point x="220" y="160"/>
      <point x="211" y="146" type="curve"/>
      <point x="196" y="122"/>
      <point x="180" y="107"/>
      <point x="160" y="107" type="curve"/>
      <point x="138" y="107"/>
      <point x="129" y="121"/>
      <point x="129" y="142" type="curve"/>
      <point x="129" y="154"/>
      <point x="131" y="176"/>
      <point x="133" y="187" type="curve"/>
      <point x="194" y="516" type="line"/>
      <point x="76" y="516" type="line"/>
      <point x="22" y="192" type="line" smooth="yes"/>
      <point x="17" y="160"/>
      <point x="13" y="115"/>
      <point x="13" y="97" type="curve"/>
      <point x="13" y="32"/>
      <point x="42" y="-12"/>
    </contour>
  </outline>
</glyph>
<glyph name="Ycircumflex" format="1">
  <advance width="600"/>
  <unicode hex="0176"/>
  <outline>
    <contour>
      <point x="576" y="797" type="line"/>
      <point x="468" y="955" type="line"/>
      <point x="344" y="955" type="line"/>
      <point x="190" y="797" type="line"/>
      <point x="260" y="740" type="line"/>
      <point x="394" y="855" type="line"/>
      <point x="500" y="740" type="line"/>
    </contour>
    <contour>
      <point x="225" y="246" type="line"/>
      <point x="184" y="0" type="line"/>
      <point x="332" y="0" type="line"/>
      <point x="373" y="249" type="line"/>
      <point x="668" y="698" type="line"/>
      <point x="503" y="698" type="line"/>
      <point x="403" y="534" type="line"/>
      <point x="325" y="397" type="line"/>
      <point x="316" y="397" type="line"/>
      <point x="285" y="534" type="line"/>
      <point x="236" y="698" type="line"/>
      <point x="78" y="698" type="line"/>
    </contour>
  </outline>
</glyph>
<glyph name="Ydieresis" format="1">
  <advance width="600"/>
  <unicode hex="0178"/>
  <outline>
    <contour>
      <point x="273" y="762" type="curve"/>
      <point x="331" y="762"/>
      <point x="351" y="786"/>
      <point x="358" y="821" type="curve"/>
      <point x="362" y="842"/>
      <point x="363" y="850"/>
      <point x="363" y="857" type="curve"/>
      <point x="363" y="888"/>
      <point x="343" y="911"/>
      <point x="289" y="911" type="curve"/>
      <point x="231" y="911"/>
      <point x="211" y="887"/>
      <point x="204" y="852" type="curve"/>
      <point x="200" y="831"/>
      <point x="199" y="823"/>
      <point x="199" y="816" type="curve"/>
      <point x="199" y="785"/>
      <point x="219" y="762"/>
    </contour>
    <contour>
      <point x="491" y="762" type="curve"/>
      <point x="549" y="762"/>
      <point x="569" y="786"/>
      <point x="576" y="821" type="curve"/>
      <point x="580" y="842"/>
      <point x="581" y="850"/>
      <point x="581" y="857" type="curve"/>
      <point x="581" y="888"/>
      <point x="561" y="911"/>
      <point x="507" y="911" type="curve"/>
      <point x="449" y="911"/>
      <point x="429" y="887"/>
      <point x="422" y="852" type="curve"/>
      <point x="418" y="831"/>
      <point x="417" y="823"/>
      <point x="417" y="816" type="curve"/>
      <point x="417" y="785"/>
      <point x="437" y="762"/>
    </contour>
    <contour>
      <point x="225" y="246" type="line"/>
      <point x="184" y="0" type="line"/>
      <point x="332" y="0" type="line"/>
      <point x="373" y="249" type="line"/>
      <point x="668" y="698" type="line"/>
      <point x="503" y="698" type="line"/>
      <point x="403" y="534" type="line"/>
      <point x="325" y="397" type="line"/>
      <point x="316" y="397" type="line"/>
      <point x="285" y="534" type="line"/>
      <point x="236" y="698" type="line"/>
      <point x="78" y="698" type="line"/>
    </contour>
  </outline>
</glyph>
<glyph name="Zacute" format="1">
  <advance width="600"/>
  <unicode hex="0179"/>
  <outline>
    <contour>
      <point x="299" y="786" type="line"/>
      <point x="385" y="740" type="line"/>
      <point x="528" y="916" type="line"/>
      <point x="414" y="976" type="line"/>
    </contour>
    <contour>
      <point x="8" y="0" type="line"/>
      <point x="507" y="0" type="line"/>
      <point x="527" y="122" type="line"/>
      <point x="204" y="122" type="line"/>
      <point x="591" y="568" type="line"/>
      <point x="612" y="698" type="line"/>
      <point x="133" y="698" type="line"/>
      <point x="113" y="576" type="line"/>
      <point x="417" y="576" type="line"/>
      <point x="30" y="130" type="line"/>
    </contour>
  </outline>
</glyph>
<glyph name="Zdotaccent" format="1">
  <advance width="600"/>
  <unicode hex="017B"/>
  <outline>
    <contour>
      <point x="379" y="754" type="curve"/>
      <point x="439" y="754"/>
      <point x="466" y="778"/>
      <point x="473" y="820" type="curve"/>
      <point x="477" y="844"/>
      <point x="478" y="853"/>
      <point x="478" y="860" type="curve"/>
      <point x="478" y="895"/>
      <point x="456" y="921"/>
      <point x="396" y="921" type="curve"/>
      <point x="336" y="921"/>
      <point x="309" y="897"/>
      <point x="302" y="855" type="curve"/>
      <point x="298" y="831"/>
      <point x="297" y="822"/>
      <point x="297" y="815" type="curve"/>
      <point x="297" y="780"/>
      <point x="319" y="754"/>
    </contour>
    <contour>
      <point x="8" y="0" type="line"/>
      <point x="507" y="0" type="line"/>
      <point x="527" y="122" type="line"/>
      <point x="204" y="122" type="line"/>
      <point x="591" y="568" type="line"/>
      <point x="612" y="698" type="line"/>
      <point x="133" y="698" type="line"/>
      <point x="113" y="576" type="line"/>
      <point x="417" y="576" type="line"/>
      <point x="30" y="130" type="line"/>
    </contour>
  </outline>
</glyph>
<glyph name="Zcaron" format="1">
  <advance width="600"/>
  <unicode hex="017D"/>
  <outline>
    <contour>
      <point x="207" y="907" type="line"/>
      <point x="315" y="749" type="line"/>
      <point x="439" y="749" type="line"/>
      <point x="593" y="907" type="line"/>
      <point x="523" y="964" type="line"/>
      <point x="389" y="849" type="line"/>
      <point x="283" y="964" type="line"/>
    </contour>
    <contour>
      <point x="8" y="0" type="line"/>
      <point x="507" y="0" type="line"/>
      <point x="527" y="122" type="line"/>
      <point x="204" y="122" type="line"/>
      <point x="591" y="568" type="line"/>
      <point x="612" y="698" type="line"/>
      <point x="133" y="698" type="line"/>
      <point x="113" y="576" type="line"/>
      <point x="417" y="576" type="line"/>
      <point x="30" y="130" type="line"/>
    </contour>
  </outline>
</glyph>
<glyph name="AEacute" format="1">
  <advance width="600"/>
  <unicode hex="01FC"/>
  <outline>
    <contour>
      <point x="475" y="740" type="line"/>
      <point x="618" y="916" type="line"/>
      <point x="504" y="976" type="line"/>
      <point x="389" y="786" type="line"/>
    </contour>
    <contour>
      <point x="308" y="169" type="line"/>
      <point x="280" y="0" type="line"/>
      <point x="571" y="0" type="line"/>
      <point x="589" y="110" type="line"/>
      <point x="434" y="110" type="line"/>
      <point x="466" y="298" type="line"/>
      <point x="611" y="298" type="line"/>
      <point x="629" y="408" type="line"/>
      <point x="484" y="408" type="line"/>
      <point x="514" y="588" type="line"/>
      <point x="670" y="588" type="line"/>
      <point x="688" y="698" type="line"/>
      <point x="273" y="698" type="line"/>
      <point x="-3" y="0" type="line"/>
      <point x="141" y="0" type="line"/>
      <point x="204" y="169" type="line"/>
    </contour>
    <contour>
      <point x="357" y="595" type="line"/>
      <point x="380" y="595" type="line"/>
      <point x="327" y="279" type="line"/>
      <point x="243" y="279" type="line"/>
    </contour>
  </outline>
</glyph>
<glyph name="Oslashacute" format="1">
  <advance width="600"/>
  <unicode hex="01FE"/>
  <outline>
    <contour>
      <point x="291" y="786" type="line"/>
      <point x="377" y="740" type="line"/>
      <point x="520" y="916" type="line"/>
      <point x="406" y="976" type="line"/>
    </contour>
    <contour>
      <point x="279" y="-12" type="curve"/>
      <point x="501" y="-12"/>
      <point x="592" y="210"/>
      <point x="592" y="447" type="curve"/>
      <point x="592" y="503"/>
      <point x="584" y="552"/>
      <point x="565" y="591" type="curve"/>
      <point x="655" y="708" type="line"/>
      <point x="567" y="765" type="line"/>
      <point x="496" y="672" type="line"/>
      <point x="459" y="697"/>
      <point x="410" y="710"/>
      <point x="349" y="710" type="curve"/>
      <point x="127" y="710"/>
      <point x="36" y="488"/>
      <point x="36" y="251" type="curve"/>
      <point x="36" y="195"/>
      <point x="44" y="146"/>
      <point x="63" y="107" type="curve"/>
      <point x="-27" y="-10" type="line"/>
      <point x="61" y="-67" type="line"/>
      <point x="132" y="26" type="line"/>
      <point x="169" y="1"/>
      <point x="218" y="-12"/>
    </contour>
    <contour>
      <point x="191" y="302" type="curve"/>
      <point x="209" y="410" type="line" smooth="yes"/>
      <point x="228" y="524"/>
      <point x="265" y="591"/>
      <point x="349" y="591" type="curve"/>
      <point x="381" y="591"/>
      <point x="405" y="580"/>
      <point x="421" y="562" type="curve"/>
      <point x="185" y="254" type="line"/>
      <point x="185" y="255" type="line" smooth="yes"/>
      <point x="185" y="267"/>
      <point x="187" y="279"/>
    </contour>
    <contour>
      <point x="279" y="107" type="curve"/>
      <point x="247" y="107"/>
      <point x="223" y="118"/>
      <point x="207" y="136" type="curve"/>
      <point x="443" y="444" type="line"/>
      <point x="443" y="443" type="line" smooth="yes"/>
      <point x="443" y="431"/>
      <point x="441" y="419"/>
      <point x="437" y="396" type="curve"/>
      <point x="419" y="288" type="line" smooth="yes"/>
      <point x="400" y="174"/>
      <point x="363" y="107"/>
    </contour>
  </outline>
</glyph>
<glyph name="uni0237" format="1">
  <advance width="600"/>
  <unicode hex="0237"/>
  <outline>
    <contour>
      <point x="216" y="-212" type="curve"/>
      <point x="312" y="-212"/>
      <point x="365" y="-162"/>
      <point x="386" y="-37" type="curve"/>
      <point x="478" y="516" type="line"/>
      <point x="143" y="516" type="line"/>
      <point x="124" y="402" type="line"/>
      <point x="313" y="402" type="line"/>
      <point x="230" y="-96" type="line"/>
      <point x="217" y="-101" type="line"/>
      <point x="104" y="54" type="line"/>
      <point x="4" y="-15" type="line"/>
      <point x="36" y="-65" type="line" smooth="yes"/>
      <point x="97" y="-160"/>
      <point x="137" y="-212"/>
    </contour>
  </outline>
</glyph>
<glyph name="circumflex" format="1">
  <advance width="600"/>
  <unicode hex="02C6"/>
  <outline>
    <contour>
      <point x="511" y="627" type="line"/>
      <point x="403" y="785" type="line"/>
      <point x="279" y="785" type="line"/>
      <point x="125" y="627" type="line"/>
      <point x="195" y="570" type="line"/>
      <point x="329" y="685" type="line"/>
      <point x="435" y="570" type="line"/>
    </contour>
  </outline>
</glyph>
<glyph name="breve" format="1">
  <advance width="600"/>
  <unicode hex="02D8"/>
  <outline>
    <contour>
      <point x="323" y="570" type="curve"/>
      <point x="432" y="570"/>
      <point x="489" y="655"/>
      <point x="532" y="740" type="curve"/>
      <point x="449" y="782" type="line"/>
      <point x="423" y="747" type="line" smooth="yes"/>
      <point x="387" y="698"/>
      <point x="365" y="673"/>
      <point x="329" y="673" type="curve"/>
      <point x="287" y="673"/>
      <point x="269" y="700"/>
      <point x="245" y="745" type="curve"/>
      <point x="225" y="782" type="line"/>
      <point x="144" y="740" type="line"/>
      <point x="165" y="658"/>
      <point x="210" y="570"/>
    </contour>
  </outline>
</glyph>
<glyph name="ring" format="1">
  <advance width="600"/>
  <unicode hex="02DA"/>
  <outline>
    <contour>
      <point x="309" y="550" type="curve"/>
      <point x="401" y="550"/>
      <point x="477" y="616"/>
      <point x="477" y="710" type="curve"/>
      <point x="477" y="780"/>
      <point x="420" y="834"/>
      <point x="347" y="834" type="curve"/>
      <point x="255" y="834"/>
      <point x="179" y="768"/>
      <point x="179" y="674" type="curve"/>
      <point x="179" y="604"/>
      <point x="236" y="550"/>
    </contour>
    <contour>
      <point x="317" y="624" type="curve"/>
      <point x="288" y="624"/>
      <point x="274" y="639"/>
      <point x="274" y="664" type="curve"/>
      <point x="274" y="674"/>
      <point x="276" y="685"/>
      <point x="280" y="709" type="curve"/>
      <point x="285" y="739"/>
      <point x="305" y="760"/>
      <point x="339" y="760" type="curve"/>
      <point x="368" y="760"/>
      <point x="382" y="745"/>
      <point x="382" y="720" type="curve"/>
      <point x="382" y="710"/>
      <point x="380" y="699"/>
      <point x="376" y="675" type="curve"/>
      <point x="371" y="645"/>
      <point x="351" y="624"/>
    </contour>
  </outline>
</glyph>
<glyph name="hungarumlaut" format="1">
  <advance width="600"/>
  <unicode hex="02DD"/>
  <outline>
    <contour>
      <point x="142" y="609" type="line"/>
      <point x="220" y="571" type="line"/>
      <point x="358" y="746" type="line"/>
      <point x="250" y="802" type="line"/>
    </contour>
    <contour>
      <point x="341" y="609" type="line"/>
      <point x="419" y="571" type="line"/>
      <point x="557" y="746" type="line"/>
      <point x="449" y="802" type="line"/>
    </contour>
  </outline>
</glyph>
<glyph name="uni0300" format="1">
  <advance width="0"/>
  <unicode hex="0300"/>
  <outline>
    <contour>
      <point x="3" y="806" type="line"/>
      <point x="-121" y="747" type="line"/>
      <point x="-7" y="571" type="line"/>
      <point x="80" y="610" type="line"/>
    </contour>
  </outline>
</glyph>
<glyph name="uni0303" format="1">
  <advance width="0"/>
  <unicode hex="0303"/>
  <outline>
    <contour>
      <point x="89" y="592" type="curve"/>
      <point x="142" y="592"/>
      <point x="184" y="620"/>
      <point x="213" y="656" type="curve"/>
      <point x="173" y="723" type="line"/>
      <point x="149" y="706"/>
      <point x="133" y="698"/>
      <point x="110" y="698" type="curve"/>
      <point x="84" y="698"/>
      <point x="62" y="708"/>
      <point x="35" y="720" type="curve"/>
      <point x="12" y="731"/>
      <point x="-8" y="741"/>
      <point x="-38" y="741" type="curve"/>
      <point x="-91" y="741"/>
      <point x="-133" y="713"/>
      <point x="-162" y="677" type="curve"/>
      <point x="-122" y="610" type="line"/>
      <point x="-98" y="627"/>
      <point x="-82" y="635"/>
      <point x="-59" y="635" type="curve"/>
      <point x="-33" y="635"/>
      <point x="-11" y="625"/>
      <point x="16" y="613" type="curve"/>
      <point x="39" y="602"/>
      <point x="59" y="592"/>
    </contour>
  </outline>
</glyph>
<glyph name="uni0306" format="1">
  <advance width="0"/>
  <unicode hex="0306"/>
  <outline>
    <contour>
      <point x="23" y="570" type="curve"/>
      <point x="132" y="570"/>
      <point x="189" y="655"/>
      <point x="232" y="740" type="curve"/>
      <point x="149" y="782" type="line"/>
      <point x="123" y="747" type="line" smooth="yes"/>
      <point x="87" y="698"/>
      <point x="65" y="673"/>
      <point x="29" y="673" type="curve"/>
      <point x="-13" y="673"/>
      <point x="-31" y="700"/>
      <point x="-55" y="745" type="curve"/>
      <point x="-75" y="782" type="line"/>
      <point x="-156" y="740" type="line"/>
      <point x="-135" y="658"/>
      <point x="-90" y="570"/>
    </contour>
  </outline>
</glyph>
<glyph name="uni0307" format="1">
  <advance width="0"/>
  <unicode hex="0307"/>
  <outline>
    <contour>
      <point x="17" y="584" type="curve"/>
      <point x="77" y="584"/>
      <point x="104" y="608"/>
      <point x="111" y="650" type="curve"/>
      <point x="115" y="674"/>
      <point x="116" y="683"/>
      <point x="116" y="690" type="curve"/>
      <point x="116" y="725"/>
      <point x="94" y="751"/>
      <point x="34" y="751" type="curve"/>
      <point x="-26" y="751"/>
      <point x="-53" y="727"/>
      <point x="-60" y="685" type="curve"/>
      <point x="-64" y="661"/>
      <point x="-65" y="652"/>
      <point x="-65" y="645" type="curve"/>
      <point x="-65" y="610"/>
      <point x="-43" y="584"/>
    </contour>
  </outline>
</glyph>
<glyph name="uni0309" format="1">
  <advance width="0"/>
  <unicode hex="0309"/>
  <outline>
    <contour>
      <point x="74" y="792" type="curve"/>
      <point x="-73" y="792" type="line"/>
      <point x="-91" y="688" type="line"/>
      <point x="31" y="688" type="line"/>
      <point x="-19" y="595" type="line"/>
      <point x="52" y="561" type="line"/>
      <point x="106" y="627" type="line" smooth="yes"/>
      <point x="134" y="662"/>
      <point x="155" y="692"/>
      <point x="155" y="733" type="curve"/>
      <point x="155" y="766"/>
      <point x="129" y="792"/>
    </contour>
  </outline>
</glyph>
<glyph name="uni030C" format="1">
  <advance width="0"/>
  <unicode hex="030C"/>
  <outline>
    <contour>
      <point x="-155" y="737" type="line"/>
      <point x="-47" y="579" type="line"/>
      <point x="77" y="579" type="line"/>
      <point x="231" y="737" type="line"/>
      <point x="161" y="794" type="line"/>
      <point x="27" y="679" type="line"/>
      <point x="-79" y="794" type="line"/>
    </contour>
  </outline>
</glyph>
<glyph name="uni0315" format="1">
  <advance width="0"/>
  <unicode hex="0315"/>
  <outline>
    <contour>
      <point x="-35" y="525" type="line"/>
      <point x="62" y="525" type="line"/>
      <point x="163" y="740" type="line"/>
      <point x="6" y="740" type="line"/>
    </contour>
  </outline>
</glyph>
<glyph name="uni0326" format="1">
  <advance width="0"/>
  <unicode hex="0326"/>
  <outline>
    <contour>
      <point x="70" y="-54" type="line"/>
      <point x="-86" y="-54" type="line"/>
      <point x="-139" y="-269" type="line"/>
      <point x="-51" y="-269" type="line"/>
    </contour>
  </outline>
</glyph>
<glyph name="uni0328" format="1">
  <advance width="0"/>
  <unicode hex="0328"/>
  <outline>
    <contour>
      <point x="-94" y="-212" type="curve"/>
      <point x="-35" y="-212"/>
      <point x="3" y="-190"/>
      <point x="28" y="-158" type="curve"/>
      <point x="-26" y="-113" type="line"/>
      <point x="-40" y="-134"/>
      <point x="-59" y="-140"/>
      <point x="-78" y="-140" type="curve"/>
      <point x="-105" y="-140"/>
      <point x="-116" y="-128"/>
      <point x="-116" y="-109" type="curve"/>
      <point x="-116" y="-90"/>
      <point x="-105" y="-63"/>
      <point x="0" y="0" type="curve"/>
      <point x="-20" y="19" type="line"/>
      <point x="-79" y="13" type="line"/>
      <point x="-75" y="-4" type="line"/>
      <point x="-174" y="-30"/>
      <point x="-215" y="-78"/>
      <point x="-215" y="-127" type="curve"/>
      <point x="-215" y="-182"/>
      <point x="-163" y="-212"/>
    </contour>
  </outline>
</glyph>
<glyph name="pi" format="1">
  <advance width="600"/>
  <unicode hex="03C0"/>
  <outline>
    <contour>
      <point x="34" y="402" type="line"/>
      <point x="104" y="402" type="line"/>
      <point x="37" y="0" type="line"/>
      <point x="178" y="0" type="line"/>
      <point x="245" y="402" type="line"/>
      <point x="365" y="402" type="line"/>
      <point x="330" y="188" type="line" smooth="yes"/>
      <point x="323" y="147"/>
      <point x="320" y="120"/>
      <point x="320" y="98" type="curve"/>
      <point x="320" y="25"/>
      <point x="359" y="-12"/>
      <point x="424" y="-12" type="curve"/>
      <point x="480" y="-12"/>
      <point x="516" y="8"/>
      <point x="569" y="59" type="curve"/>
      <point x="599" y="88" type="line"/>
      <point x="546" y="147" type="line"/>
      <point x="469" y="91" type="line"/>
      <point x="454" y="96" type="line"/>
      <point x="507" y="402" type="line"/>
      <point x="585" y="402" type="line"/>
      <point x="604" y="516" type="line"/>
      <point x="53" y="516" type="line"/>
    </contour>
  </outline>
</glyph>
<glyph name="Wacute" format="1">
  <advance width="600"/>
  <unicode hex="1E82"/>
  <outline>
    <contour>
      <point x="309" y="786" type="line"/>
      <point x="395" y="740" type="line"/>
      <point x="538" y="916" type="line"/>
      <point x="424" y="976" type="line"/>
    </contour>
    <contour>
      <point x="84" y="698" type="line"/>
      <point x="10" y="0" type="line"/>
      <point x="200" y="0" type="line"/>
      <point x="317" y="386" type="line"/>
      <point x="327" y="386" type="line"/>
      <point x="312" y="0" type="line"/>
      <point x="502" y="0" type="line"/>
      <point x="661" y="698" type="line"/>
      <point x="540" y="698" type="line"/>
      <point x="447" y="274" type="line"/>
      <point x="420" y="136" type="line"/>
      <point x="411" y="136" type="line"/>
      <point x="417" y="546" type="line"/>
      <point x="282" y="546" type="line"/>
      <point x="155" y="136" type="line"/>
      <point x="146" y="136" type="line"/>
      <point x="163" y="280" type="line"/>
      <point x="211" y="698" type="line"/>
    </contour>
  </outline>
</glyph>
<glyph name="Wdieresis" format="1">
  <advance width="600"/>
  <unicode hex="1E84"/>
  <outline>
    <contour>
      <point x="280" y="762" type="curve"/>
      <point x="338" y="762"/>
      <point x="358" y="786"/>
      <point x="365" y="821" type="curve"/>
      <point x="369" y="842"/>
      <point x="370" y="850"/>
      <point x="370" y="857" type="curve"/>
      <point x="370" y="888"/>
      <point x="350" y="911"/>
      <point x="296" y="911" type="curve"/>
      <point x="238" y="911"/>
      <point x="218" y="887"/>
      <point x="211" y="852" type="curve"/>
      <point x="207" y="831"/>
      <point x="206" y="823"/>
      <point x="206" y="816" type="curve"/>
      <point x="206" y="785"/>
      <point x="226" y="762"/>
    </contour>
    <contour>
      <point x="498" y="762" type="curve"/>
      <point x="556" y="762"/>
      <point x="576" y="786"/>
      <point x="583" y="821" type="curve"/>
      <point x="587" y="842"/>
      <point x="588" y="850"/>
      <point x="588" y="857" type="curve"/>
      <point x="588" y="888"/>
      <point x="568" y="911"/>
      <point x="514" y="911" type="curve"/>
      <point x="456" y="911"/>
      <point x="436" y="887"/>
      <point x="429" y="852" type="curve"/>
      <point x="425" y="831"/>
      <point x="424" y="823"/>
      <point x="424" y="816" type="curve"/>
      <point x="424" y="785"/>
      <point x="444" y="762"/>
    </contour>
    <contour>
      <point x="84" y="698" type="line"/>
      <point x="10" y="0" type="line"/>
      <point x="200" y="0" type="line"/>
      <point x="317" y="386" type="line"/>
      <point x="327" y="386" type="line"/>
      <point x="312" y="0" type="line"/>
      <point x="502" y="0" type="line"/>
      <point x="661" y="698" type="line"/>
      <point x="540" y="698" type="line"/>
      <point x="447" y="274" type="line"/>
      <point x="420" y="136" type="line"/>
      <point x="411" y="136" type="line"/>
      <point x="417" y="546" type="line"/>
      <point x="282" y="546" type="line"/>
      <point x="155" y="136" type="line"/>
      <point x="146" y="136" type="line"/>
      <point x="163" y="280" type="line"/>
      <point x="211" y="698" type="line"/>
    </contour>
  </outline>
</glyph>
<glyph name="wdieresis" format="1">
  <advance width="600"/>
  <unicode hex="1E85"/>
  <outline>
    <contour>
      <point x="244" y="592" type="curve"/>
      <point x="302" y="592"/>
      <point x="323" y="616"/>
      <point x="329" y="652" type="curve"/>
      <point x="332" y="670"/>
      <point x="334" y="681"/>
      <point x="334" y="687" type="curve"/>
      <point x="334" y="718"/>
      <point x="314" y="741"/>
      <point x="260" y="741" type="curve"/>
      <point x="202" y="741"/>
      <point x="181" y="717"/>
      <point x="175" y="681" type="curve"/>
      <point x="172" y="663"/>
      <point x="170" y="652"/>
      <point x="170" y="646" type="curve"/>
      <point x="170" y="615"/>
      <point x="190" y="592"/>
    </contour>
    <contour>
      <point x="462" y="592" type="curve"/>
      <point x="520" y="592"/>
      <point x="541" y="616"/>
      <point x="547" y="652" type="curve"/>
      <point x="550" y="670"/>
      <point x="552" y="681"/>
      <point x="552" y="687" type="curve"/>
      <point x="552" y="718"/>
      <point x="532" y="741"/>
      <point x="478" y="741" type="curve"/>
      <point x="420" y="741"/>
      <point x="399" y="717"/>
      <point x="393" y="681" type="curve"/>
      <point x="390" y="663"/>
      <point x="388" y="652"/>
      <point x="388" y="646" type="curve"/>
      <point x="388" y="615"/>
      <point x="408" y="592"/>
    </contour>
    <contour>
      <point x="108" y="-12" type="curve"/>
      <point x="167" y="-12"/>
      <point x="211" y="25"/>
      <point x="235" y="98" type="curve"/>
      <point x="242" y="98" type="line"/>
      <point x="239" y="39"/>
      <point x="265" y="-12"/>
      <point x="337" y="-12" type="curve"/>
      <point x="392" y="-12"/>
      <point x="448" y="18"/>
      <point x="491" y="72" type="curve"/>
      <point x="545" y="140"/>
      <point x="579" y="246"/>
      <point x="579" y="365" type="curve"/>
      <point x="579" y="433"/>
      <point x="565" y="487"/>
      <point x="545" y="524" type="curve"/>
      <point x="443" y="494" type="line"/>
      <point x="455" y="461"/>
      <point x="461" y="413"/>
      <point x="461" y="366" type="curve"/>
      <point x="461" y="229"/>
      <point x="412" y="103"/>
      <point x="363" y="103" type="curve"/>
      <point x="341" y="103"/>
      <point x="333" y="120"/>
      <point x="333" y="139" type="curve"/>
      <point x="333" y="148"/>
      <point x="336" y="171"/>
      <point x="338" y="182" type="curve"/>
      <point x="392" y="516" type="line"/>
      <point x="279" y="516" type="line"/>
      <point x="231" y="206" type="line" smooth="yes"/>
      <point x="228" y="183"/>
      <point x="220" y="160"/>
      <point x="211" y="146" type="curve"/>
      <point x="196" y="122"/>
      <point x="180" y="107"/>
      <point x="160" y="107" type="curve"/>
      <point x="138" y="107"/>
      <point x="129" y="121"/>
      <point x="129" y="142" type="curve"/>
      <point x="129" y="154"/>
      <point x="131" y="176"/>
      <point x="133" y="187" type="curve"/>
      <point x="194" y="516" type="line"/>
      <point x="76" y="516" type="line"/>
      <point x="22" y="192" type="line" smooth="yes"/>
      <point x="17" y="160"/>
      <point x="13" y="115"/>
      <point x="13" y="97" type="curve"/>
      <point x="13" y="32"/>
      <point x="42" y="-12"/>
    </contour>
  </outline>
</glyph>
<glyph name="uni1EA0" format="1">
  <advance width="600"/>
  <unicode hex="1EA0"/>
  <outline>
    <contour>
      <point x="233" y="-202" type="curve"/>
      <point x="288" y="-202"/>
      <point x="310" y="-179"/>
      <point x="316" y="-143" type="curve"/>
      <point x="319" y="-125"/>
      <point x="321" y="-114"/>
      <point x="321" y="-107" type="curve"/>
      <point x="321" y="-76"/>
      <point x="303" y="-53"/>
      <point x="249" y="-53" type="curve"/>
      <point x="194" y="-53"/>
      <point x="172" y="-76"/>
      <point x="166" y="-112" type="curve"/>
      <point x="163" y="-130"/>
      <point x="161" y="-141"/>
      <point x="161" y="-148" type="curve"/>
      <point x="161" y="-179"/>
      <point x="179" y="-202"/>
    </contour>
    <contour>
      <point x="383" y="169" type="line"/>
      <point x="400" y="0" type="line"/>
      <point x="552" y="0" type="line"/>
      <point x="476" y="698" type="line"/>
      <point x="270" y="698" type="line"/>
      <point x="-37" y="0" type="line"/>
      <point x="118" y="0" type="line"/>
      <point x="187" y="169" type="line"/>
    </contour>
    <contour>
      <point x="347" y="553" type="line"/>
      <point x="356" y="553" type="line"/>
      <point x="377" y="289" type="line"/>
      <point x="237" y="289" type="line"/>
    </contour>
  </outline>
</glyph>
<glyph name="uni1EA2" format="1">
  <advance width="600"/>
  <unicode hex="1EA2"/>
  <outline>
    <contour>
      <point x="442" y="962" type="curve"/>
      <point x="295" y="962" type="line"/>
      <point x="277" y="858" type="line"/>
      <point x="399" y="858" type="line"/>
      <point x="349" y="765" type="line"/>
      <point x="420" y="731" type="line"/>
      <point x="474" y="797" type="line" smooth="yes"/>
      <point x="502" y="832"/>
      <point x="523" y="862"/>
      <point x="523" y="903" type="curve"/>
      <point x="523" y="936"/>
      <point x="497" y="962"/>
    </contour>
    <contour>
      <point x="383" y="169" type="line"/>
      <point x="400" y="0" type="line"/>
      <point x="552" y="0" type="line"/>
      <point x="476" y="698" type="line"/>
      <point x="270" y="698" type="line"/>
      <point x="-37" y="0" type="line"/>
      <point x="118" y="0" type="line"/>
      <point x="187" y="169" type="line"/>
    </contour>
    <contour>
      <point x="347" y="553" type="line"/>
      <point x="356" y="553" type="line"/>
      <point x="377" y="289" type="line"/>
      <point x="237" y="289" type="line"/>
    </contour>
  </outline>
</glyph>
<glyph name="uni1EA3" format="1">
  <advance width="600"/>
  <unicode hex="1EA3"/>
  <outline>
    <contour>
      <point x="406" y="792" type="curve"/>
      <point x="259" y="792" type="line"/>
      <point x="241" y="688" type="line"/>
      <point x="363" y="688" type="line"/>
      <point x="313" y="595" type="line"/>
      <point x="384" y="561" type="line"/>
      <point x="438" y="627" type="line" smooth="yes"/>
      <point x="466" y="662"/>
      <point x="487" y="692"/>
      <point x="487" y="733" type="curve"/>
      <point x="487" y="766"/>
      <point x="461" y="792"/>
    </contour>
    <contour>
      <point x="367" y="123" type="line"/>
      <point x="347" y="0" type="line"/>
      <point x="493" y="0" type="line"/>
      <point x="579" y="516" type="line"/>
      <point x="433" y="516" type="line"/>
      <point x="417" y="420" type="line"/>
      <point x="410" y="420" type="line"/>
      <point x="395" y="488"/>
      <point x="356" y="528"/>
      <point x="275" y="528" type="curve"/>
      <point x="132" y="528"/>
      <point x="38" y="393"/>
      <point x="38" y="188" type="curve"/>
      <point x="38" y="67"/>
      <point x="80" y="-12"/>
      <point x="189" y="-12" type="curve"/>
      <point x="277" y="-12"/>
      <point x="323" y="44"/>
      <point x="362" y="123" type="curve"/>
    </contour>
    <contour>
      <point x="254" y="101" type="curve"/>
      <point x="204" y="101"/>
      <point x="187" y="139"/>
      <point x="186" y="188" type="curve"/>
      <point x="186" y="205"/>
      <point x="188" y="221"/>
      <point x="190" y="233" type="curve"/>
      <point x="200" y="293" type="line" smooth="yes"/>
      <point x="213" y="371"/>
      <point x="250" y="415"/>
      <point x="322" y="415" type="curve"/>
      <point x="385" y="415"/>
      <point x="411" y="384"/>
      <point x="402" y="330" type="curve"/>
      <point x="388" y="247" type="line" smooth="yes"/>
      <point x="381" y="204"/>
      <point x="357" y="169"/>
      <point x="341" y="150" type="curve"/>
      <point x="317" y="120"/>
      <point x="290" y="101"/>
    </contour>
  </outline>
</glyph>
<glyph name="uni1EA6" format="1">
  <advance width="600"/>
  <unicode hex="1EA6"/>
  <outline>
    <contour>
      <point x="227" y="1126" type="line"/>
      <point x="114" y="1071" type="line"/>
      <point x="227" y="895" type="line"/>
      <point x="301" y="933" type="line"/>
    </contour>
    <contour>
      <point x="576" y="795" type="line"/>
      <point x="455" y="941" type="line"/>
      <point x="361" y="941" type="line"/>
      <point x="194" y="795" type="line"/>
      <point x="257" y="732" type="line"/>
      <point x="393" y="836" type="line"/>
      <point x="502" y="732" type="line"/>
    </contour>
    <contour>
      <point x="383" y="169" type="line"/>
      <point x="400" y="0" type="line"/>
      <point x="552" y="0" type="line"/>
      <point x="476" y="698" type="line"/>
      <point x="270" y="698" type="line"/>
      <point x="-37" y="0" type="line"/>
      <point x="118" y="0" type="line"/>
      <point x="187" y="169" type="line"/>
    </contour>
    <contour>
      <point x="347" y="553" type="line"/>
      <point x="356" y="553" type="line"/>
      <point x="377" y="289" type="line"/>
      <point x="237" y="289" type="line"/>
    </contour>
  </outline>
</glyph>
<glyph name="uni1EA8" format="1">
  <advance width="600"/>
  <unicode hex="1EA8"/>
  <outline>
    <contour>
      <point x="612" y="1113" type="curve"/>
      <point x="475" y="1113" type="line"/>
      <point x="459" y="1012" type="line"/>
      <point x="571" y="1012" type="line"/>
      <point x="519" y="916" type="line"/>
      <point x="590" y="882" type="line"/>
      <point x="644" y="948" type="line" smooth="yes"/>
      <point x="672" y="983"/>
      <point x="693" y="1013"/>
      <point x="693" y="1054" type="curve"/>
      <point x="693" y="1087"/>
      <point x="667" y="1113"/>
    </contour>
    <contour>
      <point x="576" y="795" type="line"/>
      <point x="455" y="941" type="line"/>
      <point x="361" y="941" type="line"/>
      <point x="194" y="795" type="line"/>
      <point x="257" y="732" type="line"/>
      <point x="393" y="836" type="line"/>
      <point x="502" y="732" type="line"/>
    </contour>
    <contour>
      <point x="383" y="169" type="line"/>
      <point x="400" y="0" type="line"/>
      <point x="552" y="0" type="line"/>
      <point x="476" y="698" type="line"/>
      <point x="270" y="698" type="line"/>
      <point x="-37" y="0" type="line"/>
      <point x="118" y="0" type="line"/>
      <point x="187" y="169" type="line"/>
    </contour>
    <contour>
      <point x="347" y="553" type="line"/>
      <point x="356" y="553" type="line"/>
      <point x="377" y="289" type="line"/>
      <point x="237" y="289" type="line"/>
    </contour>
  </outline>
</glyph>
<glyph name="uni1EAA" format="1">
  <advance width="600"/>
  <unicode hex="1EAA"/>
  <outline>
    <contour>
      <point x="360" y="1102" type="curve"/>
      <point x="307" y="1102"/>
      <point x="264" y="1075"/>
      <point x="236" y="1040" type="curve"/>
      <point x="274" y="974" type="line"/>
      <point x="298" y="991"/>
      <point x="314" y="999"/>
      <point x="337" y="999" type="curve"/>
      <point x="363" y="999"/>
      <point x="385" y="990"/>
      <point x="412" y="977" type="curve"/>
      <point x="435" y="966"/>
      <point x="455" y="957"/>
      <point x="485" y="957" type="curve"/>
      <point x="538" y="957"/>
      <point x="581" y="984"/>
      <point x="609" y="1019" type="curve"/>
      <point x="571" y="1085" type="line"/>
      <point x="547" y="1068"/>
      <point x="531" y="1060"/>
      <point x="508" y="1060" type="curve"/>
      <point x="482" y="1060"/>
      <point x="460" y="1069"/>
      <point x="433" y="1082" type="curve"/>
      <point x="410" y="1093"/>
      <point x="390" y="1102"/>
    </contour>
    <contour>
      <point x="576" y="795" type="line"/>
      <point x="454" y="929" type="line"/>
      <point x="359" y="929" type="line"/>
      <point x="194" y="795" type="line"/>
      <point x="259" y="732" type="line"/>
      <point x="393" y="828" type="line"/>
      <point x="504" y="732" type="line"/>
    </contour>
    <contour>
      <point x="383" y="169" type="line"/>
      <point x="400" y="0" type="line"/>
      <point x="552" y="0" type="line"/>
      <point x="476" y="698" type="line"/>
      <point x="270" y="698" type="line"/>
      <point x="-37" y="0" type="line"/>
      <point x="118" y="0" type="line"/>
      <point x="187" y="169" type="line"/>
    </contour>
    <contour>
      <point x="347" y="553" type="line"/>
      <point x="356" y="553" type="line"/>
      <point x="377" y="289" type="line"/>
      <point x="237" y="289" type="line"/>
    </contour>
  </outline>
</glyph>
<glyph name="uni1EB2" format="1">
  <advance width="600"/>
  <unicode hex="1EB2"/>
  <outline>
    <contour>
      <point x="428" y="1113" type="curve"/>
      <point x="286" y="1113" type="line"/>
      <point x="270" y="1012" type="line"/>
      <point x="387" y="1012" type="line"/>
      <point x="330" y="914" type="line"/>
      <point x="391" y="883" type="line"/>
      <point x="427" y="920" type="line" smooth="yes"/>
      <point x="482" y="976"/>
      <point x="509" y="1014"/>
      <point x="509" y="1051" type="curve"/>
      <point x="509" y="1088"/>
      <point x="483" y="1113"/>
    </contour>
    <contour>
      <point x="389" y="733" type="curve"/>
      <point x="499" y="733"/>
      <point x="553" y="798"/>
      <point x="601" y="882" type="curve"/>
      <point x="527" y="929" type="line"/>
      <point x="502" y="901" type="line" smooth="yes"/>
      <point x="456" y="849"/>
      <point x="429" y="834"/>
      <point x="389" y="834" type="curve"/>
      <point x="344" y="834"/>
      <point x="322" y="850"/>
      <point x="289" y="901" type="curve"/>
      <point x="271" y="929" type="line"/>
      <point x="197" y="882" type="line"/>
      <point x="217" y="806"/>
      <point x="268" y="733"/>
    </contour>
    <contour>
      <point x="383" y="169" type="line"/>
      <point x="400" y="0" type="line"/>
      <point x="552" y="0" type="line"/>
      <point x="476" y="698" type="line"/>
      <point x="270" y="698" type="line"/>
      <point x="-37" y="0" type="line"/>
      <point x="118" y="0" type="line"/>
      <point x="187" y="169" type="line"/>
    </contour>
    <contour>
      <point x="347" y="553" type="line"/>
      <point x="356" y="553" type="line"/>
      <point x="377" y="289" type="line"/>
      <point x="237" y="289" type="line"/>
    </contour>
  </outline>
</glyph>
<glyph name="uni1EBC" format="1">
  <advance width="600"/>
  <unicode hex="1EBC"/>
  <outline>
    <contour>
      <point x="460" y="762" type="curve"/>
      <point x="513" y="762"/>
      <point x="555" y="790"/>
      <point x="584" y="826" type="curve"/>
      <point x="544" y="893" type="line"/>
      <point x="520" y="876"/>
      <point x="504" y="868"/>
      <point x="481" y="868" type="curve"/>
      <point x="455" y="868"/>
      <point x="433" y="878"/>
      <point x="406" y="890" type="curve"/>
      <point x="383" y="901"/>
      <point x="363" y="911"/>
      <point x="333" y="911" type="curve"/>
      <point x="280" y="911"/>
      <point x="238" y="883"/>
      <point x="209" y="847" type="curve"/>
      <point x="249" y="780" type="line"/>
      <point x="273" y="797"/>
      <point x="289" y="805"/>
      <point x="312" y="805" type="curve"/>
      <point x="338" y="805"/>
      <point x="360" y="795"/>
      <point x="387" y="783" type="curve"/>
      <point x="410" y="772"/>
      <point x="430" y="762"/>
    </contour>
    <contour>
      <point x="155" y="698" type="line"/>
      <point x="38" y="0" type="line"/>
      <point x="484" y="0" type="line"/>
      <point x="504" y="122" type="line"/>
      <point x="205" y="122" type="line"/>
      <point x="233" y="292" type="line"/>
      <point x="520" y="292" type="line"/>
      <point x="540" y="414" type="line"/>
      <point x="254" y="414" type="line"/>
      <point x="281" y="576" type="line"/>
      <point x="581" y="576" type="line"/>
      <point x="601" y="698" type="line"/>
    </contour>
  </outline>
</glyph>
<glyph name="uni1EC4" format="1">
  <advance width="600"/>
  <unicode hex="1EC4"/>
  <outline>
    <contour>
      <point x="363" y="1102" type="curve"/>
      <point x="310" y="1102"/>
      <point x="267" y="1075"/>
      <point x="239" y="1040" type="curve"/>
      <point x="277" y="974" type="line"/>
      <point x="301" y="991"/>
      <point x="317" y="999"/>
      <point x="340" y="999" type="curve"/>
      <point x="366" y="999"/>
      <point x="388" y="990"/>
      <point x="415" y="977" type="curve"/>
      <point x="438" y="966"/>
      <point x="458" y="957"/>
      <point x="488" y="957" type="curve"/>
      <point x="541" y="957"/>
      <point x="584" y="984"/>
      <point x="612" y="1019" type="curve"/>
      <point x="574" y="1085" type="line"/>
      <point x="550" y="1068"/>
      <point x="534" y="1060"/>
      <point x="511" y="1060" type="curve"/>
      <point x="485" y="1060"/>
      <point x="463" y="1069"/>
      <point x="436" y="1082" type="curve"/>
      <point x="413" y="1093"/>
      <point x="393" y="1102"/>
    </contour>
    <contour>
      <point x="579" y="795" type="line"/>
      <point x="457" y="929" type="line"/>
      <point x="362" y="929" type="line"/>
      <point x="197" y="795" type="line"/>
      <point x="262" y="732" type="line"/>
      <point x="396" y="828" type="line"/>
      <point x="507" y="732" type="line"/>
    </contour>
    <contour>
      <point x="155" y="698" type="line"/>
      <point x="38" y="0" type="line"/>
      <point x="484" y="0" type="line"/>
      <point x="504" y="122" type="line"/>
      <point x="205" y="122" type="line"/>
      <point x="233" y="292" type="line"/>
      <point x="520" y="292" type="line"/>
      <point x="540" y="414" type="line"/>
      <point x="254" y="414" type="line"/>
      <point x="281" y="576" type="line"/>
      <point x="581" y="576" type="line"/>
      <point x="601" y="698" type="line"/>
    </contour>
  </outline>
</glyph>
<glyph name="uni1ECA" format="1">
  <advance width="600"/>
  <unicode hex="1ECA"/>
  <outline>
    <contour>
      <point x="230" y="-202" type="curve"/>
      <point x="285" y="-202"/>
      <point x="307" y="-179"/>
      <point x="313" y="-143" type="curve"/>
      <point x="316" y="-125"/>
      <point x="318" y="-114"/>
      <point x="318" y="-107" type="curve"/>
      <point x="318" y="-76"/>
      <point x="300" y="-53"/>
      <point x="246" y="-53" type="curve"/>
      <point x="191" y="-53"/>
      <point x="169" y="-76"/>
      <point x="163" y="-112" type="curve"/>
      <point x="160" y="-130"/>
      <point x="158" y="-141"/>
      <point x="158" y="-148" type="curve"/>
      <point x="158" y="-179"/>
      <point x="176" y="-202"/>
    </contour>
    <contour>
      <point x="50" y="110" type="line"/>
      <point x="32" y="0" type="line"/>
      <point x="482" y="0" type="line"/>
      <point x="500" y="110" type="line"/>
      <point x="349" y="110" type="line"/>
      <point x="429" y="588" type="line"/>
      <point x="580" y="588" type="line"/>
      <point x="598" y="698" type="line"/>
      <point x="148" y="698" type="line"/>
      <point x="130" y="588" type="line"/>
      <point x="281" y="588" type="line"/>
      <point x="201" y="110" type="line"/>
    </contour>
  </outline>
</glyph>
<glyph name="uni1ED2" format="1">
  <advance width="600"/>
  <unicode hex="1ED2"/>
  <outline>
    <contour>
      <point x="215" y="1126" type="line"/>
      <point x="102" y="1071" type="line"/>
      <point x="215" y="895" type="line"/>
      <point x="289" y="933" type="line"/>
    </contour>
    <contour>
      <point x="564" y="795" type="line"/>
      <point x="443" y="941" type="line"/>
      <point x="349" y="941" type="line"/>
      <point x="182" y="795" type="line"/>
      <point x="245" y="732" type="line"/>
      <point x="381" y="836" type="line"/>
      <point x="490" y="732" type="line"/>
    </contour>
    <contour>
      <point x="279" y="-12" type="curve"/>
      <point x="501" y="-12"/>
      <point x="592" y="210"/>
      <point x="592" y="447" type="curve"/>
      <point x="592" y="610"/>
      <point x="518" y="710"/>
      <point x="349" y="710" type="curve"/>
      <point x="127" y="710"/>
      <point x="36" y="488"/>
      <point x="36" y="251" type="curve"/>
      <point x="36" y="88"/>
      <point x="110" y="-12"/>
    </contour>
    <contour>
      <point x="279" y="108" type="curve"/>
      <point x="216" y="108"/>
      <point x="187" y="149"/>
      <point x="187" y="218" type="curve"/>
      <point x="187" y="243"/>
      <point x="189" y="266"/>
      <point x="193" y="290" type="curve"/>
      <point x="213" y="410" type="line" smooth="yes"/>
      <point x="232" y="524"/>
      <point x="265" y="590"/>
      <point x="349" y="590" type="curve"/>
      <point x="412" y="590"/>
      <point x="441" y="549"/>
      <point x="441" y="480" type="curve"/>
      <point x="441" y="455"/>
      <point x="439" y="432"/>
      <point x="435" y="408" type="curve"/>
      <point x="415" y="288" type="line" smooth="yes"/>
      <point x="396" y="174"/>
      <point x="363" y="108"/>
    </contour>
  </outline>
</glyph>
<glyph name="uni1EE0" format="1">
  <advance width="600"/>
  <unicode hex="1EE0"/>
  <outline>
    <contour>
      <point x="422" y="763" type="curve"/>
      <point x="470" y="763"/>
      <point x="507" y="792"/>
      <point x="535" y="828" type="curve"/>
      <point x="494" y="889" type="line"/>
      <point x="475" y="874"/>
      <point x="459" y="868"/>
      <point x="442" y="868" type="curve"/>
      <point x="420" y="868"/>
      <point x="402" y="878"/>
      <point x="379" y="890" type="curve"/>
      <point x="359" y="901"/>
      <point x="341" y="910"/>
      <point x="315" y="910" type="curve"/>
      <point x="267" y="910"/>
      <point x="230" y="881"/>
      <point x="202" y="845" type="curve"/>
      <point x="243" y="784" type="line"/>
      <point x="262" y="799"/>
      <point x="278" y="805"/>
      <point x="295" y="805" type="curve"/>
      <point x="317" y="805"/>
      <point x="335" y="795"/>
      <point x="358" y="783" type="curve"/>
      <point x="378" y="772"/>
      <point x="396" y="763"/>
    </contour>
    <contour>
      <point x="664" y="710" type="curve"/>
      <point x="681" y="813" type="line"/>
      <point x="558" y="813" type="line"/>
      <point x="538" y="698" type="line"/>
      <point x="440" y="698" type="line"/>
      <point x="414" y="706"/>
      <point x="383" y="710"/>
      <point x="349" y="710" type="curve"/>
      <point x="127" y="710"/>
      <point x="36" y="488"/>
      <point x="36" y="251" type="curve"/>
      <point x="36" y="88"/>
      <point x="110" y="-12"/>
      <point x="279" y="-12" type="curve"/>
      <point x="501" y="-12"/>
      <point x="592" y="210"/>
      <point x="592" y="447" type="curve"/>
      <point x="592" y="512"/>
      <point x="580" y="568"/>
      <point x="554" y="611" type="curve"/>
      <point x="556" y="611" type="line" smooth="yes"/>
      <point x="628" y="611"/>
      <point x="653" y="647"/>
    </contour>
    <contour>
      <point x="279" y="108" type="curve"/>
      <point x="216" y="108"/>
      <point x="187" y="149"/>
      <point x="187" y="218" type="curve"/>
      <point x="187" y="243"/>
      <point x="189" y="266"/>
      <point x="193" y="290" type="curve"/>
      <point x="213" y="410" type="line" smooth="yes"/>
      <point x="232" y="524"/>
      <point x="265" y="590"/>
      <point x="349" y="590" type="curve"/>
      <point x="412" y="590"/>
      <point x="441" y="549"/>
      <point x="441" y="480" type="curve"/>
      <point x="441" y="455"/>
      <point x="439" y="432"/>
      <point x="435" y="408" type="curve"/>
      <point x="415" y="288" type="line" smooth="yes"/>
      <point x="396" y="174"/>
      <point x="363" y="108"/>
    </contour>
  </outline>
</glyph>
<glyph name="uni1EE1" format="1">
  <advance width="600"/>
  <unicode hex="1EE1"/>
  <outline>
    <contour>
      <point x="401" y="593" type="curve"/>
      <point x="449" y="593"/>
      <point x="486" y="622"/>
      <point x="514" y="658" type="curve"/>
      <point x="473" y="719" type="line"/>
      <point x="454" y="704"/>
      <point x="438" y="698"/>
      <point x="421" y="698" type="curve"/>
      <point x="399" y="698"/>
      <point x="381" y="708"/>
      <point x="358" y="720" type="curve"/>
      <point x="338" y="731"/>
      <point x="320" y="740"/>
      <point x="294" y="740" type="curve"/>
      <point x="246" y="740"/>
      <point x="209" y="711"/>
      <point x="181" y="675" type="curve"/>
      <point x="222" y="614" type="line"/>
      <point x="241" y="629"/>
      <point x="257" y="635"/>
      <point x="274" y="635" type="curve"/>
      <point x="296" y="635"/>
      <point x="314" y="625"/>
      <point x="337" y="613" type="curve"/>
      <point x="357" y="602"/>
      <point x="375" y="593"/>
    </contour>
    <contour>
      <point x="265" y="-12" type="curve"/>
      <point x="438" y="-12"/>
      <point x="557" y="109"/>
      <point x="557" y="306" type="curve"/>
      <point x="557" y="361"/>
      <point x="545" y="399"/>
      <point x="519" y="433" type="curve"/>
      <point x="589" y="435"/>
      <point x="612" y="466"/>
      <point x="623" y="528" type="curve"/>
      <point x="640" y="631" type="line"/>
      <point x="517" y="631" type="line"/>
      <point x="497" y="516" type="line"/>
      <point x="418" y="516" type="line"/>
      <point x="393" y="524"/>
      <point x="365" y="528"/>
      <point x="335" y="528" type="curve"/>
      <point x="162" y="528"/>
      <point x="43" y="407"/>
      <point x="43" y="210" type="curve"/>
      <point x="43" y="74"/>
      <point x="125" y="-12"/>
    </contour>
    <contour>
      <point x="276" y="97" type="curve"/>
      <point x="222" y="97"/>
      <point x="188" y="127"/>
      <point x="188" y="188" type="curve"/>
      <point x="188" y="200"/>
      <point x="191" y="217"/>
      <point x="193" y="229" type="curve"/>
      <point x="206" y="307" type="line" smooth="yes"/>
      <point x="218" y="379"/>
      <point x="260" y="419"/>
      <point x="324" y="419" type="curve"/>
      <point x="378" y="419"/>
      <point x="412" y="389"/>
      <point x="412" y="328" type="curve"/>
      <point x="412" y="316"/>
      <point x="409" y="299"/>
      <point x="407" y="287" type="curve"/>
      <point x="394" y="209" type="line" smooth="yes"/>
      <point x="382" y="137"/>
      <point x="340" y="97"/>
    </contour>
  </outline>
</glyph>
<glyph name="uni1EE4" format="1">
  <advance width="600"/>
  <unicode hex="1EE4"/>
  <outline>
    <contour>
      <point x="239" y="-202" type="curve"/>
      <point x="294" y="-202"/>
      <point x="316" y="-179"/>
      <point x="322" y="-143" type="curve"/>
      <point x="325" y="-125"/>
      <point x="327" y="-114"/>
      <point x="327" y="-107" type="curve"/>
      <point x="327" y="-76"/>
      <point x="309" y="-53"/>
      <point x="255" y="-53" type="curve"/>
      <point x="200" y="-53"/>
      <point x="178" y="-76"/>
      <point x="172" y="-112" type="curve"/>
      <point x="169" y="-130"/>
      <point x="167" y="-141"/>
      <point x="167" y="-148" type="curve"/>
      <point x="167" y="-179"/>
      <point x="185" y="-202"/>
    </contour>
    <contour>
      <point x="202" y="260" type="curve"/>
      <point x="275" y="698" type="line"/>
      <point x="128" y="698" type="line"/>
      <point x="60" y="291" type="line" smooth="yes"/>
      <point x="53" y="249"/>
      <point x="49" y="210"/>
      <point x="49" y="176" type="curve"/>
      <point x="49" y="62"/>
      <point x="103" y="-12"/>
      <point x="269" y="-12" type="curve"/>
      <point x="470" y="-12"/>
      <point x="516" y="86"/>
      <point x="547" y="272" type="curve"/>
      <point x="618" y="698" type="line"/>
      <point x="471" y="698" type="line"/>
      <point x="397" y="255" type="line" smooth="yes"/>
      <point x="382" y="165"/>
      <point x="366" y="108"/>
      <point x="277" y="108" type="curve"/>
      <point x="216" y="108"/>
      <point x="194" y="136"/>
      <point x="194" y="186" type="curve"/>
      <point x="194" y="200"/>
      <point x="196" y="224"/>
    </contour>
  </outline>
</glyph>
<glyph name="uni1EEA" format="1">
  <advance width="600"/>
  <unicode hex="1EEA"/>
  <outline>
    <contour>
      <point x="371" y="976" type="line"/>
      <point x="247" y="917" type="line"/>
      <point x="361" y="741" type="line"/>
      <point x="448" y="780" type="line"/>
    </contour>
    <contour>
      <point x="202" y="261" type="curve"/>
      <point x="275" y="698" type="line"/>
      <point x="128" y="698" type="line"/>
      <point x="60" y="291" type="line" smooth="yes"/>
      <point x="53" y="249"/>
      <point x="49" y="210"/>
      <point x="49" y="176" type="curve"/>
      <point x="49" y="62"/>
      <point x="103" y="-12"/>
      <point x="269" y="-12" type="curve"/>
      <point x="470" y="-12"/>
      <point x="516" y="86"/>
      <point x="547" y="271" type="curve"/>
      <point x="604" y="617" type="line"/>
      <point x="645" y="629"/>
      <point x="661" y="661"/>
      <point x="670" y="710" type="curve"/>
      <point x="687" y="813" type="line"/>
      <point x="564" y="813" type="line"/>
      <point x="544" y="698" type="line"/>
      <point x="471" y="698" type="line"/>
      <point x="397" y="256" type="line" smooth="yes"/>
      <point x="382" y="165"/>
      <point x="366" y="108"/>
      <point x="277" y="108" type="curve"/>
      <point x="216" y="108"/>
      <point x="194" y="136"/>
      <point x="194" y="186" type="curve"/>
      <point x="194" y="200"/>
      <point x="196" y="225"/>
    </contour>
  </outline>
</glyph>
<glyph name="uni1EEE" format="1">
  <advance width="600"/>
  <unicode hex="1EEE"/>
  <outline>
    <contour>
      <point x="424" y="763" type="curve"/>
      <point x="472" y="763"/>
      <point x="509" y="792"/>
      <point x="537" y="828" type="curve"/>
      <point x="496" y="889" type="line"/>
      <point x="477" y="874"/>
      <point x="461" y="868"/>
      <point x="444" y="868" type="curve"/>
      <point x="422" y="868"/>
      <point x="404" y="878"/>
      <point x="381" y="890" type="curve"/>
      <point x="361" y="901"/>
      <point x="343" y="910"/>
      <point x="317" y="910" type="curve"/>
      <point x="269" y="910"/>
      <point x="232" y="881"/>
      <point x="204" y="845" type="curve"/>
      <point x="245" y="784" type="line"/>
      <point x="264" y="799"/>
      <point x="280" y="805"/>
      <point x="297" y="805" type="curve"/>
      <point x="319" y="805"/>
      <point x="337" y="795"/>
      <point x="360" y="783" type="curve"/>
      <point x="380" y="772"/>
      <point x="398" y="763"/>
    </contour>
    <contour>
      <point x="202" y="261" type="curve"/>
      <point x="275" y="698" type="line"/>
      <point x="128" y="698" type="line"/>
      <point x="60" y="291" type="line" smooth="yes"/>
      <point x="53" y="249"/>
      <point x="49" y="210"/>
      <point x="49" y="176" type="curve"/>
      <point x="49" y="62"/>
      <point x="103" y="-12"/>
      <point x="269" y="-12" type="curve"/>
      <point x="470" y="-12"/>
      <point x="516" y="86"/>
      <point x="547" y="271" type="curve"/>
      <point x="604" y="617" type="line"/>
      <point x="645" y="629"/>
      <point x="661" y="661"/>
      <point x="670" y="710" type="curve"/>
      <point x="687" y="813" type="line"/>
      <point x="564" y="813" type="line"/>
      <point x="544" y="698" type="line"/>
      <point x="471" y="698" type="line"/>
      <point x="397" y="256" type="line" smooth="yes"/>
      <point x="382" y="165"/>
      <point x="366" y="108"/>
      <point x="277" y="108" type="curve"/>
      <point x="216" y="108"/>
      <point x="194" y="136"/>
      <point x="194" y="186" type="curve"/>
      <point x="194" y="200"/>
      <point x="196" y="225"/>
    </contour>
  </outline>
</glyph>
<glyph name="uni1EEF" format="1">
  <advance width="600"/>
  <unicode hex="1EEF"/>
  <outline>
    <contour>
      <point x="399" y="593" type="curve"/>
      <point x="447" y="593"/>
      <point x="484" y="622"/>
      <point x="512" y="658" type="curve"/>
      <point x="471" y="719" type="line"/>
      <point x="452" y="704"/>
      <point x="436" y="698"/>
      <point x="419" y="698" type="curve"/>
      <point x="397" y="698"/>
      <point x="379" y="708"/>
      <point x="356" y="720" type="curve"/>
      <point x="336" y="731"/>
      <point x="318" y="740"/>
      <point x="292" y="740" type="curve"/>
      <point x="244" y="740"/>
      <point x="207" y="711"/>
      <point x="179" y="675" type="curve"/>
      <point x="220" y="614" type="line"/>
      <point x="239" y="629"/>
      <point x="255" y="635"/>
      <point x="272" y="635" type="curve"/>
      <point x="294" y="635"/>
      <point x="312" y="625"/>
      <point x="335" y="613" type="curve"/>
      <point x="355" y="602"/>
      <point x="373" y="593"/>
    </contour>
    <contour>
      <point x="189" y="-12" type="curve"/>
      <point x="271" y="-12"/>
      <point x="318" y="39"/>
      <point x="357" y="123" type="curve"/>
      <point x="362" y="123" type="line"/>
      <point x="342" y="0" type="line"/>
      <point x="488" y="0" type="line"/>
      <point x="560" y="432" type="line"/>
      <point x="609" y="441"/>
      <point x="628" y="474"/>
      <point x="637" y="528" type="curve"/>
      <point x="654" y="631" type="line"/>
      <point x="531" y="631" type="line"/>
      <point x="511" y="516" type="line"/>
      <point x="428" y="516" type="line"/>
      <point x="383" y="247" type="line" smooth="yes"/>
      <point x="376" y="205"/>
      <point x="351" y="167"/>
      <point x="336" y="147" type="curve"/>
      <point x="313" y="117"/>
      <point x="289" y="100"/>
      <point x="255" y="100" type="curve"/>
      <point x="210" y="100"/>
      <point x="195" y="134"/>
      <point x="195" y="161" type="curve"/>
      <point x="195" y="186"/>
      <point x="199" y="206"/>
      <point x="202" y="224" type="curve"/>
      <point x="251" y="516" type="line"/>
      <point x="105" y="516" type="line"/>
      <point x="59" y="241" type="line" smooth="yes"/>
      <point x="51" y="193"/>
      <point x="48" y="166"/>
      <point x="48" y="137" type="curve"/>
      <point x="48" y="57"/>
      <point x="88" y="-12"/>
    </contour>
  </outline>
</glyph>
<glyph name="uni1EF0" format="1">
  <advance width="600"/>
  <unicode hex="1EF0"/>
  <outline>
    <contour>
      <point x="239" y="-202" type="curve"/>
      <point x="294" y="-202"/>
      <point x="316" y="-179"/>
      <point x="322" y="-143" type="curve"/>
      <point x="325" y="-125"/>
      <point x="327" y="-114"/>
      <point x="327" y="-107" type="curve"/>
      <point x="327" y="-76"/>
      <point x="309" y="-53"/>
      <point x="255" y="-53" type="curve"/>
      <point x="200" y="-53"/>
      <point x="178" y="-76"/>
      <point x="172" y="-112" type="curve"/>
      <point x="169" y="-130"/>
      <point x="167" y="-141"/>
      <point x="167" y="-148" type="curve"/>
      <point x="167" y="-179"/>
      <point x="185" y="-202"/>
    </contour>
    <contour>
      <point x="202" y="261" type="curve"/>
      <point x="275" y="698" type="line"/>
      <point x="128" y="698" type="line"/>
      <point x="60" y="291" type="line" smooth="yes"/>
      <point x="53" y="249"/>
      <point x="49" y="210"/>
      <point x="49" y="176" type="curve"/>
      <point x="49" y="62"/>
      <point x="103" y="-12"/>
      <point x="269" y="-12" type="curve"/>
      <point x="470" y="-12"/>
      <point x="516" y="86"/>
      <point x="547" y="271" type="curve"/>
      <point x="604" y="617" type="line"/>
      <point x="645" y="629"/>
      <point x="661" y="661"/>
      <point x="670" y="710" type="curve"/>
      <point x="687" y="813" type="line"/>
      <point x="564" y="813" type="line"/>
      <point x="544" y="698" type="line"/>
      <point x="471" y="698" type="line"/>
      <point x="397" y="256" type="line" smooth="yes"/>
      <point x="382" y="165"/>
      <point x="366" y="108"/>
      <point x="277" y="108" type="curve"/>
      <point x="216" y="108"/>
      <point x="194" y="136"/>
      <point x="194" y="186" type="curve"/>
      <point x="194" y="200"/>
      <point x="196" y="225"/>
    </contour>
  </outline>
</glyph>
<glyph name="uni1EF1" format="1">
  <advance width="600"/>
  <unicode hex="1EF1"/>
  <outline>
    <contour>
      <point x="249" y="-202" type="curve"/>
      <point x="304" y="-202"/>
      <point x="326" y="-179"/>
      <point x="332" y="-143" type="curve"/>
      <point x="335" y="-125"/>
      <point x="337" y="-114"/>
      <point x="337" y="-107" type="curve"/>
      <point x="337" y="-76"/>
      <point x="319" y="-53"/>
      <point x="265" y="-53" type="curve"/>
      <point x="210" y="-53"/>
      <point x="188" y="-76"/>
      <point x="182" y="-112" type="curve"/>
      <point x="179" y="-130"/>
      <point x="177" y="-141"/>
      <point x="177" y="-148" type="curve"/>
      <point x="177" y="-179"/>
      <point x="195" y="-202"/>
    </contour>
    <contour>
      <point x="189" y="-12" type="curve"/>
      <point x="271" y="-12"/>
      <point x="318" y="39"/>
      <point x="357" y="123" type="curve"/>
      <point x="362" y="123" type="line"/>
      <point x="342" y="0" type="line"/>
      <point x="488" y="0" type="line"/>
      <point x="560" y="432" type="line"/>
      <point x="609" y="441"/>
      <point x="628" y="474"/>
      <point x="637" y="528" type="curve"/>
      <point x="654" y="631" type="line"/>
      <point x="531" y="631" type="line"/>
      <point x="511" y="516" type="line"/>
      <point x="428" y="516" type="line"/>
      <point x="383" y="247" type="line" smooth="yes"/>
      <point x="376" y="205"/>
      <point x="351" y="167"/>
      <point x="336" y="147" type="curve"/>
      <point x="313" y="117"/>
      <point x="289" y="100"/>
      <point x="255" y="100" type="curve"/>
      <point x="210" y="100"/>
      <point x="195" y="134"/>
      <point x="195" y="161" type="curve"/>
      <point x="195" y="186"/>
      <point x="199" y="206"/>
      <point x="202" y="224" type="curve"/>
      <point x="251" y="516" type="line"/>
      <point x="105" y="516" type="line"/>
      <point x="59" y="241" type="line" smooth="yes"/>
      <point x="51" y="193"/>
      <point x="48" y="166"/>
      <point x="48" y="137" type="curve"/>
      <point x="48" y="57"/>
      <point x="88" y="-12"/>
    </contour>
  </outline>
</glyph>
<glyph name="Ygrave" format="1">
  <advance width="600"/>
  <unicode hex="1EF2"/>
  <outline>
    <contour>
      <point x="368" y="976" type="line"/>
      <point x="244" y="917" type="line"/>
      <point x="358" y="741" type="line"/>
      <point x="445" y="780" type="line"/>
    </contour>
    <contour>
      <point x="225" y="246" type="line"/>
      <point x="184" y="0" type="line"/>
      <point x="332" y="0" type="line"/>
      <point x="373" y="249" type="line"/>
      <point x="668" y="698" type="line"/>
      <point x="503" y="698" type="line"/>
      <point x="403" y="534" type="line"/>
      <point x="325" y="397" type="line"/>
      <point x="316" y="397" type="line"/>
      <point x="285" y="534" type="line"/>
      <point x="236" y="698" type="line"/>
      <point x="78" y="698" type="line"/>
    </contour>
  </outline>
</glyph>
<glyph name="uni1EF4" format="1">
  <advance width="600"/>
  <unicode hex="1EF4"/>
  <outline>
    <contour>
      <point x="230" y="-202" type="curve"/>
      <point x="285" y="-202"/>
      <point x="307" y="-179"/>
      <point x="313" y="-143" type="curve"/>
      <point x="316" y="-125"/>
      <point x="318" y="-114"/>
      <point x="318" y="-107" type="curve"/>
      <point x="318" y="-76"/>
      <point x="300" y="-53"/>
      <point x="246" y="-53" type="curve"/>
      <point x="191" y="-53"/>
      <point x="169" y="-76"/>
      <point x="163" y="-112" type="curve"/>
      <point x="160" y="-130"/>
      <point x="158" y="-141"/>
      <point x="158" y="-148" type="curve"/>
      <point x="158" y="-179"/>
      <point x="176" y="-202"/>
    </contour>
    <contour>
      <point x="225" y="246" type="line"/>
      <point x="184" y="0" type="line"/>
      <point x="332" y="0" type="line"/>
      <point x="373" y="249" type="line"/>
      <point x="668" y="698" type="line"/>
      <point x="503" y="698" type="line"/>
      <point x="403" y="534" type="line"/>
      <point x="325" y="397" type="line"/>
      <point x="316" y="397" type="line"/>
      <point x="285" y="534" type="line"/>
      <point x="236" y="698" type="line"/>
      <point x="78" y="698" type="line"/>
    </contour>
  </outline>
</glyph>
<glyph name="uni1EF8" format="1">
  <advance width="600"/>
  <unicode hex="1EF8"/>
  <outline>
    <contour>
      <point x="454" y="762" type="curve"/>
      <point x="507" y="762"/>
      <point x="549" y="790"/>
      <point x="578" y="826" type="curve"/>
      <point x="538" y="893" type="line"/>
      <point x="514" y="876"/>
      <point x="498" y="868"/>
      <point x="475" y="868" type="curve"/>
      <point x="449" y="868"/>
      <point x="427" y="878"/>
      <point x="400" y="890" type="curve"/>
      <point x="377" y="901"/>
      <point x="357" y="911"/>
      <point x="327" y="911" type="curve"/>
      <point x="274" y="911"/>
      <point x="232" y="883"/>
      <point x="203" y="847" type="curve"/>
      <point x="243" y="780" type="line"/>
      <point x="267" y="797"/>
      <point x="283" y="805"/>
      <point x="306" y="805" type="curve"/>
      <point x="332" y="805"/>
      <point x="354" y="795"/>
      <point x="381" y="783" type="curve"/>
      <point x="404" y="772"/>
      <point x="424" y="762"/>
    </contour>
    <contour>
      <point x="225" y="246" type="line"/>
      <point x="184" y="0" type="line"/>
      <point x="332" y="0" type="line"/>
      <point x="373" y="249" type="line"/>
      <point x="668" y="698" type="line"/>
      <point x="503" y="698" type="line"/>
      <point x="403" y="534" type="line"/>
      <point x="325" y="397" type="line"/>
      <point x="316" y="397" type="line"/>
      <point x="285" y="534" type="line"/>
      <point x="236" y="698" type="line"/>
      <point x="78" y="698" type="line"/>
    </contour>
  </outline>
</glyph>
<glyph name="endash" format="1">
  <advance width="900"/>
  <unicode hex="2013"/>
  <outline>
    <contour>
      <point x="62" y="245" type="line"/>
      <point x="837" y="245" type="line"/>
      <point x="857" y="364" type="line"/>
      <point x="82" y="364" type="line"/>
    </contour>
  </outline>
</glyph>
<glyph name="emdash" format="1">
  <advance width="600"/>
  <unicode hex="2014"/>
  <outline>
    <contour>
      <point x="2" y="245" type="line"/>
      <point x="596" y="245" type="line"/>
      <point x="616" y="364" type="line"/>
      <point x="22" y="364" type="line"/>
    </contour>
  </outline>
</glyph>
<glyph name="quoteleft" format="1">
  <advance width="600"/>
  <unicode hex="2018"/>
  <outline>
    <contour>
      <point x="475" y="740" type="line"/>
      <point x="368" y="740" type="line"/>
      <point x="177" y="415" type="line"/>
      <point x="365" y="415" type="line"/>
    </contour>
  </outline>
</glyph>
<glyph name="quotedblleft" format="1">
  <advance width="600"/>
  <unicode hex="201C"/>
  <outline>
    <contour>
      <point x="616" y="740" type="line"/>
      <point x="509" y="740" type="line"/>
      <point x="318" y="415" type="line"/>
      <point x="506" y="415" type="line"/>
    </contour>
    <contour>
      <point x="359" y="740" type="line"/>
      <point x="252" y="740" type="line"/>
      <point x="61" y="415" type="line"/>
      <point x="249" y="415" type="line"/>
    </contour>
  </outline>
</glyph>
<glyph name="quotedblright" format="1">
  <advance width="600"/>
  <unicode hex="201D"/>
  <outline>
    <contour>
      <point x="642" y="740" type="line"/>
      <point x="454" y="740" type="line"/>
      <point x="344" y="415" type="line"/>
      <point x="452" y="415" type="line"/>
    </contour>
    <contour>
      <point x="386" y="740" type="line"/>
      <point x="198" y="740" type="line"/>
      <point x="88" y="415" type="line"/>
      <point x="196" y="415" type="line"/>
    </contour>
  </outline>
</glyph>
<glyph name="quotedblbase" format="1">
  <advance width="600"/>
  <unicode hex="201E"/>
  <outline>
    <contour>
      <point x="540" y="173" type="line"/>
      <point x="352" y="173" type="line"/>
      <point x="242" y="-151" type="line"/>
      <point x="351" y="-151" type="line"/>
    </contour>
    <contour>
      <point x="284" y="173" type="line"/>
      <point x="96" y="173" type="line"/>
      <point x="-14" y="-151" type="line"/>
      <point x="95" y="-151" type="line"/>
    </contour>
  </outline>
</glyph>
<glyph name="bullet" format="1">
  <advance width="600"/>
  <unicode hex="2022"/>
  <outline>
    <contour>
      <point x="291" y="157" type="curve"/>
      <point x="397" y="157"/>
      <point x="447" y="209"/>
      <point x="460" y="287" type="curve"/>
      <point x="466" y="323"/>
      <point x="466" y="336"/>
      <point x="466" y="345" type="curve"/>
      <point x="466" y="406"/>
      <point x="430" y="451"/>
      <point x="326" y="451" type="curve"/>
      <point x="220" y="451"/>
      <point x="170" y="399"/>
      <point x="157" y="321" type="curve"/>
      <point x="151" y="285"/>
      <point x="151" y="272"/>
      <point x="151" y="263" type="curve"/>
      <point x="151" y="202"/>
      <point x="187" y="157"/>
    </contour>
  </outline>
</glyph>
<glyph name="fraction" format="1">
  <advance width="600"/>
  <unicode hex="2044"/>
  <outline>
    <contour>
      <point x="674" y="698" type="line"/>
      <point x="568" y="698" type="line"/>
      <point x="345" y="398" type="line"/>
      <point x="451" y="398" type="line"/>
    </contour>
    <contour>
      <point x="287" y="300" type="line"/>
      <point x="181" y="300" type="line"/>
      <point x="-42" y="0" type="line"/>
      <point x="64" y="0" type="line"/>
    </contour>
  </outline>
</glyph>
<glyph name="uni2074" format="1">
  <advance width="600"/>
  <unicode hex="2074"/>
  <outline>
    <contour>
      <point x="343" y="398" type="line"/>
      <point x="332" y="329" type="line"/>
      <point x="425" y="329" type="line"/>
      <point x="436" y="398" type="line"/>
      <point x="481" y="398" type="line"/>
      <point x="493" y="470" type="line"/>
      <point x="448" y="470" type="line"/>
      <point x="486" y="698" type="line"/>
      <point x="376" y="698" type="line"/>
      <point x="187" y="480" type="line"/>
      <point x="174" y="398" type="line"/>
    </contour>
    <contour>
      <point x="368" y="589" type="line"/>
      <point x="375" y="589" type="line"/>
      <point x="355" y="470" type="line"/>
      <point x="265" y="470" type="line"/>
    </contour>
  </outline>
</glyph>
<glyph name="uni2075" format="1">
  <advance width="600"/>
  <unicode hex="2075"/>
  <outline>
    <contour>
      <point x="312" y="615" type="line"/>
      <point x="492" y="615" type="line"/>
      <point x="506" y="698" type="line"/>
      <point x="259" y="698" type="line"/>
      <point x="205" y="487" type="line"/>
      <point x="282" y="477" type="line"/>
      <point x="291" y="486"/>
      <point x="309" y="499"/>
      <point x="337" y="499" type="curve"/>
      <point x="362" y="499"/>
      <point x="382" y="488"/>
      <point x="382" y="461" type="curve"/>
      <point x="382" y="455"/>
      <point x="381" y="448"/>
      <point x="380" y="442" type="curve"/>
      <point x="377" y="424"/>
      <point x="361" y="399"/>
      <point x="321" y="399" type="curve"/>
      <point x="288" y="399"/>
      <point x="267" y="415"/>
      <point x="255" y="444" type="curve"/>
      <point x="181" y="399" type="line"/>
      <point x="206" y="353"/>
      <point x="246" y="323"/>
      <point x="319" y="323" type="curve"/>
      <point x="437" y="323"/>
      <point x="488" y="402"/>
      <point x="488" y="471" type="curve"/>
      <point x="488" y="533"/>
      <point x="446" y="575"/>
      <point x="385" y="575" type="curve"/>
      <point x="337" y="575"/>
      <point x="308" y="549"/>
      <point x="291" y="510" type="curve"/>
      <point x="285" y="510" type="line"/>
    </contour>
  </outline>
</glyph>
<glyph name="uni2077" format="1">
  <advance width="600"/>
  <unicode hex="2077"/>
  <outline>
    <contour>
      <point x="411" y="621" type="line"/>
      <point x="231" y="329" type="line"/>
      <point x="337" y="329" type="line"/>
      <point x="509" y="619" type="line"/>
      <point x="522" y="698" type="line"/>
      <point x="233" y="698" type="line"/>
      <point x="209" y="555" type="line"/>
      <point x="291" y="555" type="line"/>
      <point x="302" y="621" type="line"/>
    </contour>
  </outline>
</glyph>
<glyph name="uni2087" format="1">
  <advance width="600"/>
  <unicode hex="2087"/>
  <outline>
    <contour>
      <point x="356" y="292" type="line"/>
      <point x="176" y="0" type="line"/>
      <point x="282" y="0" type="line"/>
      <point x="454" y="290" type="line"/>
      <point x="467" y="369" type="line"/>
      <point x="178" y="369" type="line"/>
      <point x="154" y="226" type="line"/>
      <point x="236" y="226" type="line"/>
      <point x="247" y="292" type="line"/>
    </contour>
  </outline>
</glyph>
<glyph name="uni2089" format="1">
  <advance width="600"/>
  <unicode hex="2089"/>
  <outline>
    <contour>
      <point x="445" y="239" type="curve"/>
      <point x="445" y="320"/>
      <point x="396" y="375"/>
      <point x="306" y="375" type="curve"/>
      <point x="203" y="375"/>
      <point x="144" y="304"/>
      <point x="144" y="228" type="curve"/>
      <point x="144" y="169"/>
      <point x="179" y="127"/>
      <point x="237" y="127" type="curve"/>
      <point x="292" y="127"/>
      <point x="313" y="165"/>
      <point x="328" y="185" type="curve"/>
      <point x="333" y="183" type="line"/>
      <point x="303" y="101"/>
      <point x="233" y="65"/>
      <point x="127" y="0" type="curve"/>
      <point x="269" y="0" type="line"/>
      <point x="357" y="49"/>
      <point x="445" y="130"/>
    </contour>
    <contour>
      <point x="289" y="198" type="curve"/>
      <point x="259" y="198"/>
      <point x="246" y="213"/>
      <point x="246" y="234" type="curve"/>
      <point x="246" y="239"/>
      <point x="246" y="245"/>
      <point x="248" y="257" type="curve"/>
      <point x="253" y="287"/>
      <point x="273" y="303"/>
      <point x="303" y="303" type="curve"/>
      <point x="333" y="303"/>
      <point x="346" y="288"/>
      <point x="346" y="267" type="curve"/>
      <point x="346" y="262"/>
      <point x="346" y="256"/>
      <point x="344" y="244" type="curve"/>
      <point x="339" y="214"/>
      <point x="319" y="198"/>
    </contour>
  </outline>
</glyph>
<glyph name="uni20AA" format="1">
  <advance width="600"/>
  <unicode hex="20AA"/>
  <outline>
    <contour>
      <point x="326" y="532" type="line"/>
      <point x="231" y="532" type="line"/>
      <point x="142" y="0" type="line"/>
      <point x="365" y="0" type="line" smooth="yes"/>
      <point x="466" y="0"/>
      <point x="538" y="68"/>
      <point x="560" y="200" type="curve"/>
      <point x="643" y="698" type="line"/>
      <point x="541" y="698" type="line"/>
      <point x="458" y="198" type="line" smooth="yes"/>
      <point x="445" y="119"/>
      <point x="393" y="89"/>
      <point x="337" y="89" type="curve"/>
      <point x="252" y="89" type="line"/>
    </contour>
    <contour>
      <point x="294" y="698" type="curve"/>
      <point x="109" y="698" type="line"/>
      <point x="-7" y="0" type="line"/>
      <point x="95" y="0" type="line"/>
      <point x="196" y="609" type="line"/>
      <point x="285" y="609" type="line" smooth="yes"/>
      <point x="334" y="609"/>
      <point x="368" y="587"/>
      <point x="368" y="532" type="curve"/>
      <point x="368" y="523"/>
      <point x="367" y="513"/>
      <point x="365" y="499" type="curve"/>
      <point x="310" y="166" type="line"/>
      <point x="405" y="166" type="line"/>
      <point x="461" y="500" type="line" smooth="yes"/>
      <point x="464" y="517"/>
      <point x="465" y="533"/>
      <point x="465" y="548" type="curve"/>
      <point x="465" y="649"/>
      <point x="398" y="698"/>
    </contour>
  </outline>
</glyph>
<glyph name="uni2150" format="1">
  <advance width="600"/>
  <unicode hex="2150"/>
  <outline>
    <contour>
      <point x="398" y="269" type="line"/>
      <point x="496" y="269" type="line"/>
      <point x="339" y="0" type="line"/>
      <point x="435" y="0" type="line"/>
      <point x="585" y="262" type="line"/>
      <point x="597" y="335" type="line"/>
      <point x="336" y="335" type="line"/>
      <point x="314" y="202" type="line"/>
      <point x="387" y="202" type="line"/>
    </contour>
    <contour>
      <point x="674" y="698" type="line"/>
      <point x="568" y="698" type="line"/>
      <point x="345" y="398" type="line"/>
      <point x="451" y="398" type="line"/>
    </contour>
    <contour>
      <point x="287" y="300" type="line"/>
      <point x="181" y="300" type="line"/>
      <point x="-42" y="0" type="line"/>
      <point x="64" y="0" type="line"/>
    </contour>
    <contour>
      <point x="150" y="432" type="line"/>
      <point x="64" y="432" type="line"/>
      <point x="53" y="363" type="line"/>
      <point x="302" y="363" type="line"/>
      <point x="313" y="432" type="line"/>
      <point x="238" y="432" type="line"/>
      <point x="282" y="698" type="line"/>
      <point x="188" y="698" type="line"/>
      <point x="77" y="645" type="line"/>
      <point x="99" y="585" type="line"/>
      <point x="182" y="624" type="line"/>
    </contour>
  </outline>
</glyph>
<glyph name="uni2157" format="1">
  <advance width="600"/>
  <unicode hex="2157"/>
  <outline>
    <contour>
      <point x="414" y="-6" type="curve"/>
      <point x="508" y="-6"/>
      <point x="567" y="52"/>
      <point x="567" y="122" type="curve"/>
      <point x="567" y="187"/>
      <point x="523" y="221"/>
      <point x="465" y="221" type="curve"/>
      <point x="422" y="221"/>
      <point x="398" y="197"/>
      <point x="381" y="163" type="curve"/>
      <point x="374" y="163" type="line"/>
      <point x="399" y="266" type="line"/>
      <point x="571" y="266" type="line"/>
      <point x="583" y="335" type="line"/>
      <point x="352" y="335" type="line"/>
      <point x="307" y="142" type="line"/>
      <point x="378" y="134" type="line"/>
      <point x="391" y="147"/>
      <point x="406" y="155"/>
      <point x="429" y="155" type="curve"/>
      <point x="454" y="155"/>
      <point x="471" y="141"/>
      <point x="471" y="119" type="curve"/>
      <point x="471" y="115"/>
      <point x="470" y="110"/>
      <point x="469" y="104" type="curve"/>
      <point x="465" y="80"/>
      <point x="445" y="61"/>
      <point x="409" y="61" type="curve"/>
      <point x="375" y="61"/>
      <point x="357" y="79"/>
      <point x="349" y="102" type="curve"/>
      <point x="282" y="62" type="line"/>
      <point x="297" y="26"/>
      <point x="332" y="-6"/>
    </contour>
    <contour>
      <point x="674" y="698" type="line"/>
      <point x="568" y="698" type="line"/>
      <point x="345" y="398" type="line"/>
      <point x="451" y="398" type="line"/>
    </contour>
    <contour>
      <point x="287" y="300" type="line"/>
      <point x="181" y="300" type="line"/>
      <point x="-42" y="0" type="line"/>
      <point x="64" y="0" type="line"/>
    </contour>
    <contour>
      <point x="173" y="357" type="curve"/>
      <point x="264" y="357"/>
      <point x="323" y="402"/>
      <point x="323" y="464" type="curve"/>
      <point x="323" y="500"/>
      <point x="303" y="529"/>
      <point x="257" y="533" type="curve"/>
      <point x="258" y="537" type="line"/>
      <point x="308" y="544"/>
      <point x="343" y="576"/>
      <point x="343" y="619" type="curve"/>
      <point x="343" y="669"/>
      <point x="295" y="704"/>
      <point x="218" y="704" type="curve"/>
      <point x="159" y="704"/>
      <point x="120" y="683"/>
      <point x="82" y="647" type="curve"/>
      <point x="126" y="597" type="line"/>
      <point x="149" y="622"/>
      <point x="176" y="638"/>
      <point x="207" y="638" type="curve"/>
      <point x="233" y="638"/>
      <point x="249" y="627"/>
      <point x="249" y="611" type="curve"/>
      <point x="249" y="607"/>
      <point x="248" y="603"/>
      <point x="247" y="597" type="curve"/>
      <point x="244" y="579"/>
      <point x="228" y="566"/>
      <point x="190" y="566" type="curve"/>
      <point x="159" y="566" type="line"/>
      <point x="148" y="503" type="line"/>
      <point x="175" y="503" type="line" smooth="yes"/>
      <point x="207" y="503"/>
      <point x="229" y="491"/>
      <point x="229" y="471" type="curve"/>
      <point x="229" y="467"/>
      <point x="228" y="460"/>
      <point x="227" y="454" type="curve"/>
      <point x="224" y="436"/>
      <point x="209" y="423"/>
      <point x="174" y="423" type="curve"/>
      <point x="136" y="423"/>
      <point x="113" y="438"/>
      <point x="104" y="462" type="curve"/>
      <point x="42" y="426" type="line"/>
      <point x="63" y="385"/>
      <point x="101" y="357"/>
    </contour>
  </outline>
</glyph>
<glyph name="uni215A" format="1">
  <advance width="600"/>
  <unicode hex="215A"/>
  <outline>
    <contour>
      <point x="419" y="-6" type="curve"/>
      <point x="512" y="-6"/>
      <point x="568" y="51"/>
      <point x="568" y="125" type="curve"/>
      <point x="568" y="181"/>
      <point x="527" y="217"/>
      <point x="478" y="217" type="curve"/>
      <point x="426" y="217"/>
      <point x="402" y="184"/>
      <point x="389" y="163" type="curve"/>
      <point x="383" y="165" type="line"/>
      <point x="405" y="225"/>
      <point x="471" y="273"/>
      <point x="580" y="335" type="curve"/>
      <point x="456" y="335" type="line"/>
      <point x="373" y="289"/>
      <point x="292" y="205"/>
      <point x="292" y="110" type="curve"/>
      <point x="292" y="35"/>
      <point x="336" y="-6"/>
    </contour>
    <contour>
      <point x="424" y="55" type="curve"/>
      <point x="394" y="55"/>
      <point x="383" y="68"/>
      <point x="383" y="90" type="curve"/>
      <point x="383" y="94"/>
      <point x="383" y="98"/>
      <point x="385" y="110" type="curve"/>
      <point x="390" y="140"/>
      <point x="405" y="158"/>
      <point x="437" y="158" type="curve"/>
      <point x="467" y="158"/>
      <point x="478" y="145"/>
      <point x="478" y="123" type="curve"/>
      <point x="478" y="119"/>
      <point x="478" y="115"/>
      <point x="476" y="103" type="curve"/>
      <point x="471" y="73"/>
      <point x="456" y="55"/>
    </contour>
    <contour>
      <point x="674" y="698" type="line"/>
      <point x="568" y="698" type="line"/>
      <point x="345" y="398" type="line"/>
      <point x="451" y="398" type="line"/>
    </contour>
    <contour>
      <point x="287" y="300" type="line"/>
      <point x="181" y="300" type="line"/>
      <point x="-42" y="0" type="line"/>
      <point x="64" y="0" type="line"/>
    </contour>
    <contour>
      <point x="174" y="357" type="curve"/>
      <point x="268" y="357"/>
      <point x="327" y="415"/>
      <point x="327" y="485" type="curve"/>
      <point x="327" y="550"/>
      <point x="283" y="584"/>
      <point x="225" y="584" type="curve"/>
      <point x="182" y="584"/>
      <point x="158" y="560"/>
      <point x="141" y="526" type="curve"/>
      <point x="134" y="526" type="line"/>
      <point x="159" y="629" type="line"/>
      <point x="331" y="629" type="line"/>
      <point x="343" y="698" type="line"/>
      <point x="112" y="698" type="line"/>
      <point x="67" y="505" type="line"/>
      <point x="138" y="497" type="line"/>
      <point x="151" y="510"/>
      <point x="166" y="518"/>
      <point x="189" y="518" type="curve"/>
      <point x="214" y="518"/>
      <point x="231" y="504"/>
      <point x="231" y="482" type="curve"/>
      <point x="231" y="478"/>
      <point x="230" y="473"/>
      <point x="229" y="467" type="curve"/>
      <point x="225" y="443"/>
      <point x="205" y="424"/>
      <point x="169" y="424" type="curve"/>
      <point x="135" y="424"/>
      <point x="117" y="442"/>
      <point x="109" y="465" type="curve"/>
      <point x="42" y="425" type="line"/>
      <point x="57" y="389"/>
      <point x="92" y="357"/>
    </contour>
  </outline>
</glyph>
<glyph name="uni215C" format="1">
  <advance width="600"/>
  <unicode hex="215C"/>
  <outline>
    <contour>
      <point x="412" y="-6" type="curve"/>
      <point x="505" y="-6"/>
      <point x="561" y="41"/>
      <point x="561" y="101" type="curve"/>
      <point x="561" y="139"/>
      <point x="535" y="161"/>
      <point x="500" y="170" type="curve"/>
      <point x="501" y="174" type="line"/>
      <point x="545" y="185"/>
      <point x="578" y="217"/>
      <point x="578" y="259" type="curve"/>
      <point x="578" y="307"/>
      <point x="538" y="341"/>
      <point x="459" y="341" type="curve"/>
      <point x="367" y="341"/>
      <point x="322" y="287"/>
      <point x="322" y="239" type="curve"/>
      <point x="322" y="204"/>
      <point x="344" y="184"/>
      <point x="373" y="174" type="curve"/>
      <point x="372" y="170" type="line"/>
      <point x="322" y="160"/>
      <point x="285" y="130"/>
      <point x="285" y="82" type="curve"/>
      <point x="285" y="30"/>
      <point x="331" y="-6"/>
    </contour>
    <contour>
      <point x="443" y="197" type="curve"/>
      <point x="416" y="197"/>
      <point x="401" y="209"/>
      <point x="401" y="227" type="curve"/>
      <point x="401" y="232"/>
      <point x="402" y="238"/>
      <point x="403" y="244" type="curve"/>
      <point x="406" y="262"/>
      <point x="420" y="279"/>
      <point x="452" y="279" type="curve"/>
      <point x="479" y="279"/>
      <point x="494" y="267"/>
      <point x="494" y="249" type="curve"/>
      <point x="494" y="244"/>
      <point x="493" y="238"/>
      <point x="492" y="232" type="curve"/>
      <point x="489" y="214"/>
      <point x="475" y="197"/>
    </contour>
    <contour>
      <point x="420" y="56" type="curve"/>
      <point x="393" y="56"/>
      <point x="378" y="68"/>
      <point x="378" y="86" type="curve"/>
      <point x="378" y="91"/>
      <point x="379" y="99"/>
      <point x="380" y="105" type="curve"/>
      <point x="383" y="123"/>
      <point x="397" y="140"/>
      <point x="429" y="140" type="curve"/>
      <point x="456" y="140"/>
      <point x="471" y="128"/>
      <point x="471" y="110" type="curve"/>
      <point x="471" y="105"/>
      <point x="470" y="97"/>
      <point x="469" y="91" type="curve"/>
      <point x="466" y="73"/>
      <point x="452" y="56"/>
    </contour>
    <contour>
      <point x="674" y="698" type="line"/>
      <point x="568" y="698" type="line"/>
      <point x="345" y="398" type="line"/>
      <point x="451" y="398" type="line"/>
    </contour>
    <contour>
      <point x="287" y="300" type="line"/>
      <point x="181" y="300" type="line"/>
      <point x="-42" y="0" type="line"/>
      <point x="64" y="0" type="line"/>
    </contour>
    <contour>
      <point x="173" y="357" type="curve"/>
      <point x="264" y="357"/>
      <point x="323" y="402"/>
      <point x="323" y="464" type="curve"/>
      <point x="323" y="500"/>
      <point x="303" y="529"/>
      <point x="257" y="533" type="curve"/>
      <point x="258" y="537" type="line"/>
      <point x="308" y="544"/>
      <point x="343" y="576"/>
      <point x="343" y="619" type="curve"/>
      <point x="343" y="669"/>
      <point x="295" y="704"/>
      <point x="218" y="704" type="curve"/>
      <point x="159" y="704"/>
      <point x="120" y="683"/>
      <point x="82" y="647" type="curve"/>
      <point x="126" y="597" type="line"/>
      <point x="149" y="622"/>
      <point x="176" y="638"/>
      <point x="207" y="638" type="curve"/>
      <point x="233" y="638"/>
      <point x="249" y="627"/>
      <point x="249" y="611" type="curve"/>
      <point x="249" y="607"/>
      <point x="248" y="603"/>
      <point x="247" y="597" type="curve"/>
      <point x="244" y="579"/>
      <point x="228" y="566"/>
      <point x="190" y="566" type="curve"/>
      <point x="159" y="566" type="line"/>
      <point x="148" y="503" type="line"/>
      <point x="175" y="503" type="line" smooth="yes"/>
      <point x="207" y="503"/>
      <point x="229" y="491"/>
      <point x="229" y="471" type="curve"/>
      <point x="229" y="467"/>
      <point x="228" y="460"/>
      <point x="227" y="454" type="curve"/>
      <point x="224" y="436"/>
      <point x="209" y="423"/>
      <point x="174" y="423" type="curve"/>
      <point x="136" y="423"/>
      <point x="113" y="438"/>
      <point x="104" y="462" type="curve"/>
      <point x="42" y="426" type="line"/>
      <point x="63" y="385"/>
      <point x="101" y="357"/>
    </contour>
  </outline>
</glyph>
<glyph name="uni215E" format="1">
  <advance width="600"/>
  <unicode hex="215E"/>
  <outline>
    <contour>
      <point x="412" y="-6" type="curve"/>
      <point x="505" y="-6"/>
      <point x="561" y="41"/>
      <point x="561" y="101" type="curve"/>
      <point x="561" y="139"/>
      <point x="535" y="161"/>
      <point x="500" y="170" type="curve"/>
      <point x="501" y="174" type="line"/>
      <point x="545" y="185"/>
      <point x="578" y="217"/>
      <point x="578" y="259" type="curve"/>
      <point x="578" y="307"/>
      <point x="538" y="341"/>
      <point x="459" y="341" type="curve"/>
      <point x="367" y="341"/>
      <point x="322" y="287"/>
      <point x="322" y="239" type="curve"/>
      <point x="322" y="204"/>
      <point x="344" y="184"/>
      <point x="373" y="174" type="curve"/>
      <point x="372" y="170" type="line"/>
      <point x="322" y="160"/>
      <point x="285" y="130"/>
      <point x="285" y="82" type="curve"/>
      <point x="285" y="30"/>
      <point x="331" y="-6"/>
    </contour>
    <contour>
      <point x="443" y="197" type="curve"/>
      <point x="416" y="197"/>
      <point x="401" y="209"/>
      <point x="401" y="227" type="curve"/>
      <point x="401" y="232"/>
      <point x="402" y="238"/>
      <point x="403" y="244" type="curve"/>
      <point x="406" y="262"/>
      <point x="420" y="279"/>
      <point x="452" y="279" type="curve"/>
      <point x="479" y="279"/>
      <point x="494" y="267"/>
      <point x="494" y="249" type="curve"/>
      <point x="494" y="244"/>
      <point x="493" y="238"/>
      <point x="492" y="232" type="curve"/>
      <point x="489" y="214"/>
      <point x="475" y="197"/>
    </contour>
    <contour>
      <point x="420" y="56" type="curve"/>
      <point x="393" y="56"/>
      <point x="378" y="68"/>
      <point x="378" y="86" type="curve"/>
      <point x="378" y="91"/>
      <point x="379" y="99"/>
      <point x="380" y="105" type="curve"/>
      <point x="383" y="123"/>
      <point x="397" y="140"/>
      <point x="429" y="140" type="curve"/>
      <point x="456" y="140"/>
      <point x="471" y="128"/>
      <point x="471" y="110" type="curve"/>
      <point x="471" y="105"/>
      <point x="470" y="97"/>
      <point x="469" y="91" type="curve"/>
      <point x="466" y="73"/>
      <point x="452" y="56"/>
    </contour>
    <contour>
      <point x="674" y="698" type="line"/>
      <point x="568" y="698" type="line"/>
      <point x="345" y="398" type="line"/>
      <point x="451" y="398" type="line"/>
    </contour>
    <contour>
      <point x="287" y="300" type="line"/>
      <point x="181" y="300" type="line"/>
      <point x="-42" y="0" type="line"/>
      <point x="64" y="0" type="line"/>
    </contour>
    <contour>
      <point x="158" y="632" type="line"/>
      <point x="256" y="632" type="line"/>
      <point x="99" y="363" type="line"/>
      <point x="195" y="363" type="line"/>
      <point x="345" y="625" type="line"/>
      <point x="357" y="698" type="line"/>
      <point x="96" y="698" type="line"/>
      <point x="74" y="565" type="line"/>
      <point x="147" y="565" type="line"/>
    </contour>
  </outline>
</glyph>
<glyph name="uni2199" format="1">
  <advance width="600"/>
  <unicode hex="2199"/>
  <outline>
    <contour>
      <point x="155" y="419" type="line"/>
      <point x="42" y="419" type="line"/>
      <point x="42" y="81" type="line"/>
      <point x="380" y="81" type="line"/>
      <point x="380" y="194" type="line"/>
      <point x="295" y="194" type="line"/>
      <point x="237" y="190" type="line"/>
      <point x="235" y="193" type="line"/>
      <point x="294" y="247" type="line"/>
      <point x="583" y="536" type="line"/>
      <point x="497" y="622" type="line"/>
      <point x="208" y="333" type="line"/>
      <point x="154" y="274" type="line"/>
      <point x="151" y="276" type="line"/>
      <point x="155" y="334" type="line"/>
    </contour>
  </outline>
</glyph>
<glyph name="uni21B0" format="1">
  <advance width="600"/>
  <unicode hex="21B0"/>
  <outline>
    <contour>
      <point x="343" y="618" type="line"/>
      <point x="263" y="698" type="line"/>
      <point x="24" y="459" type="line"/>
      <point x="263" y="220" type="line"/>
      <point x="343" y="300" type="line"/>
      <point x="283" y="360" type="line"/>
      <point x="239" y="398" type="line"/>
      <point x="240" y="402" type="line"/>
      <point x="320" y="398" type="line"/>
      <point x="425" y="398" type="line"/>
      <point x="425" y="0" type="line"/>
      <point x="547" y="0" type="line"/>
      <point x="547" y="520" type="line"/>
      <point x="320" y="520" type="line"/>
      <point x="240" y="516" type="line"/>
      <point x="239" y="520" type="line"/>
      <point x="283" y="558" type="line"/>
    </contour>
  </outline>
</glyph>
<glyph name="uni2206" format="1">
  <advance width="600"/>
  <unicode hex="2206"/>
  <outline>
    <contour>
      <point x="270" y="698" type="line"/>
      <point x="15" y="125" type="line"/>
      <point x="-6" y="0" type="line"/>
      <point x="522" y="0" type="line"/>
      <point x="542" y="125" type="line"/>
      <point x="478" y="698" type="line"/>
    </contour>
    <contour>
      <point x="346" y="558" type="line"/>
      <point x="354" y="558" type="line"/>
      <point x="387" y="121" type="line"/>
      <point x="167" y="121" type="line"/>
    </contour>
  </outline>
</glyph>
<glyph name="approxequal" format="1">
  <advance width="600"/>
  <unicode hex="2248"/>
  <outline>
    <contour>
      <point x="392" y="96" type="curve"/>
      <point x="459" y="96"/>
      <point x="505" y="124"/>
      <point x="536" y="158" type="curve"/>
      <point x="500" y="240" type="line"/>
      <point x="468" y="221"/>
      <point x="446" y="213"/>
      <point x="416" y="213" type="curve"/>
      <point x="374" y="213"/>
      <point x="343" y="229"/>
      <point x="309" y="247" type="curve"/>
      <point x="267" y="269"/>
      <point x="236" y="284"/>
      <point x="187" y="284" type="curve"/>
      <point x="120" y="284"/>
      <point x="74" y="256"/>
      <point x="43" y="222" type="curve"/>
      <point x="79" y="140" type="line"/>
      <point x="111" y="159"/>
      <point x="133" y="167"/>
      <point x="163" y="167" type="curve"/>
      <point x="205" y="167"/>
      <point x="236" y="151"/>
      <point x="270" y="133" type="curve"/>
      <point x="312" y="111"/>
      <point x="343" y="96"/>
    </contour>
    <contour>
      <point x="430" y="326" type="curve"/>
      <point x="497" y="326"/>
      <point x="543" y="354"/>
      <point x="574" y="388" type="curve"/>
      <point x="538" y="470" type="line"/>
      <point x="506" y="451"/>
      <point x="484" y="443"/>
      <point x="454" y="443" type="curve"/>
      <point x="412" y="443"/>
      <point x="381" y="459"/>
      <point x="347" y="477" type="curve"/>
      <point x="305" y="499"/>
      <point x="274" y="514"/>
      <point x="225" y="514" type="curve"/>
      <point x="158" y="514"/>
      <point x="112" y="486"/>
      <point x="81" y="452" type="curve"/>
      <point x="117" y="370" type="line"/>
      <point x="149" y="389"/>
      <point x="171" y="397"/>
      <point x="201" y="397" type="curve"/>
      <point x="243" y="397"/>
      <point x="274" y="381"/>
      <point x="308" y="363" type="curve"/>
      <point x="350" y="341"/>
      <point x="381" y="326"/>
    </contour>
  </outline>
</glyph>
<glyph name="uni2B11" format="1">
  <advance width="600"/>
  <unicode hex="2B11"/>
  <outline>
    <contour>
      <point x="405" y="318" type="line"/>
      <point x="485" y="398" type="line"/>
      <point x="246" y="637" type="line"/>
      <point x="7" y="398" type="line"/>
      <point x="87" y="318" type="line"/>
      <point x="147" y="378" type="line"/>
      <point x="185" y="422" type="line"/>
      <point x="189" y="421" type="line"/>
      <point x="185" y="340" type="line"/>
      <point x="185" y="104" type="line"/>
      <point x="570" y="104" type="line"/>
      <point x="570" y="226" type="line"/>
      <point x="307" y="226" type="line"/>
      <point x="307" y="340" type="line"/>
      <point x="303" y="421" type="line"/>
      <point x="307" y="422" type="line"/>
      <point x="345" y="378" type="line"/>
    </contour>
  </outline>
</glyph>
<glyph name="uniF6D8" format="1">
  <advance width="0"/>
  <unicode hex="F6D8"/>
  <outline>
    <contour>
      <point x="31" y="956" type="line"/>
      <point x="-88" y="900" type="line"/>
      <point x="20" y="725" type="line"/>
      <point x="100" y="763" type="line"/>
    </contour>
    <contour>
      <point x="-95" y="579" type="curve"/>
      <point x="-40" y="579"/>
      <point x="-16" y="602"/>
      <point x="-10" y="638" type="curve"/>
      <point x="-7" y="656"/>
      <point x="-5" y="667"/>
      <point x="-5" y="674" type="curve"/>
      <point x="-5" y="705"/>
      <point x="-25" y="728"/>
      <point x="-79" y="728" type="curve"/>
      <point x="-134" y="728"/>
      <point x="-158" y="705"/>
      <point x="-164" y="669" type="curve"/>
      <point x="-167" y="651"/>
      <point x="-169" y="640"/>
      <point x="-169" y="633" type="curve"/>
      <point x="-169" y="602"/>
      <point x="-149" y="579"/>
    </contour>
    <contour>
      <point x="123" y="579" type="curve"/>
      <point x="178" y="579"/>
      <point x="202" y="602"/>
      <point x="208" y="638" type="curve"/>
      <point x="211" y="656"/>
      <point x="213" y="667"/>
      <point x="213" y="674" type="curve"/>
      <point x="213" y="705"/>
      <point x="193" y="728"/>
      <point x="139" y="728" type="curve"/>
      <point x="84" y="728"/>
      <point x="60" y="705"/>
      <point x="54" y="669" type="curve"/>
      <point x="51" y="651"/>
      <point x="49" y="640"/>
      <point x="49" y="633" type="curve"/>
      <point x="49" y="602"/>
      <point x="69" y="579"/>
    </contour>
  </outline>
</glyph>
<glyph name="aringacute.alt01" format="1">
  <advance width="600"/>
  <outline>
    <contour>
      <point x="337" y="862" type="line"/>
      <point x="386" y="806" type="line"/>
      <point x="544" y="900" type="line"/>
      <point x="479" y="979" type="line"/>
    </contour>
    <contour>
      <point x="347" y="556" type="curve"/>
      <point x="439" y="556"/>
      <point x="515" y="606"/>
      <point x="515" y="690" type="curve"/>
      <point x="515" y="756"/>
      <point x="457" y="795"/>
      <point x="382" y="795" type="curve"/>
      <point x="290" y="795"/>
      <point x="214" y="745"/>
      <point x="214" y="661" type="curve"/>
      <point x="214" y="595"/>
      <point x="272" y="556"/>
    </contour>
    <contour>
      <point x="356" y="625" type="curve"/>
      <point x="326" y="625"/>
      <point x="310" y="636"/>
      <point x="310" y="660" type="curve"/>
      <point x="310" y="663"/>
      <point x="311" y="670"/>
      <point x="313" y="682" type="curve"/>
      <point x="318" y="712"/>
      <point x="337" y="726"/>
      <point x="373" y="726" type="curve"/>
      <point x="403" y="726"/>
      <point x="419" y="715"/>
      <point x="419" y="691" type="curve"/>
      <point x="419" y="688"/>
      <point x="418" y="681"/>
      <point x="416" y="669" type="curve"/>
      <point x="411" y="639"/>
      <point x="392" y="625"/>
    </contour>
    <contour>
      <point x="199" y="-12" type="curve"/>
      <point x="269" y="-12"/>
      <point x="324" y="25"/>
      <point x="353" y="91" type="curve"/>
      <point x="358" y="91" type="line"/>
      <point x="343" y="0" type="line"/>
      <point x="483" y="0" type="line"/>
      <point x="531" y="290" type="line" smooth="yes"/>
      <point x="535" y="316"/>
      <point x="538" y="337"/>
      <point x="538" y="358" type="curve"/>
      <point x="538" y="471"/>
      <point x="448" y="528"/>
      <point x="311" y="528" type="curve"/>
      <point x="204" y="528"/>
      <point x="129" y="481"/>
      <point x="88" y="432" type="curve"/>
      <point x="162" y="357" type="line"/>
      <point x="198" y="396"/>
      <point x="236" y="420"/>
      <point x="298" y="420" type="curve"/>
      <point x="365" y="420"/>
      <point x="393" y="391"/>
      <point x="393" y="347" type="curve"/>
      <point x="393" y="339"/>
      <point x="392" y="329"/>
      <point x="391" y="323" type="curve"/>
      <point x="387" y="301" type="line"/>
      <point x="292" y="301" type="line" smooth="yes"/>
      <point x="126" y="301"/>
      <point x="37" y="240"/>
      <point x="37" y="117" type="curve"/>
      <point x="37" y="36"/>
      <point x="99" y="-12"/>
    </contour>
    <contour>
      <point x="253" y="84" type="curve"/>
      <point x="211" y="84"/>
      <point x="185" y="100"/>
      <point x="185" y="132" type="curve"/>
      <point x="185" y="139"/>
      <point x="185" y="144"/>
      <point x="187" y="160" type="curve"/>
      <point x="192" y="200"/>
      <point x="229" y="221"/>
      <point x="289" y="221" type="curve"/>
      <point x="374" y="221" type="line"/>
      <point x="364" y="161" type="line" smooth="yes"/>
      <point x="356" y="113"/>
      <point x="308" y="84"/>
    </contour>
  </outline>
</glyph>
<glyph name="dieresis.case" format="1">
  <advance width="600"/>
  <outline>
    <contour>
      <point x="206" y="762" type="curve"/>
      <point x="264" y="762"/>
      <point x="284" y="786"/>
      <point x="291" y="821" type="curve"/>
      <point x="295" y="842"/>
      <point x="296" y="850"/>
      <point x="296" y="857" type="curve"/>
      <point x="296" y="888"/>
      <point x="276" y="911"/>
      <point x="222" y="911" type="curve"/>
      <point x="164" y="911"/>
      <point x="144" y="887"/>
      <point x="137" y="852" type="curve"/>
      <point x="133" y="831"/>
      <point x="132" y="823"/>
      <point x="132" y="816" type="curve"/>
      <point x="132" y="785"/>
      <point x="152" y="762"/>
    </contour>
    <contour>
      <point x="424" y="762" type="curve"/>
      <point x="482" y="762"/>
      <point x="502" y="786"/>
      <point x="509" y="821" type="curve"/>
      <point x="513" y="842"/>
      <point x="514" y="850"/>
      <point x="514" y="857" type="curve"/>
      <point x="514" y="888"/>
      <point x="494" y="911"/>
      <point x="440" y="911" type="curve"/>
      <point x="382" y="911"/>
      <point x="362" y="887"/>
      <point x="355" y="852" type="curve"/>
      <point x="351" y="831"/>
      <point x="350" y="823"/>
      <point x="350" y="816" type="curve"/>
      <point x="350" y="785"/>
      <point x="370" y="762"/>
    </contour>
  </outline>
</glyph>
<glyph name="dotaccent.case" format="1">
  <advance width="600"/>
  <outline>
    <contour>
      <point x="315" y="754" type="curve"/>
      <point x="375" y="754"/>
      <point x="402" y="778"/>
      <point x="409" y="820" type="curve"/>
      <point x="413" y="844"/>
      <point x="414" y="853"/>
      <point x="414" y="860" type="curve"/>
      <point x="414" y="895"/>
      <point x="392" y="921"/>
      <point x="332" y="921" type="curve"/>
      <point x="272" y="921"/>
      <point x="245" y="897"/>
      <point x="238" y="855" type="curve"/>
      <point x="234" y="831"/>
      <point x="233" y="822"/>
      <point x="233" y="815" type="curve"/>
      <point x="233" y="780"/>
      <point x="255" y="754"/>
    </contour>
  </outline>
</glyph>
<glyph name="grave.case" format="1">
  <advance width="600"/>
  <outline>
    <contour>
      <point x="301" y="976" type="line"/>
      <point x="177" y="917" type="line"/>
      <point x="291" y="741" type="line"/>
      <point x="378" y="780" type="line"/>
    </contour>
  </outline>
</glyph>
<glyph name="macron.case" format="1">
  <advance width="600"/>
  <outline>
    <contour>
      <point x="484" y="888" type="line"/>
      <point x="179" y="888" type="line"/>
      <point x="162" y="786" type="line"/>
      <point x="467" y="786" type="line"/>
    </contour>
  </outline>
</glyph>
<glyph name="nine.dnom" format="1">
  <advance width="600"/>
  <outline>
    <contour>
      <point x="141" y="0" type="curve"/>
      <point x="265" y="0" type="line"/>
      <point x="348" y="46"/>
      <point x="429" y="130"/>
      <point x="429" y="225" type="curve"/>
      <point x="429" y="300"/>
      <point x="385" y="341"/>
      <point x="302" y="341" type="curve"/>
      <point x="209" y="341"/>
      <point x="153" y="284"/>
      <point x="153" y="210" type="curve"/>
      <point x="153" y="154"/>
      <point x="194" y="118"/>
      <point x="243" y="118" type="curve"/>
      <point x="295" y="118"/>
      <point x="319" y="151"/>
      <point x="332" y="172" type="curve"/>
      <point x="338" y="170" type="line"/>
      <point x="316" y="110"/>
      <point x="250" y="62"/>
    </contour>
    <contour>
      <point x="284" y="177" type="curve"/>
      <point x="254" y="177"/>
      <point x="243" y="190"/>
      <point x="243" y="212" type="curve"/>
      <point x="243" y="216"/>
      <point x="243" y="220"/>
      <point x="245" y="232" type="curve"/>
      <point x="250" y="262"/>
      <point x="265" y="280"/>
      <point x="297" y="280" type="curve"/>
      <point x="327" y="280"/>
      <point x="338" y="267"/>
      <point x="338" y="245" type="curve"/>
      <point x="338" y="241"/>
      <point x="338" y="237"/>
      <point x="336" y="225" type="curve"/>
      <point x="331" y="195"/>
      <point x="316" y="177"/>
    </contour>
  </outline>
</glyph>
<glyph name="seven.numr" format="1">
  <advance width="600"/>
  <outline>
    <contour>
      <point x="308" y="632" type="line"/>
      <point x="406" y="632" type="line"/>
      <point x="249" y="363" type="line"/>
      <point x="345" y="363" type="line"/>
      <point x="495" y="625" type="line"/>
      <point x="507" y="698" type="line"/>
      <point x="246" y="698" type="line"/>
      <point x="224" y="565" type="line"/>
      <point x="297" y="565" type="line"/>
    </contour>
  </outline>
</glyph>
<glyph name="six.dnom" format="1">
  <advance width="600"/>
  <outline>
    <contour>
      <point x="269" y="-6" type="curve"/>
      <point x="362" y="-6"/>
      <point x="418" y="51"/>
      <point x="418" y="125" type="curve"/>
      <point x="418" y="181"/>
      <point x="377" y="217"/>
      <point x="328" y="217" type="curve"/>
      <point x="276" y="217"/>
      <point x="252" y="184"/>
      <point x="239" y="163" type="curve"/>
      <point x="233" y="165" type="line"/>
      <point x="255" y="225"/>
      <point x="321" y="273"/>
      <point x="430" y="335" type="curve"/>
      <point x="306" y="335" type="line"/>
      <point x="223" y="289"/>
      <point x="142" y="205"/>
      <point x="142" y="110" type="curve"/>
      <point x="142" y="35"/>
      <point x="186" y="-6"/>
    </contour>
    <contour>
      <point x="274" y="55" type="curve"/>
      <point x="244" y="55"/>
      <point x="233" y="68"/>
      <point x="233" y="90" type="curve"/>
      <point x="233" y="94"/>
      <point x="233" y="98"/>
      <point x="235" y="110" type="curve"/>
      <point x="240" y="140"/>
      <point x="255" y="158"/>
      <point x="287" y="158" type="curve"/>
      <point x="317" y="158"/>
      <point x="328" y="145"/>
      <point x="328" y="123" type="curve"/>
      <point x="328" y="119"/>
      <point x="328" y="115"/>
      <point x="326" y="103" type="curve"/>
      <point x="321" y="73"/>
      <point x="306" y="55"/>
    </contour>
  </outline>
</glyph>
<glyph name="uni00A40301" format="1">
  <advance width="600"/>
  <outline>
    <contour>
      <point x="327" y="786" type="line"/>
      <point x="413" y="740" type="line"/>
      <point x="556" y="916" type="line"/>
      <point x="442" y="976" type="line"/>
    </contour>
    <contour>
      <point x="500" y="202" type="curve"/>
      <point x="583" y="698" type="line"/>
      <point x="201" y="698" type="line"/>
      <point x="181" y="576" type="line"/>
      <point x="415" y="576" type="line"/>
      <point x="353" y="206" type="line" smooth="yes"/>
      <point x="342" y="140"/>
      <point x="307" y="108"/>
      <point x="254" y="108" type="curve"/>
      <point x="190" y="108"/>
      <point x="171" y="152"/>
      <point x="168" y="211" type="curve"/>
      <point x="29" y="185" type="line"/>
      <point x="32" y="68"/>
      <point x="103" y="-12"/>
      <point x="243" y="-12" type="curve"/>
      <point x="389" y="-12"/>
      <point x="476" y="60"/>
    </contour>
  </outline>
</glyph>
<glyph name="uni03020300.ccmp0" format="1">
  <advance width="0"/>
  <outline>
    <contour>
      <point x="-143" y="1126" type="line"/>
      <point x="-256" y="1071" type="line"/>
      <point x="-143" y="895" type="line"/>
      <point x="-69" y="933" type="line"/>
    </contour>
    <contour>
      <point x="206" y="795" type="line"/>
      <point x="85" y="941" type="line"/>
      <point x="-9" y="941" type="line"/>
      <point x="-176" y="795" type="line"/>
      <point x="-113" y="732" type="line"/>
      <point x="23" y="836" type="line"/>
      <point x="132" y="732" type="line"/>
    </contour>
  </outline>
</glyph>
<glyph name="uni03020300" format="1">
  <advance width="0"/>
  <note>
    circumflexgrave
  </note>
  <outline>
    <contour>
      <point x="-141" y="956" type="line"/>
      <point x="-254" y="901" type="line"/>
      <point x="-141" y="725" type="line"/>
      <point x="-67" y="763" type="line"/>
    </contour>
    <contour>
      <point x="208" y="625" type="line"/>
      <point x="87" y="771" type="line"/>
      <point x="-7" y="771" type="line"/>
      <point x="-174" y="625" type="line"/>
      <point x="-111" y="562" type="line"/>
      <point x="25" y="666" type="line"/>
      <point x="134" y="562" type="line"/>
    </contour>
  </outline>
</glyph>
<glyph name="uni03020301" format="1">
  <advance width="0"/>
  <note>
    circumflexacute
  </note>
  <outline>
    <contour>
      <point x="132" y="766" type="line"/>
      <point x="211" y="726" type="line"/>
      <point x="342" y="901" type="line"/>
      <point x="232" y="956" type="line"/>
    </contour>
    <contour>
      <point x="208" y="625" type="line"/>
      <point x="87" y="771" type="line"/>
      <point x="-7" y="771" type="line"/>
      <point x="-174" y="625" type="line"/>
      <point x="-111" y="562" type="line"/>
      <point x="25" y="666" type="line"/>
      <point x="134" y="562" type="line"/>
    </contour>
  </outline>
</glyph>
<glyph name="uni03020306.ccmp0" format="1">
  <advance width="0"/>
  <outline>
    <contour>
      <point x="201" y="799" type="line"/>
      <point x="79" y="916" type="line"/>
      <point x="-17" y="916" type="line"/>
      <point x="-171" y="799" type="line"/>
      <point x="-115" y="735" type="line"/>
      <point x="23" y="818" type="line"/>
      <point x="134" y="735" type="line"/>
    </contour>
    <contour>
      <point x="43" y="939" type="curve"/>
      <point x="152" y="939"/>
      <point x="211" y="1012"/>
      <point x="245" y="1073" type="curve"/>
      <point x="179" y="1117" type="line"/>
      <point x="154" y="1091" type="line" smooth="yes"/>
      <point x="113" y="1048"/>
      <point x="86" y="1033"/>
      <point x="48" y="1033" type="curve"/>
      <point x="9" y="1033"/>
      <point x="-17" y="1047"/>
      <point x="-44" y="1091" type="curve"/>
      <point x="-60" y="1117" type="line"/>
      <point x="-129" y="1076" type="line"/>
      <point x="-107" y="1013"/>
      <point x="-69" y="939"/>
    </contour>
  </outline>
</glyph>
<glyph name="uni03020309" format="1">
  <advance width="0"/>
  <note>
    circumflexhook
  </note>
  <outline>
    <contour>
      <point x="244" y="943" type="curve"/>
      <point x="107" y="943" type="line"/>
      <point x="91" y="842" type="line"/>
      <point x="203" y="842" type="line"/>
      <point x="151" y="746" type="line"/>
      <point x="222" y="712" type="line"/>
      <point x="276" y="778" type="line" smooth="yes"/>
      <point x="304" y="813"/>
      <point x="325" y="843"/>
      <point x="325" y="884" type="curve"/>
      <point x="325" y="917"/>
      <point x="299" y="943"/>
    </contour>
    <contour>
      <point x="208" y="625" type="line"/>
      <point x="87" y="771" type="line"/>
      <point x="-7" y="771" type="line"/>
      <point x="-174" y="625" type="line"/>
      <point x="-111" y="562" type="line"/>
      <point x="25" y="666" type="line"/>
      <point x="134" y="562" type="line"/>
    </contour>
  </outline>
</glyph>
<glyph name="uni03060300.ccmp0" format="1">
  <advance width="0"/>
  <outline>
    <contour>
      <point x="19" y="733" type="curve"/>
      <point x="129" y="733"/>
      <point x="183" y="798"/>
      <point x="231" y="882" type="curve"/>
      <point x="157" y="929" type="line"/>
      <point x="132" y="901" type="line" smooth="yes"/>
      <point x="86" y="849"/>
      <point x="59" y="834"/>
      <point x="19" y="834" type="curve"/>
      <point x="-26" y="834"/>
      <point x="-48" y="850"/>
      <point x="-81" y="901" type="curve"/>
      <point x="-99" y="929" type="line"/>
      <point x="-173" y="882" type="line"/>
      <point x="-153" y="806"/>
      <point x="-102" y="733"/>
    </contour>
    <contour>
      <point x="14" y="1126" type="line"/>
      <point x="-105" y="1071" type="line"/>
      <point x="3" y="895" type="line"/>
      <point x="83" y="933" type="line"/>
    </contour>
  </outline>
</glyph>
<glyph name="uni03060309.ccmp0" format="1">
  <advance width="0"/>
  <outline>
    <contour>
      <point x="58" y="1113" type="curve"/>
      <point x="-84" y="1113" type="line"/>
      <point x="-100" y="1012" type="line"/>
      <point x="17" y="1012" type="line"/>
      <point x="-40" y="914" type="line"/>
      <point x="21" y="883" type="line"/>
      <point x="57" y="920" type="line" smooth="yes"/>
      <point x="112" y="976"/>
      <point x="139" y="1014"/>
      <point x="139" y="1051" type="curve"/>
      <point x="139" y="1088"/>
      <point x="113" y="1113"/>
    </contour>
    <contour>
      <point x="19" y="733" type="curve"/>
      <point x="129" y="733"/>
      <point x="183" y="798"/>
      <point x="231" y="882" type="curve"/>
      <point x="157" y="929" type="line"/>
      <point x="132" y="901" type="line" smooth="yes"/>
      <point x="86" y="849"/>
      <point x="59" y="834"/>
      <point x="19" y="834" type="curve"/>
      <point x="-26" y="834"/>
      <point x="-48" y="850"/>
      <point x="-81" y="901" type="curve"/>
      <point x="-99" y="929" type="line"/>
      <point x="-173" y="882" type="line"/>
      <point x="-153" y="806"/>
      <point x="-102" y="733"/>
    </contour>
  </outline>
</glyph>
<glyph name="uni03080304.ccmp0" format="1">
  <advance width="0"/>
  <outline>
    <contour>
      <point x="210" y="1050" type="line"/>
      <point x="-95" y="1050" type="line"/>
      <point x="-112" y="948" type="line"/>
      <point x="193" y="948" type="line"/>
    </contour>
    <contour>
      <point x="-97" y="749" type="curve"/>
      <point x="-42" y="749"/>
      <point x="-18" y="772"/>
      <point x="-12" y="808" type="curve"/>
      <point x="-9" y="826"/>
      <point x="-7" y="837"/>
      <point x="-7" y="844" type="curve"/>
      <point x="-7" y="875"/>
      <point x="-27" y="898"/>
      <point x="-81" y="898" type="curve"/>
      <point x="-136" y="898"/>
      <point x="-160" y="875"/>
      <point x="-166" y="839" type="curve"/>
      <point x="-169" y="821"/>
      <point x="-171" y="810"/>
      <point x="-171" y="803" type="curve"/>
      <point x="-171" y="772"/>
      <point x="-151" y="749"/>
    </contour>
    <contour>
      <point x="121" y="749" type="curve"/>
      <point x="176" y="749"/>
      <point x="200" y="772"/>
      <point x="206" y="808" type="curve"/>
      <point x="209" y="826"/>
      <point x="211" y="837"/>
      <point x="211" y="844" type="curve"/>
      <point x="211" y="875"/>
      <point x="191" y="898"/>
      <point x="137" y="898" type="curve"/>
      <point x="82" y="898"/>
      <point x="58" y="875"/>
      <point x="52" y="839" type="curve"/>
      <point x="49" y="821"/>
      <point x="47" y="810"/>
      <point x="47" y="803" type="curve"/>
      <point x="47" y="772"/>
      <point x="67" y="749"/>
    </contour>
  </outline>
</glyph>
<glyph name="uni1EA9.alt01" format="1">
  <advance width="600"/>
  <outline>
    <contour>
      <point x="584" y="943" type="curve"/>
      <point x="447" y="943" type="line"/>
      <point x="431" y="842" type="line"/>
      <point x="543" y="842" type="line"/>
      <point x="491" y="746" type="line"/>
      <point x="562" y="712" type="line"/>
      <point x="616" y="778" type="line" smooth="yes"/>
      <point x="644" y="813"/>
      <point x="665" y="843"/>
      <point x="665" y="884" type="curve"/>
      <point x="665" y="917"/>
      <point x="639" y="943"/>
    </contour>
    <contour>
      <point x="548" y="625" type="line"/>
      <point x="427" y="771" type="line"/>
      <point x="333" y="771" type="line"/>
      <point x="166" y="625" type="line"/>
      <point x="229" y="562" type="line"/>
      <point x="365" y="666" type="line"/>
      <point x="474" y="562" type="line"/>
    </contour>
    <contour>
      <point x="199" y="-12" type="curve"/>
      <point x="269" y="-12"/>
      <point x="324" y="25"/>
      <point x="353" y="91" type="curve"/>
      <point x="358" y="91" type="line"/>
      <point x="343" y="0" type="line"/>
      <point x="483" y="0" type="line"/>
      <point x="531" y="290" type="line" smooth="yes"/>
      <point x="535" y="316"/>
      <point x="538" y="337"/>
      <point x="538" y="358" type="curve"/>
      <point x="538" y="471"/>
      <point x="448" y="528"/>
      <point x="311" y="528" type="curve"/>
      <point x="204" y="528"/>
      <point x="129" y="481"/>
      <point x="88" y="432" type="curve"/>
      <point x="162" y="357" type="line"/>
      <point x="198" y="396"/>
      <point x="236" y="420"/>
      <point x="298" y="420" type="curve"/>
      <point x="365" y="420"/>
      <point x="393" y="391"/>
      <point x="393" y="347" type="curve"/>
      <point x="393" y="339"/>
      <point x="392" y="329"/>
      <point x="391" y="323" type="curve"/>
      <point x="387" y="301" type="line"/>
      <point x="292" y="301" type="line" smooth="yes"/>
      <point x="126" y="301"/>
      <point x="37" y="240"/>
      <point x="37" y="117" type="curve"/>
      <point x="37" y="36"/>
      <point x="99" y="-12"/>
    </contour>
    <contour>
      <point x="253" y="84" type="curve"/>
      <point x="211" y="84"/>
      <point x="185" y="100"/>
      <point x="185" y="132" type="curve"/>
      <point x="185" y="139"/>
      <point x="185" y="144"/>
      <point x="187" y="160" type="curve"/>
      <point x="192" y="200"/>
      <point x="229" y="221"/>
      <point x="289" y="221" type="curve"/>
      <point x="374" y="221" type="line"/>
      <point x="364" y="161" type="line" smooth="yes"/>
      <point x="356" y="113"/>
      <point x="308" y="84"/>
    </contour>
  </outline>
</glyph>
